<?xml version="1.0" encoding="UTF-8"?>
<!DOCTYPE svg  PUBLIC '-//W3C//DTD SVG 1.1//EN'  'http://www.w3.org/Graphics/SVG/1.1/DTD/svg11.dtd'>
<svg xmlns="http://www.w3.org/2000/svg">
<metadata>Created by FontForge 20120731 at Mon Apr 15 10:53:19 2019
 By www-data
(c) CSTM Fonts, 2015</metadata>
<defs>
<font id="a" horiz-adv-x="1180">
<font-face font-family="Navigo" font-weight="270" ascent="750" bbox="-93 -267 1429 1152" cap-height="750" descent="-250" panose-1="2 7 5 3 7 7 6 4 3 3" stemh="49" stemv="54" underline-position="-25" underline-thickness="50" unicode-range="U+0020-1F7CA" units-per-em="1000" x-height="493"/>
<missing-glyph d="M99 -250v1000h400v-1000h-400zM149 -200h300v900h-300v-900z" horiz-adv-x="598"/>
<glyph d="M110 0v446h-90v47h90v80c0 130 82 187 180 187c89 0 143 -46 156 -109v-37h-45c-9 59 -48 97 -115 97c-68 0 -122 -42 -122 -136v-82h148v-47h-148v-446h-54zM392 0v493h54v-493h-54z" glyph-name="fi" horiz-adv-x="530" unicode="fi"/>
<glyph d="M164 446v-446h-54v446h-90v47h90v87c0 130 93 180 188 180c75 0 122 -22 148 -44v-716h-54v684c-15 14 -45 27 -94 27c-70 0 -134 -33 -134 -129v-89h148v-47h-148z" glyph-name="fl" horiz-adv-x="530" unicode="fl"/>
<glyph d="M99 -250v1000h400v-1000h-400zM149 -200h300v900h-300v-900z" glyph-name=".notdef" horiz-adv-x="598"/>
<glyph d="M59 0h-40v41l276 709h51l274 -704v-46h-42l-92 236h-336zM467 285l-149 391l-149 -391h298z" glyph-name="A" horiz-adv-x="641" unicode="A"/>
<glyph d="M1 37l426 713h428v-49h-352v-287h315v-49h-315v-316h352v-49h-410v236h-266l-138 -236h-40v37zM210 285h235v400z" glyph-name="AE" horiz-adv-x="910" unicode="Æ"/>
<glyph d="M1 37l426 713h428v-49h-352v-287h315v-49h-315v-316h352v-49h-410v236h-266l-138 -236h-40v37zM210 285h235v400zM614 805v36l112 104h46v-36l-113 -104h-45z" glyph-name="AEacute" horiz-adv-x="910" unicode="Ǽ"/>
<glyph d="M59 0h-40v41l276 709h51l274 -704v-46h-42l-92 236h-336zM467 285l-149 391l-149 -391h298zM297 805v36l112 104h46v-36l-113 -104h-45z" glyph-name="Aacute" horiz-adv-x="641" unicode="Á"/>
<glyph d="M59 0h-40v41l276 709h51l274 -704v-46h-42l-92 236h-336zM467 285l-149 391l-149 -391h298zM320 823c-110 0 -126 72 -126 72v42h42s5 -68 84 -68c80 0 80 68 80 68h42v-42s-14 -72 -122 -72z" glyph-name="Abreve" horiz-adv-x="641" unicode="Ă"/>
<glyph d="M59 0h-40v41l276 709h51l274 -704v-46h-42l-92 236h-336zM467 285l-149 391l-149 -391h298zM406 816l-88 80l-87 -80h-36v36l99 90h49l99 -90v-36h-36z" glyph-name="Acircumflex" horiz-adv-x="641" unicode="Â"/>
<glyph d="M59 0h-40v41l276 709h51l274 -704v-46h-42l-92 236h-336zM467 285l-149 391l-149 -391h298zM182 838v76h76v-76h-76zM382 838v76h75v-76h-75z" glyph-name="Adieresis" horiz-adv-x="641" unicode="Ä"/>
<glyph d="M59 0h-40v41l276 709h51l274 -704v-46h-42l-92 236h-336zM467 285l-149 391l-149 -391h298zM296 805l-113 104v36h45l113 -104v-36h-45z" glyph-name="Agrave" horiz-adv-x="641" unicode="À"/>
<glyph d="M59 0h-40v41l276 709h51l274 -704v-46h-42l-92 236h-336zM467 285l-149 391l-149 -391h298zM200 847v52h243v-52h-243z" glyph-name="Amacron" horiz-adv-x="641" unicode="Ā"/>
<glyph d="M533 -70c0 29 19 58 44 70h1l-92 236h-336l-91 -236h-40v41l276 709h51l274 -704v-46s-37 -9 -37 -54c0 -36 31 -48 51 -48v-43h-42s-59 11 -59 75zM467 285l-149 391l-149 -391h298z" glyph-name="Aogonek" horiz-adv-x="641" unicode="Ą"/>
<glyph d="M59 0h-40v41l276 709h51l274 -704v-46h-42l-92 236h-336zM467 285l-149 391l-149 -391h298zM318 801c-48 0 -84 33 -84 80c0 46 36 79 84 79c49 0 84 -33 84 -79c0 -47 -35 -80 -84 -80zM318 841c22 0 40 15 40 40c0 24 -18 39 -40 39c-21 0 -40 -15 -40 -39 c0 -25 19 -40 40 -40z" glyph-name="Aring" horiz-adv-x="641" unicode="Å"/>
<glyph d="M307 1012v36l112 104h46v-36l-113 -104h-45zM59 0h-40v41l276 709h51l274 -704v-46h-42l-92 236h-336zM467 285l-149 391l-149 -391h298zM318 801c-48 0 -84 33 -84 80c0 46 36 79 84 79c49 0 84 -33 84 -79c0 -47 -35 -80 -84 -80zM318 841c22 0 40 15 40 40 c0 24 -18 39 -40 39c-21 0 -40 -15 -40 -39c0 -25 19 -40 40 -40z" glyph-name="Aringacute" horiz-adv-x="641" unicode="Ǻ"/>
<glyph d="M59 0h-40v41l276 709h51l274 -704v-46h-42l-92 236h-336zM467 285l-149 391l-149 -391h298zM387 821c-63 0 -71 53 -115 53c-20 0 -40 -15 -42 -48h-42c0 55 29 95 79 95c63 0 71 -53 112 -53c19 0 34 9 35 48h43c0 -62 -24 -95 -70 -95z" glyph-name="Atilde" horiz-adv-x="641" unicode="Ã"/>
<glyph d="M105 0v750h201c143 0 233 -71 233 -191c0 -76 -33 -139 -122 -169c97 -27 153 -89 153 -181c0 -135 -99 -209 -260 -209h-205zM162 409h136c108 0 183 45 183 149c0 88 -75 144 -176 144h-143v-293zM162 48h149c115 0 200 53 200 160c0 102 -90 154 -199 154h-150v-314z " glyph-name="B" horiz-adv-x="624" unicode="B"/>
<glyph d="M415 -10c-233 0 -361 170 -361 388c0 221 135 382 360 382c216 0 277 -138 277 -138v-39h-42s-46 128 -234 128c-196 0 -302 -149 -302 -333c0 -194 120 -339 303 -339c186 0 238 133 238 133h42v-39s-68 -143 -281 -143z" glyph-name="C" horiz-adv-x="736" unicode="C"/>
<glyph d="M415 -10c-233 0 -361 170 -361 388c0 221 135 382 360 382c216 0 277 -138 277 -138v-39h-42s-46 128 -234 128c-196 0 -302 -149 -302 -333c0 -194 120 -339 303 -339c186 0 238 133 238 133h42v-39s-68 -143 -281 -143zM398 805v36l112 104h46v-36l-113 -104h-45z" glyph-name="Cacute" horiz-adv-x="736" unicode="Ć"/>
<glyph d="M415 -10c-233 0 -361 170 -361 388c0 221 135 382 360 382c216 0 277 -138 277 -138v-39h-42s-46 128 -234 128c-196 0 -302 -149 -302 -333c0 -194 120 -339 303 -339c186 0 238 133 238 133h42v-39s-68 -143 -281 -143zM395 805v39l64 107h49v-39l-64 -107h-49z" glyph-name="Cacute.pl" horiz-adv-x="736"/>
<glyph d="M415 -10c-233 0 -361 170 -361 388c0 221 135 382 360 382c216 0 277 -138 277 -138v-39h-42s-46 128 -234 128c-196 0 -302 -149 -302 -333c0 -194 120 -339 303 -339c186 0 238 133 238 133h42v-39s-68 -143 -281 -143zM446 816h-49l-100 90v36h36l88 -80l86 80h36v-36 z" glyph-name="Ccaron" horiz-adv-x="736" unicode="Č"/>
<glyph d="M505 -112c0 -51 -46 -77 -83 -81h-37v42c42 0 71 11 71 42c0 30 -29 43 -67 43v57c-217 12 -335 177 -335 387c0 221 135 382 360 382c216 0 277 -138 277 -138v-39h-42s-46 128 -234 128c-196 0 -302 -149 -302 -333c0 -194 120 -339 303 -339c186 0 238 133 238 133h42 v-39s-64 -134 -262 -143v-30c48 -7 71 -34 71 -72z" glyph-name="Ccedilla" horiz-adv-x="736" unicode="Ç"/>
<glyph d="M415 -10c-233 0 -361 170 -361 388c0 221 135 382 360 382c216 0 277 -138 277 -138v-39h-42s-46 128 -234 128c-196 0 -302 -149 -302 -333c0 -194 120 -339 303 -339c186 0 238 133 238 133h42v-39s-68 -143 -281 -143zM510 816l-88 80l-87 -80h-36v36l99 90h49l99 -90 v-36h-36z" glyph-name="Ccircumflex" horiz-adv-x="736" unicode="Ĉ"/>
<glyph d="M415 -10c-233 0 -361 170 -361 388c0 221 135 382 360 382c216 0 277 -138 277 -138v-39h-42s-46 128 -234 128c-196 0 -302 -149 -302 -333c0 -194 120 -339 303 -339c186 0 238 133 238 133h42v-39s-68 -143 -281 -143zM380 841v76h76v-76h-76z" glyph-name="Cdotaccent" horiz-adv-x="736" unicode="Ċ"/>
<glyph d="M105 0v750h212c234 0 379 -167 379 -372c0 -208 -145 -378 -379 -378h-212zM163 49h151c187 0 323 136 323 329c0 189 -136 323 -323 323h-151v-652z" glyph-name="D" horiz-adv-x="748" unicode="D"/>
<glyph d="M105 0v750h212c234 0 379 -167 379 -372c0 -208 -145 -378 -379 -378h-212zM163 49h151c187 0 323 136 323 329c0 189 -136 323 -323 323h-151v-652zM342 816h-49l-100 90v36h36l88 -80l86 80h36v-36z" glyph-name="Dcaron" horiz-adv-x="748" unicode="Ď"/>
<glyph d="M700 378c0 -208 -145 -378 -379 -378h-212v359h-91v49h91v342h212c234 0 379 -167 379 -372zM167 49h151c187 0 323 136 323 329c0 189 -136 323 -323 323h-151v-293h120v-49h-120v-310z" glyph-name="Dcroat" horiz-adv-x="753" unicode="Đ"/>
<glyph d="M105 0v750h410v-49h-352v-287h315v-49h-315v-316h352v-49h-410z" glyph-name="E" horiz-adv-x="570" unicode="E"/>
<glyph d="M105 0v750h410v-49h-352v-287h315v-49h-315v-316h352v-49h-410zM278 805v36l112 104h46v-36l-113 -104h-45z" glyph-name="Eacute" horiz-adv-x="570" unicode="É"/>
<glyph d="M105 0v750h410v-49h-352v-287h315v-49h-315v-316h352v-49h-410zM311 823c-110 0 -126 72 -126 72v42h42s5 -68 84 -68c80 0 80 68 80 68h42v-42s-14 -72 -122 -72z" glyph-name="Ebreve" horiz-adv-x="570" unicode="Ĕ"/>
<glyph d="M105 0v750h410v-49h-352v-287h315v-49h-315v-316h352v-49h-410zM336 816h-49l-100 90v36h36l88 -80l86 80h36v-36z" glyph-name="Ecaron" horiz-adv-x="570" unicode="Ě"/>
<glyph d="M105 0v750h410v-49h-352v-287h315v-49h-315v-316h352v-49h-410zM400 816l-88 80l-87 -80h-36v36l99 90h49l99 -90v-36h-36z" glyph-name="Ecircumflex" horiz-adv-x="570" unicode="Ê"/>
<glyph d="M105 0v750h410v-49h-352v-287h315v-49h-315v-316h352v-49h-410zM177 838v76h76v-76h-76zM377 838v76h75v-76h-75z" glyph-name="Edieresis" horiz-adv-x="570" unicode="Ë"/>
<glyph d="M105 0v750h410v-49h-352v-287h315v-49h-315v-316h352v-49h-410zM277 838v76h76v-76h-76z" glyph-name="Edotaccent" horiz-adv-x="570" unicode="Ė"/>
<glyph d="M105 0v750h410v-49h-352v-287h315v-49h-315v-316h352v-49h-410zM300 805l-113 104v36h45l113 -104v-36h-45z" glyph-name="Egrave" horiz-adv-x="570" unicode="È"/>
<glyph d="M105 0v750h410v-49h-352v-287h315v-49h-315v-316h352v-49h-410zM183 847v52h243v-52h-243z" glyph-name="Emacron" horiz-adv-x="570" unicode="Ē"/>
<glyph d="M593 750h53v-869c0 -93 -40 -141 -119 -141c-70 0 -107 42 -116 71v40h43c2 -26 23 -61 73 -61c44 0 66 28 66 89v121l-435 651v-651h-53v750h53l435 -654v654z" glyph-name="Eng" horiz-adv-x="751" unicode="Ŋ"/>
<glyph d="M428 -70c0 29 19 58 44 70h-367v750h410v-49h-352v-287h315v-49h-315v-316h352v-49s-37 -9 -37 -54c0 -36 31 -48 51 -48v-43h-42s-59 11 -59 75z" glyph-name="Eogonek" horiz-adv-x="570" unicode="Ę"/>
<glyph d="M700 378c0 -208 -145 -378 -379 -378h-212v359h-91v49h91v342h212c234 0 379 -167 379 -372zM167 49h151c187 0 323 136 323 329c0 189 -136 323 -323 323h-151v-293h120v-49h-120v-310z" glyph-name="Eth" horiz-adv-x="753" unicode="Ð"/>
<glyph d="M756 133c0 0 -62 -143 -282 -143c-188 0 -305 120 -337 289h-95v49h87c-1 15 -2 34 -2 50s1 34 2 50h-87v49h95c33 169 154 283 337 283c216 0 277 -138 277 -138v-39h-43s-46 128 -233 128c-153 0 -249 -93 -278 -234h411l-29 -49h-392c-1 -16 -2 -34 -2 -50 s1 -35 3 -50h332l-31 -49h-291c30 -149 134 -240 277 -240c186 0 238 133 238 133h43v-39z" glyph-name="Euro" horiz-adv-x="815" unicode="€"/>
<glyph d="M664 124c0 0 -53 -134 -240 -134c-160 0 -260 101 -288 242h-89v51h81c-1 12 -1 23 -1 35c0 13 1 25 2 38h-82v51h90c30 140 133 233 286 233c184 0 236 -128 236 -128v-43h-45s-35 121 -190 121c-124 0 -201 -76 -227 -183h313l-29 -51h-293c-1 -13 -2 -25 -2 -38 c0 -12 1 -23 2 -35h239l-30 -51h-200c26 -115 110 -191 228 -191c153 0 194 125 194 125h45v-42z" glyph-name="Euro.old" horiz-adv-x="728"/>
<glyph d="M555 127c0 0 -46 -137 -210 -137c-139 0 -226 101 -250 242h-62v48h54c-1 11 -1 26 -1 38c0 13 1 30 2 41h-55v48h62c26 140 116 233 250 233c160 0 206 -132 206 -132v-39h-42s-33 124 -163 124c-104 0 -172 -72 -195 -186h278l-30 -48h-256c0 -12 -1 -28 -1 -41 c0 -12 0 -27 1 -38h203l-30 -48h-164c22 -121 95 -194 194 -194c130 0 168 128 168 128h41v-39z" glyph-name="Euro.oldtab" horiz-adv-x="600"/>
<glyph d="M605 133c0 0 -51 -143 -228 -143c-153 0 -248 119 -275 286h-73v48h67c-2 17 -3 37 -3 54c0 12 1 28 2 40h-66v49h71c25 174 124 293 277 293c174 0 223 -138 223 -138v-39h-42s-36 128 -180 128c-121 0 -198 -97 -220 -244h340l-30 -49h-315c0 -12 -1 -28 -1 -40 c0 -17 1 -38 2 -54h255l-30 -48h-217c25 -147 106 -237 216 -237c143 0 185 133 185 133h42v-39z" glyph-name="Euro.tab" horiz-adv-x="650"/>
<glyph d="M105 0v750h403v-49h-345v-296h315v-49h-315v-356h-58z" glyph-name="F" horiz-adv-x="552" unicode="F"/>
<glyph d="M424 -10c-234 0 -371 170 -371 388c0 220 137 382 370 382c221 0 283 -138 283 -138v-39h-43s-49 128 -239 128c-205 0 -312 -150 -312 -333c0 -194 122 -339 313 -339c135 0 203 66 229 99v189h-221v49h279v-259s-69 -127 -288 -127z" glyph-name="G" horiz-adv-x="778" unicode="G"/>
<glyph d="M424 -10c-234 0 -371 170 -371 388c0 220 137 382 370 382c221 0 283 -138 283 -138v-39h-43s-49 128 -239 128c-205 0 -312 -150 -312 -333c0 -194 122 -339 313 -339c135 0 203 66 229 99v189h-221v49h279v-259s-69 -127 -288 -127zM424 823c-110 0 -126 72 -126 72v42 h42s5 -68 84 -68c80 0 80 68 80 68h42v-42s-14 -72 -122 -72z" glyph-name="Gbreve" horiz-adv-x="778" unicode="Ğ"/>
<glyph d="M424 -10c-234 0 -371 170 -371 388c0 220 137 382 370 382c221 0 283 -138 283 -138v-39h-43s-49 128 -239 128c-205 0 -312 -150 -312 -333c0 -194 122 -339 313 -339c135 0 203 66 229 99v189h-221v49h279v-259s-69 -127 -288 -127zM507 816l-88 80l-87 -80h-36v36 l99 90h49l99 -90v-36h-36z" glyph-name="Gcircumflex" horiz-adv-x="778" unicode="Ĝ"/>
<glyph d="M424 -10c-234 0 -371 170 -371 388c0 220 137 382 370 382c221 0 283 -138 283 -138v-39h-43s-49 128 -239 128c-205 0 -312 -150 -312 -333c0 -194 122 -339 313 -339c135 0 203 66 229 99v189h-221v49h279v-259s-69 -127 -288 -127zM399 -191v139h60v-58l-25 -81h-35z " glyph-name="Gcommaaccent" horiz-adv-x="778" unicode="Ģ"/>
<glyph d="M424 -10c-234 0 -371 170 -371 388c0 220 137 382 370 382c221 0 283 -138 283 -138v-39h-43s-49 128 -239 128c-205 0 -312 -150 -312 -333c0 -194 122 -339 313 -339c135 0 203 66 229 99v189h-221v49h279v-259s-69 -127 -288 -127zM384 838v76h76v-76h-76z" glyph-name="Gdotaccent" horiz-adv-x="778" unicode="Ġ"/>
<glyph d="M105 0v750h58v-342h429v342h58v-750h-58v359h-429v-359h-58z" glyph-name="H" horiz-adv-x="755" unicode="H"/>
<glyph d="M167 359v-359h-58v559h-90v49h90v142h58v-142h429v142h58v-142h77v-49h-77v-559h-58v359h-429zM167 408h429v151h-429v-151z" glyph-name="Hbar" horiz-adv-x="760" unicode="Ħ"/>
<glyph d="M105 0v750h58v-342h429v342h58v-750h-58v359h-429v-359h-58zM468 816l-88 80l-87 -80h-36v36l99 90h49l99 -90v-36h-36z" glyph-name="Hcircumflex" horiz-adv-x="755" unicode="Ĥ"/>
<glyph d="M105 0v750h58v-750h-58z" glyph-name="I" horiz-adv-x="268" unicode="I"/>
<glyph d="M105 0v750h58v-750h-58zM401 -10c-90 0 -142 58 -144 104v39h42c-2 -43 38 -94 100 -94c69 0 101 38 101 131v580h59v-579c0 -117 -48 -181 -158 -181z" glyph-name="IJ" horiz-adv-x="657" unicode="Ĳ"/>
<glyph d="M105 0v750h58v-750h-58zM110 805v36l112 104h46v-36l-113 -104h-45z" glyph-name="Iacute" horiz-adv-x="268" unicode="Í"/>
<glyph d="M136 823c-110 0 -126 72 -126 72v42h42s5 -68 84 -68c80 0 80 68 80 68h42v-42s-14 -72 -122 -72zM105 0v750h58v-750h-58z" glyph-name="Ibreve" horiz-adv-x="268" unicode="Ĭ"/>
<glyph d="M222 816l-88 80l-87 -80h-36v36l99 90h49l99 -90v-36h-36zM105 0v750h58v-750h-58z" glyph-name="Icircumflex" horiz-adv-x="268" unicode="Î"/>
<glyph d="M-4 838v76h76v-76h-76zM196 838v76h75v-76h-75zM105 0v750h58v-750h-58z" glyph-name="Idieresis" horiz-adv-x="268" unicode="Ï"/>
<glyph d="M98 838v76h76v-76h-76zM105 0v750h58v-750h-58z" glyph-name="Idotaccent" horiz-adv-x="268" unicode="İ"/>
<glyph d="M105 0v750h58v-750h-58zM116 805l-113 104v36h45l113 -104v-36h-45z" glyph-name="Igrave" horiz-adv-x="268" unicode="Ì"/>
<glyph d="M13 847v52h243v-52h-243zM105 0v750h58v-750h-58z" glyph-name="Imacron" horiz-adv-x="268" unicode="Ī"/>
<glyph d="M76 -70c0 29 19 58 44 70h-15v750h58v-750s-37 -9 -37 -54c0 -36 31 -48 51 -48v-43h-42s-59 11 -59 75z" glyph-name="Iogonek" horiz-adv-x="268" unicode="Į"/>
<glyph d="M198 821c-63 0 -71 53 -115 53c-20 0 -40 -15 -42 -48h-42c0 55 29 95 79 95c63 0 71 -53 112 -53c19 0 34 9 35 48h43c0 -62 -24 -95 -70 -95zM105 0v750h58v-750h-58z" glyph-name="Itilde" horiz-adv-x="268" unicode="Ĩ"/>
<glyph d="M170 -10c-90 0 -142 58 -144 104v39h42c-2 -43 38 -94 100 -94c69 0 101 38 101 131v580h59v-579c0 -117 -48 -181 -158 -181z" glyph-name="J" horiz-adv-x="426" unicode="J"/>
<glyph d="M170 -10c-90 0 -142 58 -144 104v39h42c-2 -43 38 -94 100 -94c69 0 101 38 101 131v580h59v-579c0 -117 -48 -181 -158 -181zM383 816l-88 80l-87 -80h-36v36l99 90h49l99 -90v-36h-36z" glyph-name="Jcircumflex" horiz-adv-x="426" unicode="Ĵ"/>
<glyph d="M163 359v-359h-58v750h58v-358l385 358h36v-36l-363 -335l376 -340v-39h-39z" glyph-name="K" horiz-adv-x="612" unicode="K"/>
<glyph d="M311 -191v139h60v-58l-25 -81h-35zM163 359v-359h-58v750h58v-358l385 358h36v-36l-363 -335l376 -340v-39h-39z" glyph-name="Kcommaaccent" horiz-adv-x="612" unicode="Ķ"/>
<glyph d="M105 0v750h58v-701h345v-49h-403z" glyph-name="L" horiz-adv-x="530" unicode="L"/>
<glyph d="M105 0v750h58v-701h345v-49h-403zM110 805v36l112 104h46v-36l-113 -104h-45z" glyph-name="Lacute" horiz-adv-x="530" unicode="Ĺ"/>
<glyph d="M105 0v750h58v-701h345v-49h-403zM418 602v148h61v-61l-25 -87h-36z" glyph-name="Lcaron" horiz-adv-x="537" unicode="Ľ"/>
<glyph d="M105 0v750h58v-701h345v-49h-403zM289 -191v139h60v-58l-25 -81h-35z" glyph-name="Lcommaaccent" horiz-adv-x="530" unicode="Ļ"/>
<glyph d="M373 311v71h71v-71h-71zM105 0v750h58v-701h345v-49h-403z" glyph-name="Ldot" horiz-adv-x="532" unicode="Ŀ"/>
<glyph d="M512 49v-49h-403v283l-90 -40v49l90 40v418h58v-392l124 56v-49l-124 -56v-260h345z" glyph-name="Lslash" horiz-adv-x="534" unicode="Ł"/>
<glyph d="M427 187l-269 474v-661h-53v750h65l281 -491l278 491h65v-750h-59v664l-269 -477h-39z" glyph-name="M" horiz-adv-x="899" unicode="M"/>
<glyph d="M105 0v750h53l435 -654v654h53v-750h-53l-435 651v-651h-53z" glyph-name="N" horiz-adv-x="751" unicode="N"/>
<glyph d="M105 0v750h53l435 -654v654h53v-750h-53l-435 651v-651h-53zM359 805v36l112 104h46v-36l-113 -104h-45z" glyph-name="Nacute" horiz-adv-x="751" unicode="Ń"/>
<glyph d="M105 0v750h53l435 -654v654h53v-750h-53l-435 651v-651h-53zM361 805v39l64 107h49v-39l-64 -107h-49z" glyph-name="Nacute.pl" horiz-adv-x="751"/>
<glyph d="M105 0v750h53l435 -654v654h53v-750h-53l-435 651v-651h-53zM412 816h-49l-100 90v36h36l88 -80l86 80h36v-36z" glyph-name="Ncaron" horiz-adv-x="751" unicode="Ň"/>
<glyph d="M105 0v750h53l435 -654v654h53v-750h-53l-435 651v-651h-53zM340 -191v139h60v-58l-25 -81h-35z" glyph-name="Ncommaaccent" horiz-adv-x="751" unicode="Ņ"/>
<glyph d="M105 0v750h53l435 -654v654h53v-750h-53l-435 651v-651h-53zM454 821c-63 0 -71 53 -115 53c-20 0 -40 -15 -42 -48h-42c0 55 29 95 79 95c63 0 71 -53 112 -53c19 0 34 9 35 48h43c0 -62 -24 -95 -70 -95z" glyph-name="Ntilde" horiz-adv-x="751" unicode="Ñ"/>
<glyph d="M415 -10c-223 0 -362 165 -362 388c0 220 139 382 362 382s362 -162 362 -382c0 -223 -139 -388 -362 -388zM415 39c187 0 303 144 303 339c0 191 -116 333 -303 333s-303 -142 -303 -333c0 -195 116 -339 303 -339z" glyph-name="O" horiz-adv-x="830" unicode="O"/>
<glyph d="M936 0h-409c-34 -7 -77 -10 -112 -10c-223 0 -362 165 -362 388c0 220 139 382 362 382c35 0 78 -3 111 -10h410v-49h-352v-287h315v-49h-315v-316h352v-49zM112 378c0 -195 116 -339 303 -339c35 0 78 4 111 13v647c-33 9 -75 12 -111 12c-187 0 -303 -142 -303 -333z " glyph-name="OE" horiz-adv-x="991" unicode="Œ"/>
<glyph d="M415 -10c-223 0 -362 165 -362 388c0 220 139 382 362 382s362 -162 362 -382c0 -223 -139 -388 -362 -388zM415 39c187 0 303 144 303 339c0 191 -116 333 -303 333s-303 -142 -303 -333c0 -195 116 -339 303 -339zM386 805v36l112 104h46v-36l-113 -104h-45z" glyph-name="Oacute" horiz-adv-x="830" unicode="Ó"/>
<glyph d="M415 -10c-223 0 -362 165 -362 388c0 220 139 382 362 382s362 -162 362 -382c0 -223 -139 -388 -362 -388zM415 39c187 0 303 144 303 339c0 191 -116 333 -303 333s-303 -142 -303 -333c0 -195 116 -339 303 -339zM382 805v39l64 107h49v-39l-64 -107h-49z" glyph-name="Oacute.pl" horiz-adv-x="830"/>
<glyph d="M415 -10c-223 0 -362 165 -362 388c0 220 139 382 362 382s362 -162 362 -382c0 -223 -139 -388 -362 -388zM415 39c187 0 303 144 303 339c0 191 -116 333 -303 333s-303 -142 -303 -333c0 -195 116 -339 303 -339zM416 823c-110 0 -126 72 -126 72v42h42s5 -68 84 -68 c80 0 80 68 80 68h42v-42s-14 -72 -122 -72z" glyph-name="Obreve" horiz-adv-x="830" unicode="Ŏ"/>
<glyph d="M415 -10c-223 0 -362 165 -362 388c0 220 139 382 362 382s362 -162 362 -382c0 -223 -139 -388 -362 -388zM415 39c187 0 303 144 303 339c0 191 -116 333 -303 333s-303 -142 -303 -333c0 -195 116 -339 303 -339zM504 816l-88 80l-87 -80h-36v36l99 90h49l99 -90v-36 h-36z" glyph-name="Ocircumflex" horiz-adv-x="830" unicode="Ô"/>
<glyph d="M415 -10c-223 0 -362 165 -362 388c0 220 139 382 362 382s362 -162 362 -382c0 -223 -139 -388 -362 -388zM415 39c187 0 303 144 303 339c0 191 -116 333 -303 333s-303 -142 -303 -333c0 -195 116 -339 303 -339zM279 838v76h76v-76h-76zM479 838v76h75v-76h-75z" glyph-name="Odieresis" horiz-adv-x="830" unicode="Ö"/>
<glyph d="M415 -10c-223 0 -362 165 -362 388c0 220 139 382 362 382s362 -162 362 -382c0 -223 -139 -388 -362 -388zM415 39c187 0 303 144 303 339c0 191 -116 333 -303 333s-303 -142 -303 -333c0 -195 116 -339 303 -339zM391 805l-113 104v36h45l113 -104v-36h-45z" glyph-name="Ograve" horiz-adv-x="830" unicode="Ò"/>
<glyph d="M415 -10c-223 0 -362 165 -362 388c0 220 139 382 362 382s362 -162 362 -382c0 -223 -139 -388 -362 -388zM415 39c187 0 303 144 303 339c0 191 -116 333 -303 333s-303 -142 -303 -333c0 -195 116 -339 303 -339zM309 804v36l112 104h40v-36l-113 -104h-39zM481 804 v36l112 104h40v-36l-113 -104h-39z" glyph-name="Ohungarumlaut" horiz-adv-x="830" unicode="Ő"/>
<glyph d="M415 -10c-223 0 -362 165 -362 388c0 220 139 382 362 382s362 -162 362 -382c0 -223 -139 -388 -362 -388zM415 39c187 0 303 144 303 339c0 191 -116 333 -303 333s-303 -142 -303 -333c0 -195 116 -339 303 -339zM293 847v52h243v-52h-243z" glyph-name="Omacron" horiz-adv-x="830" unicode="Ō"/>
<glyph d="M415 -10c-79 0 -150 21 -205 58l-64 -88h-62l88 121c-75 70 -119 175 -119 297c0 220 139 382 362 382c80 0 150 -21 206 -58l63 88h62l-87 -120c74 -69 118 -172 118 -292c0 -223 -139 -388 -362 -388zM112 378c0 -106 35 -192 93 -253l384 532c-46 33 -107 54 -174 54 c-187 0 -303 -142 -303 -333zM415 39c187 0 303 144 303 339c0 103 -34 187 -91 247l-385 -532c46 -32 105 -54 173 -54z" glyph-name="Oslash" horiz-adv-x="830" unicode="Ø"/>
<glyph d="M415 -10c-79 0 -150 21 -205 58l-64 -88h-62l88 121c-75 70 -119 175 -119 297c0 220 139 382 362 382c80 0 150 -21 206 -58l63 88h62l-87 -120c74 -69 118 -172 118 -292c0 -223 -139 -388 -362 -388zM112 378c0 -106 35 -192 93 -253l384 532c-46 33 -107 54 -174 54 c-187 0 -303 -142 -303 -333zM415 39c187 0 303 144 303 339c0 103 -34 187 -91 247l-385 -532c46 -32 105 -54 173 -54zM400 805v36l112 104h46v-36l-113 -104h-45z" glyph-name="Oslashacute" horiz-adv-x="830" unicode="Ǿ"/>
<glyph d="M415 -10c-223 0 -362 165 -362 388c0 220 139 382 362 382s362 -162 362 -382c0 -223 -139 -388 -362 -388zM415 39c187 0 303 144 303 339c0 191 -116 333 -303 333s-303 -142 -303 -333c0 -195 116 -339 303 -339zM479 821c-63 0 -71 53 -115 53c-20 0 -40 -15 -42 -48 h-42c0 55 29 95 79 95c63 0 71 -53 112 -53c19 0 34 9 35 48h43c0 -62 -24 -95 -70 -95z" glyph-name="Otilde" horiz-adv-x="830" unicode="Õ"/>
<glyph d="M105 0v750h187c161 0 263 -83 263 -221c0 -128 -88 -237 -263 -237h-129v-292h-58zM163 341h128c136 0 205 82 205 187c0 88 -65 173 -205 173h-128v-360z" glyph-name="P" horiz-adv-x="594" unicode="P"/>
<glyph d="M441 -10c-225 0 -393 175 -393 386s168 384 393 384c224 0 392 -173 392 -384s-168 -386 -392 -386zM441 34c194 0 341 157 341 342c0 186 -147 340 -341 340c-195 0 -343 -154 -343 -340c0 -185 148 -342 343 -342zM339 164v410h114c94 0 153 -46 153 -122 c0 -71 -51 -135 -153 -135h-68v-153h-46zM385 358h68c72 0 107 41 107 93c0 43 -33 82 -107 82h-68v-175z" glyph-name="Pcircle" horiz-adv-x="881" unicode="Ⓟ"/>
<glyph d="M764 -71v-39h-39l-126 146c-52 -30 -114 -46 -184 -46c-223 0 -362 165 -362 388c0 220 139 382 362 382s362 -162 362 -382c0 -131 -48 -242 -132 -311zM112 378c0 -195 116 -339 303 -339c57 0 107 13 149 37l-125 145v39h39l131 -152c70 61 109 157 109 270 c0 191 -116 333 -303 333s-303 -142 -303 -333z" glyph-name="Q" horiz-adv-x="830" unicode="Q"/>
<glyph d="M163 0h-58v750h183c162 0 253 -77 253 -206c0 -98 -57 -183 -183 -205l225 -298v-41h-40l-247 328h-133v-328zM163 380h138c130 0 182 80 182 163c0 65 -41 157 -182 157h-138v-320z" glyph-name="R" horiz-adv-x="619" unicode="R"/>
<glyph d="M163 0h-58v750h183c162 0 253 -77 253 -206c0 -98 -57 -183 -183 -205l225 -298v-41h-40l-247 328h-133v-328zM163 380h138c130 0 182 80 182 163c0 65 -41 157 -182 157h-138v-320zM267 805v36l112 104h46v-36l-113 -104h-45z" glyph-name="Racute" horiz-adv-x="619" unicode="Ŕ"/>
<glyph d="M163 0h-58v750h183c162 0 253 -77 253 -206c0 -98 -57 -183 -183 -205l225 -298v-41h-40l-247 328h-133v-328zM163 380h138c130 0 182 80 182 163c0 65 -41 157 -182 157h-138v-320zM316 816h-49l-100 90v36h36l88 -80l86 80h36v-36z" glyph-name="Rcaron" horiz-adv-x="619" unicode="Ř"/>
<glyph d="M163 0h-58v750h183c162 0 253 -77 253 -206c0 -98 -57 -183 -183 -205l225 -298v-41h-40l-247 328h-133v-328zM163 380h138c130 0 182 80 182 163c0 65 -41 157 -182 157h-138v-320zM302 -191v139h60v-58l-25 -81h-35z" glyph-name="Rcommaaccent" horiz-adv-x="619" unicode="Ŗ"/>
<glyph d="M302 -10c-148 0 -219 74 -248 153v39h42c30 -90 95 -143 207 -143c99 0 174 54 174 156c0 67 -31 119 -174 157l-35 10c-144 37 -201 105 -201 208s81 190 233 190c128 0 198 -63 213 -148v-39h-43c-8 59 -45 138 -173 138c-114 0 -173 -64 -173 -139 c0 -95 71 -133 167 -158l44 -12c126 -34 199 -90 199 -207c0 -128 -94 -205 -232 -205z" glyph-name="S" horiz-adv-x="588" unicode="S"/>
<glyph d="M302 -10c-148 0 -219 74 -248 153v39h42c30 -90 95 -143 207 -143c99 0 174 54 174 156c0 67 -31 119 -174 157l-35 10c-144 37 -201 105 -201 208s81 190 233 190c128 0 198 -63 213 -148v-39h-43c-8 59 -45 138 -173 138c-114 0 -173 -64 -173 -139 c0 -95 71 -133 167 -158l44 -12c126 -34 199 -90 199 -207c0 -128 -94 -205 -232 -205zM278 805v36l112 104h46v-36l-113 -104h-45z" glyph-name="Sacute" horiz-adv-x="588" unicode="Ś"/>
<glyph d="M302 -10c-148 0 -219 74 -248 153v39h42c30 -90 95 -143 207 -143c99 0 174 54 174 156c0 67 -31 119 -174 157l-35 10c-144 37 -201 105 -201 208s81 190 233 190c128 0 198 -63 213 -148v-39h-43c-8 59 -45 138 -173 138c-114 0 -173 -64 -173 -139 c0 -95 71 -133 167 -158l44 -12c126 -34 199 -90 199 -207c0 -128 -94 -205 -232 -205zM266 805v39l64 107h49v-39l-64 -107h-49z" glyph-name="Sacute.pl" horiz-adv-x="588"/>
<glyph d="M302 -10c-148 0 -219 74 -248 153v39h42c30 -90 95 -143 207 -143c99 0 174 54 174 156c0 67 -31 119 -174 157l-35 10c-144 37 -201 105 -201 208s81 190 233 190c128 0 198 -63 213 -148v-39h-43c-8 59 -45 138 -173 138c-114 0 -173 -64 -173 -139 c0 -95 71 -133 167 -158l44 -12c126 -34 199 -90 199 -207c0 -128 -94 -205 -232 -205zM321 816h-49l-100 90v36h36l88 -80l86 80h36v-36z" glyph-name="Scaron" horiz-adv-x="588" unicode="Š"/>
<glyph d="M384 -112c0 -51 -46 -77 -83 -81h-37v42c42 0 71 11 71 42c0 30 -29 43 -67 43v57c-125 11 -187 79 -214 152v39h42c30 -90 95 -143 207 -143c99 0 174 54 174 156c0 67 -31 119 -174 157l-35 10c-144 37 -201 105 -201 208s81 190 233 190c128 0 198 -63 213 -148v-39 h-43c-8 59 -45 138 -173 138c-114 0 -173 -64 -173 -139c0 -95 71 -133 167 -158l44 -12c126 -34 199 -90 199 -207c0 -125 -89 -201 -221 -205v-30c48 -7 71 -34 71 -72z" glyph-name="Scedilla" horiz-adv-x="588" unicode="Ş"/>
<glyph d="M302 -10c-148 0 -219 74 -248 153v39h42c30 -90 95 -143 207 -143c99 0 174 54 174 156c0 67 -31 119 -174 157l-35 10c-144 37 -201 105 -201 208s81 190 233 190c128 0 198 -63 213 -148v-39h-43c-8 59 -45 138 -173 138c-114 0 -173 -64 -173 -139 c0 -95 71 -133 167 -158l44 -12c126 -34 199 -90 199 -207c0 -128 -94 -205 -232 -205zM388 816l-88 80l-87 -80h-36v36l99 90h49l99 -90v-36h-36z" glyph-name="Scircumflex" horiz-adv-x="588" unicode="Ŝ"/>
<glyph d="M302 -10c-148 0 -219 74 -248 153v39h42c30 -90 95 -143 207 -143c99 0 174 54 174 156c0 67 -31 119 -174 157l-35 10c-144 37 -201 105 -201 208s81 190 233 190c128 0 198 -63 213 -148v-39h-43c-8 59 -45 138 -173 138c-114 0 -173 -64 -173 -139 c0 -95 71 -133 167 -158l44 -12c126 -34 199 -90 199 -207c0 -128 -94 -205 -232 -205zM273 -191v139h60v-58l-25 -81h-35z" glyph-name="Scommaaccent" horiz-adv-x="588" unicode="Ș"/>
<glyph d="M280 0v701h-261v49h582v-49h-262v-701h-59z" glyph-name="T" horiz-adv-x="620" unicode="T"/>
<glyph d="M559 359h-203v-359h-59v359h-201v49h201v293h-261v49h582v-49h-262v-293h203v-49z" glyph-name="Tbar" horiz-adv-x="654" unicode="Ŧ"/>
<glyph d="M280 0v701h-261v49h582v-49h-262v-701h-59zM334 816h-49l-100 90v36h36l88 -80l86 80h36v-36z" glyph-name="Tcaron" horiz-adv-x="620" unicode="Ť"/>
<glyph d="M280 0v701h-261v49h582v-49h-262v-701h-59zM279 -191v139h60v-58l-25 -81h-35z" glyph-name="Tcommaaccent" horiz-adv-x="620" unicode="Ţ"/>
<glyph d="M105 0v750h58v-114c248 -1 394 -91 394 -260c0 -168 -145 -257 -394 -258v-118h-58zM163 167c196 1 336 56 336 209c0 142 -122 210 -336 211v-420z" glyph-name="Thorn" horiz-adv-x="591" unicode="Þ"/>
<glyph d="M366 -10c-170 0 -270 112 -270 280v480h59v-481c0 -138 77 -230 211 -230c139 0 214 92 214 230v481h53v-480c0 -168 -98 -280 -267 -280z" glyph-name="U" horiz-adv-x="729" unicode="U"/>
<glyph d="M366 -10c-170 0 -270 112 -270 280v480h59v-481c0 -138 77 -230 211 -230c139 0 214 92 214 230v481h53v-480c0 -168 -98 -280 -267 -280zM345 805v36l112 104h46v-36l-113 -104h-45z" glyph-name="Uacute" horiz-adv-x="729" unicode="Ú"/>
<glyph d="M366 -10c-170 0 -270 112 -270 280v480h59v-481c0 -138 77 -230 211 -230c139 0 214 92 214 230v481h53v-480c0 -168 -98 -280 -267 -280zM372 823c-110 0 -126 72 -126 72v42h42s5 -68 84 -68c80 0 80 68 80 68h42v-42s-14 -72 -122 -72z" glyph-name="Ubreve" horiz-adv-x="729" unicode="Ŭ"/>
<glyph d="M366 -10c-170 0 -270 112 -270 280v480h59v-481c0 -138 77 -230 211 -230c139 0 214 92 214 230v481h53v-480c0 -168 -98 -280 -267 -280zM455 816l-88 80l-87 -80h-36v36l99 90h49l99 -90v-36h-36z" glyph-name="Ucircumflex" horiz-adv-x="729" unicode="Û"/>
<glyph d="M366 -10c-170 0 -270 112 -270 280v480h59v-481c0 -138 77 -230 211 -230c139 0 214 92 214 230v481h53v-480c0 -168 -98 -280 -267 -280zM228 838v76h76v-76h-76zM428 838v76h75v-76h-75z" glyph-name="Udieresis" horiz-adv-x="729" unicode="Ü"/>
<glyph d="M366 -10c-170 0 -270 112 -270 280v480h59v-481c0 -138 77 -230 211 -230c139 0 214 92 214 230v481h53v-480c0 -168 -98 -280 -267 -280zM352 805l-113 104v36h45l113 -104v-36h-45z" glyph-name="Ugrave" horiz-adv-x="729" unicode="Ù"/>
<glyph d="M366 -10c-170 0 -270 112 -270 280v480h59v-481c0 -138 77 -230 211 -230c139 0 214 92 214 230v481h53v-480c0 -168 -98 -280 -267 -280zM258 805v36l112 104h40v-36l-113 -104h-39zM430 805v36l112 104h40v-36l-113 -104h-39z" glyph-name="Uhungarumlaut" horiz-adv-x="729" unicode="Ű"/>
<glyph d="M366 -10c-170 0 -270 112 -270 280v480h59v-481c0 -138 77 -230 211 -230c139 0 214 92 214 230v481h53v-480c0 -168 -98 -280 -267 -280zM251 847v52h243v-52h-243z" glyph-name="Umacron" horiz-adv-x="729" unicode="Ū"/>
<glyph d="M425 -102v-43h-42s-59 11 -59 75c0 23 12 47 34 60c-165 4 -262 115 -262 280v480h59v-481c0 -138 77 -230 211 -230c139 0 214 92 214 230v481h53v-480c0 -142 -70 -244 -193 -272c-42 -9 -66 -21 -66 -56c0 -32 31 -44 51 -44z" glyph-name="Uogonek" horiz-adv-x="729" unicode="Ų"/>
<glyph d="M372 799c-48 0 -84 33 -84 80c0 46 36 79 84 79c49 0 84 -33 84 -79c0 -47 -35 -80 -84 -80zM372 839c22 0 40 15 40 40c0 24 -18 39 -40 39c-21 0 -40 -15 -40 -39c0 -25 19 -40 40 -40zM366 -10c-170 0 -270 112 -270 280v480h59v-481c0 -138 77 -230 211 -230 c139 0 214 92 214 230v481h53v-480c0 -168 -98 -280 -267 -280z" glyph-name="Uring" horiz-adv-x="729" unicode="Ů"/>
<glyph d="M366 -10c-170 0 -270 112 -270 280v480h59v-481c0 -138 77 -230 211 -230c139 0 214 92 214 230v481h53v-480c0 -168 -98 -280 -267 -280zM436 821c-63 0 -71 53 -115 53c-20 0 -40 -15 -42 -48h-42c0 55 29 95 79 95c63 0 71 -53 112 -53c19 0 34 9 35 48h43 c0 -62 -24 -95 -70 -95z" glyph-name="Utilde" horiz-adv-x="729" unicode="Ũ"/>
<glyph d="M304 0l-287 708v42h43l274 -678l273 678h41v-37l-290 -713h-54z" glyph-name="V" horiz-adv-x="663" unicode="V"/>
<glyph d="M673 0l-190 643l-190 -643h-52l-215 708v42h44l199 -656l196 656h42l193 -655l200 655h42v-37l-217 -713h-52z" glyph-name="W" horiz-adv-x="966" unicode="W"/>
<glyph d="M673 0l-190 643l-190 -643h-52l-215 708v42h44l199 -656l196 656h42l193 -655l200 655h42v-37l-217 -713h-52zM464 805v36l112 104h46v-36l-113 -104h-45z" glyph-name="Wacute" horiz-adv-x="966" unicode="Ẃ"/>
<glyph d="M673 0l-190 643l-190 -643h-52l-215 708v42h44l199 -656l196 656h42l193 -655l200 655h42v-37l-217 -713h-52zM571 816l-88 80l-87 -80h-36v36l99 90h49l99 -90v-36h-36z" glyph-name="Wcircumflex" horiz-adv-x="966" unicode="Ŵ"/>
<glyph d="M673 0l-190 643l-190 -643h-52l-215 708v42h44l199 -656l196 656h42l193 -655l200 655h42v-37l-217 -713h-52zM352 838v76h76v-76h-76zM552 838v76h75v-76h-75z" glyph-name="Wdieresis" horiz-adv-x="966" unicode="Ẅ"/>
<glyph d="M673 0l-190 643l-190 -643h-52l-215 708v42h44l199 -656l196 656h42l193 -655l200 655h42v-37l-217 -713h-52zM460 805l-113 104v36h45l113 -104v-36h-45z" glyph-name="Wgrave" horiz-adv-x="966" unicode="Ẁ"/>
<glyph d="M28 0v36l254 346l-244 329v39h41l237 -324l237 324h37v-36l-242 -331l253 -344v-39h-39l-250 339l-247 -339h-37z" glyph-name="X" horiz-adv-x="629" unicode="X"/>
<glyph d="M278 0v307l-269 404v39h40l262 -393l246 393h37v-36l-258 -409v-305h-58z" glyph-name="Y" horiz-adv-x="611" unicode="Y"/>
<glyph d="M278 0v307l-269 404v39h40l262 -393l246 393h37v-36l-258 -409v-305h-58zM280 805v36l112 104h46v-36l-113 -104h-45z" glyph-name="Yacute" horiz-adv-x="611" unicode="Ý"/>
<glyph d="M278 0v307l-269 404v39h40l262 -393l246 393h37v-36l-258 -409v-305h-58zM393 816l-88 80l-87 -80h-36v36l99 90h49l99 -90v-36h-36z" glyph-name="Ycircumflex" horiz-adv-x="611" unicode="Ŷ"/>
<glyph d="M278 0v307l-269 404v39h40l262 -393l246 393h37v-36l-258 -409v-305h-58zM165 838v76h76v-76h-76zM365 838v76h75v-76h-75z" glyph-name="Ydieresis" horiz-adv-x="611" unicode="Ÿ"/>
<glyph d="M278 0v307l-269 404v39h40l262 -393l246 393h37v-36l-258 -409v-305h-58zM280 805l-113 104v36h45l113 -104v-36h-45z" glyph-name="Ygrave" horiz-adv-x="611" unicode="Ỳ"/>
<glyph d="M545 0h-510v42l437 659h-432v49h500v-42l-437 -659h442v-49z" glyph-name="Z" horiz-adv-x="581" unicode="Z"/>
<glyph d="M545 0h-510v42l437 659h-432v49h500v-42l-437 -659h442v-49zM247 805v36l112 104h46v-36l-113 -104h-45z" glyph-name="Zacute" horiz-adv-x="581" unicode="Ź"/>
<glyph d="M545 0h-510v42l437 659h-432v49h500v-42l-437 -659h442v-49zM270 805v39l64 107h49v-39l-64 -107h-49z" glyph-name="Zacute.pl" horiz-adv-x="581"/>
<glyph d="M545 0h-510v42l437 659h-432v49h500v-42l-437 -659h442v-49zM321 816h-49l-100 90v36h36l88 -80l86 80h36v-36z" glyph-name="Zcaron" horiz-adv-x="581" unicode="Ž"/>
<glyph d="M545 0h-510v42l437 659h-432v49h500v-42l-437 -659h442v-49zM252 838v76h76v-76h-76z" glyph-name="Zdotaccent" horiz-adv-x="581" unicode="Ż"/>
<glyph d="M216 -10c-118 0 -173 65 -173 149c0 83 58 145 204 145c72 0 131 -13 131 -13v40c0 94 -42 145 -133 145c-114 0 -137 -85 -137 -85h-38v37s37 95 177 95c121 0 185 -67 185 -194v-309h-43l-6 104c-27 -67 -83 -114 -167 -114zM221 35c106 0 157 87 157 161v31 s-53 13 -132 13c-117 0 -151 -49 -151 -101c0 -66 44 -104 126 -104z" glyph-name="a" horiz-adv-x="510" unicode="a"/>
<glyph d="M216 -10c-118 0 -173 65 -173 149c0 83 58 145 204 145c72 0 131 -13 131 -13v40c0 94 -42 145 -133 145c-114 0 -137 -85 -137 -85h-38v37s37 95 177 95c121 0 185 -67 185 -194v-309h-43l-6 104c-27 -67 -83 -114 -167 -114zM221 35c106 0 157 87 157 161v31 s-53 13 -132 13c-117 0 -151 -49 -151 -101c0 -66 44 -104 126 -104zM219 610v36l99 104h45v-36l-99 -104h-45z" glyph-name="aacute" horiz-adv-x="510" unicode="á"/>
<glyph d="M216 -10c-118 0 -173 65 -173 149c0 83 58 145 204 145c72 0 131 -13 131 -13v40c0 94 -42 145 -133 145c-114 0 -137 -85 -137 -85h-38v37s37 95 177 95c121 0 185 -67 185 -194v-309h-43l-6 104c-27 -67 -83 -114 -167 -114zM221 35c106 0 157 87 157 161v31 s-53 13 -132 13c-117 0 -151 -49 -151 -101c0 -66 44 -104 126 -104zM248 599c-115 0 -126 78 -126 78v43h43s0 -75 83 -75c85 0 80 75 80 75h42v-43s-10 -78 -122 -78z" glyph-name="abreve" horiz-adv-x="510" unicode="ă"/>
<glyph d="M216 -10c-118 0 -173 65 -173 149c0 83 58 145 204 145c72 0 131 -13 131 -13v40c0 94 -42 145 -133 145c-114 0 -137 -85 -137 -85h-38v37s37 95 177 95c121 0 185 -67 185 -194v-309h-43l-6 104c-27 -67 -83 -114 -167 -114zM221 35c106 0 157 87 157 161v31 s-53 13 -132 13c-117 0 -151 -49 -151 -101c0 -66 44 -104 126 -104zM341 610l-88 92l-87 -92h-36v36l99 104h49l99 -104v-36h-36z" glyph-name="acircumflex" horiz-adv-x="510" unicode="â"/>
<glyph d="M75 610v36l99 104h45v-36l-99 -104h-45z" glyph-name="acute" horiz-adv-x="294" unicode="´"/>
<glyph d="M75 610v36l76 134h45v-36l-76 -134h-45z" glyph-name="acute.pl" horiz-adv-x="271"/>
<glyph d="M169 805v36l112 104h46v-36l-113 -104h-45z" glyph-name="acute.uc" horiz-adv-x="438"/>
<glyph d="M106 805v39l64 107h49v-39l-64 -107h-49z" glyph-name="acute.ucpl" horiz-adv-x="321"/>
<glyph d="M216 -10c-118 0 -173 65 -173 149c0 83 58 145 204 145c72 0 131 -13 131 -13v40c0 94 -42 145 -133 145c-114 0 -137 -85 -137 -85h-38v37s37 95 177 95c121 0 185 -67 185 -194v-309h-43l-6 104c-27 -67 -83 -114 -167 -114zM221 35c106 0 157 87 157 161v31 s-53 13 -132 13c-117 0 -151 -49 -151 -101c0 -66 44 -104 126 -104zM121 646v74h73v-74h-73zM309 646v74h74v-74h-74z" glyph-name="adieresis" horiz-adv-x="510" unicode="ä"/>
<glyph d="M640 -10c-100 0 -174 47 -210 130c-43 -97 -133 -130 -209 -130c-122 0 -178 61 -178 145c0 83 65 143 215 143c21 0 146 -4 146 -4v37c0 94 -53 145 -143 145c-129 0 -153 -85 -153 -85h-38v37s38 95 192 95c90 0 155 -38 181 -110c36 64 101 110 191 110 c137 0 213 -95 213 -216c0 -31 -2 -48 -2 -48h-387c5 -133 78 -201 182 -201c93 0 146 55 158 99h38v-38c-10 -24 -62 -109 -196 -109zM461 284h333c0 108 -62 172 -160 172c-96 0 -161 -65 -173 -172zM220 35c114 0 184 79 184 164v30s-124 5 -147 5 c-122 0 -162 -47 -162 -99c0 -66 47 -100 125 -100z" glyph-name="ae" horiz-adv-x="895" unicode="æ"/>
<glyph d="M640 -10c-100 0 -174 47 -210 130c-43 -97 -133 -130 -209 -130c-122 0 -178 61 -178 145c0 83 65 143 215 143c21 0 146 -4 146 -4v37c0 94 -53 145 -143 145c-129 0 -153 -85 -153 -85h-38v37s38 95 192 95c90 0 155 -38 181 -110c36 64 101 110 191 110 c137 0 213 -95 213 -216c0 -31 -2 -48 -2 -48h-387c5 -133 78 -201 182 -201c93 0 146 55 158 99h38v-38c-10 -24 -62 -109 -196 -109zM461 284h333c0 108 -62 172 -160 172c-96 0 -161 -65 -173 -172zM220 35c114 0 184 79 184 164v30s-124 5 -147 5 c-122 0 -162 -47 -162 -99c0 -66 47 -100 125 -100zM433 609v36l99 104h45v-36l-99 -104h-45z" glyph-name="aeacute" horiz-adv-x="895" unicode="ǽ"/>
<glyph d="M59 0h-40v41l276 709h51l274 -704v-46h-42l-92 236h-336zM467 285l-149 391l-149 -391h298z" glyph-name="afii10017" horiz-adv-x="641" unicode="А"/>
<glyph d="M105 0v750h403v-49h-344v-267h134c161 0 270 -74 270 -209c0 -133 -95 -225 -270 -225h-193zM164 49h133c143 0 212 65 212 174c0 91 -65 163 -212 163h-133v-337z" glyph-name="afii10018" horiz-adv-x="607" unicode="Б"/>
<glyph d="M105 0v750h201c143 0 233 -71 233 -191c0 -76 -33 -139 -122 -169c97 -27 153 -89 153 -181c0 -135 -99 -209 -260 -209h-205zM162 409h136c108 0 183 45 183 149c0 88 -75 144 -176 144h-143v-293zM162 48h149c115 0 200 53 200 160c0 102 -90 154 -199 154h-150v-314z " glyph-name="afii10019" horiz-adv-x="624" unicode="В"/>
<glyph d="M105 0v750h410v-49h-351v-701h-59z" glyph-name="afii10020" horiz-adv-x="537" unicode="Г"/>
<glyph d="M7 -150v199h59c35 57 88 162 97 403l11 298h432v-701h100v-199h-54v150h-591v-150h-54zM128 49h420v652h-324l-8 -252c-8 -219 -54 -341 -88 -400z" glyph-name="afii10021" horiz-adv-x="738" unicode="Д"/>
<glyph d="M64 0v-150h-54v199h69l286 701h51l286 -701h68v-199h-54v150h-652zM642 49c-18 44 -242 597 -254 625c-11 -28 -235 -581 -253 -625h507z" glyph-name="afii10021.bgr" horiz-adv-x="780"/>
<glyph d="M105 0v750h410v-49h-352v-287h315v-49h-315v-316h352v-49h-410z" glyph-name="afii10022" horiz-adv-x="570" unicode="Е"/>
<glyph d="M105 0v750h410v-49h-352v-287h315v-49h-315v-316h352v-49h-410zM177 838v76h76v-76h-76zM377 838v76h75v-76h-75z" glyph-name="afii10023" horiz-adv-x="570" unicode="Ё"/>
<glyph d="M416 359l-359 -359h-38v38l337 339l-326 334v39h39l347 -357v357h58v-357l348 357h36v-36l-326 -334l339 -341v-39h-40l-357 359v-359h-58v359z" glyph-name="afii10024" horiz-adv-x="889" unicode="Ж"/>
<glyph d="M416 359l-359 -359h-38v38l337 339l-326 334v39h39l347 -357v357h58v-357l348 357h36v-36l-326 -334l339 -341v-39h-40l-357 359v-359h-58v359z" glyph-name="afii10024.bgr" horiz-adv-x="889"/>
<glyph d="M282 -10c-160 0 -226 96 -236 147v39h43c9 -67 81 -137 191 -137c103 0 176 55 176 172c0 95 -64 157 -188 157h-82v48h81c95 0 157 64 157 155c0 78 -50 140 -155 140c-98 0 -149 -62 -165 -122h-42v39c17 51 75 132 208 132c136 0 212 -79 212 -190 c0 -74 -43 -140 -114 -171c92 -26 146 -92 146 -187c0 -132 -84 -222 -232 -222z" glyph-name="afii10025" horiz-adv-x="571" unicode="З"/>
<glyph d="M105 0v750h59v-663l421 663h58v-750h-58v655l-421 -655h-59z" glyph-name="afii10026" horiz-adv-x="748" unicode="И"/>
<glyph d="M105 0v750h59v-663l421 663h58v-750h-58v655l-421 -655h-59zM379 814c-125 0 -143 95 -143 95v38h43s1 -90 100 -90c100 0 100 90 100 90h43v-38s-18 -95 -143 -95z" glyph-name="afii10027" horiz-adv-x="748" unicode="Й"/>
<glyph d="M163 359v-359h-58v750h58v-358l385 358h36v-36l-363 -335l376 -340v-39h-39z" glyph-name="afii10028" horiz-adv-x="612" unicode="К"/>
<glyph d="M163 359v-359h-58v750h58v-358l385 358h36v-36l-363 -335l376 -340v-39h-39z" glyph-name="afii10028.bgr" horiz-adv-x="612"/>
<glyph d="M10 0v52h20c90 0 110 120 117 390l9 308h424v-750h-58v701h-315l-7 -260c-7 -286 -22 -441 -166 -441h-24z" glyph-name="afii10029" horiz-adv-x="685" unicode="Л"/>
<glyph d="M17 0v37l290 713h51l288 -708v-42h-42l-274 674l-272 -674h-41z" glyph-name="afii10029.bgr" horiz-adv-x="665"/>
<glyph d="M427 187l-269 474v-661h-53v750h65l281 -491l278 491h65v-750h-59v664l-269 -477h-39z" glyph-name="afii10030" horiz-adv-x="899" unicode="М"/>
<glyph d="M105 0v750h58v-342h429v342h58v-750h-58v359h-429v-359h-58z" glyph-name="afii10031" horiz-adv-x="755" unicode="Н"/>
<glyph d="M415 -10c-223 0 -362 165 -362 388c0 220 139 382 362 382s362 -162 362 -382c0 -223 -139 -388 -362 -388zM415 39c187 0 303 144 303 339c0 191 -116 333 -303 333s-303 -142 -303 -333c0 -195 116 -339 303 -339z" glyph-name="afii10032" horiz-adv-x="830" unicode="О"/>
<glyph d="M105 0v750h522v-750h-59v701h-404v-701h-59z" glyph-name="afii10033" horiz-adv-x="732" unicode="П"/>
<glyph d="M105 0v750h187c161 0 263 -83 263 -221c0 -128 -88 -237 -263 -237h-129v-292h-58zM163 341h128c136 0 205 82 205 187c0 88 -65 173 -205 173h-128v-360z" glyph-name="afii10034" horiz-adv-x="593" unicode="Р"/>
<glyph d="M415 -10c-233 0 -361 170 -361 388c0 221 135 382 360 382c216 0 277 -138 277 -138v-39h-42s-46 128 -234 128c-196 0 -302 -149 -302 -333c0 -194 120 -339 303 -339c186 0 238 133 238 133h42v-39s-68 -143 -281 -143z" glyph-name="afii10035" horiz-adv-x="736" unicode="С"/>
<glyph d="M280 0v701h-261v49h582v-49h-262v-701h-59z" glyph-name="afii10036" horiz-adv-x="620" unicode="Т"/>
<glyph d="M214 0h-37v37l98 185l-264 487v41h41l254 -470l243 470h37v-37z" glyph-name="afii10037" horiz-adv-x="593" unicode="У"/>
<glyph d="M386 -10v84c-199 4 -344 117 -344 304c0 177 145 298 344 302v80h59v-80c199 -4 343 -126 343 -304c0 -177 -144 -298 -343 -302v-84h-59zM386 122v510c-178 -5 -285 -103 -285 -254c0 -160 114 -249 285 -256zM445 122c157 5 285 90 285 254c0 151 -110 251 -285 256 v-510z" glyph-name="afii10038" horiz-adv-x="829" unicode="Ф"/>
<glyph d="M386 -10v84c-199 4 -344 117 -344 304c0 177 145 298 344 302v80h59v-80c199 -4 343 -126 343 -304c0 -177 -144 -298 -343 -302v-84h-59zM386 122v510c-178 -5 -285 -103 -285 -254c0 -160 114 -249 285 -256zM445 122c157 5 285 90 285 254c0 151 -110 251 -285 256 v-510z" glyph-name="afii10038.bgr" horiz-adv-x="829"/>
<glyph d="M28 0v36l254 346l-244 329v39h41l237 -324l237 324h37v-36l-242 -331l253 -344v-39h-39l-250 339l-247 -339h-37z" glyph-name="afii10039" horiz-adv-x="629" unicode="Х"/>
<glyph d="M673 -150v150h-568v750h59v-701h404v701h59v-701h100v-199h-54z" glyph-name="afii10040" horiz-adv-x="759" unicode="Ц"/>
<glyph d="M484 0v319h-144c-181 0 -290 51 -290 246v185h58v-184c0 -158 87 -198 234 -198h142v382h58v-750h-58z" glyph-name="afii10041" horiz-adv-x="647" unicode="Ч"/>
<glyph d="M105 0v750h59v-701h301v701h59v-701h301v701h59v-750h-779z" glyph-name="afii10042" horiz-adv-x="989" unicode="Ш"/>
<glyph d="M929 -150v150h-824v750h59v-701h301v701h59v-701h301v701h59v-701h100v-199h-55z" glyph-name="afii10043" horiz-adv-x="1016" unicode="Щ"/>
<glyph d="M354 0h-187v701h-160v49h219v-296h128c161 0 270 -79 270 -219c0 -137 -95 -235 -270 -235zM226 49h127c143 0 212 71 212 184c0 95 -65 173 -212 173h-127v-357z" glyph-name="afii10044" horiz-adv-x="658" unicode="Ъ"/>
<glyph d="M105 0v750h59v-296h128c161 0 270 -79 270 -219c0 -137 -95 -235 -270 -235h-187zM675 0v750h58v-750h-58zM164 49h127c143 0 212 71 212 184c0 95 -65 173 -212 173h-127v-357z" glyph-name="afii10045" horiz-adv-x="838" unicode="Ы"/>
<glyph d="M105 0v750h59v-296h128c161 0 270 -79 270 -219c0 -137 -95 -235 -270 -235h-187zM164 49h127c143 0 212 71 212 184c0 95 -65 173 -212 173h-127v-357z" glyph-name="afii10046" horiz-adv-x="595" unicode="Ь"/>
<glyph d="M341 -10c-221 0 -292 143 -292 143v39h42s59 -133 250 -133c177 0 284 130 291 320h-400v49h399c-9 176 -106 303 -289 303c-188 0 -244 -128 -244 -128h-43v39s75 138 287 138c229 0 349 -161 349 -382c0 -218 -122 -388 -350 -388z" glyph-name="afii10047" horiz-adv-x="746" unicode="Э"/>
<glyph d="M636 -10c-218 0 -335 173 -344 369h-128v-359h-59v750h59v-342h130c13 186 129 352 342 352c218 0 345 -172 345 -382c0 -213 -141 -388 -345 -388zM636 39c155 0 286 134 286 339c0 201 -118 333 -287 333c-166 0 -286 -132 -286 -333c0 -205 119 -339 287 -339z" glyph-name="afii10048" horiz-adv-x="1034" unicode="Ю"/>
<glyph d="M455 318h-138l-243 -318h-40v39l222 288c-119 27 -176 108 -176 205c0 133 102 218 253 218h180v-750h-58v318zM333 367h122v334h-123c-118 0 -193 -67 -193 -170c0 -106 76 -164 194 -164z" glyph-name="afii10049" horiz-adv-x="618" unicode="Я"/>
<glyph d="M462 900h53v-199h-351v-701h-59v750h357v150z" glyph-name="afii10050" horiz-adv-x="537" unicode="Ґ"/>
<glyph d="M548 -10c-47 0 -76 8 -85 10v49c9 -2 40 -10 78 -10c103 0 170 74 170 200c0 123 -69 201 -197 201c-110 0 -198 -68 -198 -182v-258h-58v701h-240v49h538v-49h-240v-316c33 63 108 105 206 105c152 0 248 -98 248 -251c0 -145 -90 -249 -222 -249z" glyph-name="afii10051" horiz-adv-x="807" unicode="Ђ"/>
<glyph d="M282 805v36l112 104h46v-36l-113 -104h-45zM105 0v750h410v-49h-351v-701h-59z" glyph-name="afii10052" horiz-adv-x="537" unicode="Ѓ"/>
<glyph d="M696 133c0 0 -62 -143 -282 -143c-232 0 -360 170 -360 388c0 221 135 382 360 382c216 0 277 -138 277 -138v-39h-43s-46 128 -233 128c-185 0 -290 -127 -302 -303h430v-49h-430c8 -190 126 -320 302 -320c186 0 238 133 238 133h43v-39z" glyph-name="afii10053" horiz-adv-x="746" unicode="Є"/>
<glyph d="M302 -10c-148 0 -219 74 -248 153v39h42c30 -90 95 -143 207 -143c99 0 174 54 174 156c0 67 -31 119 -174 157l-35 10c-144 37 -201 105 -201 208s81 190 233 190c128 0 198 -63 213 -148v-39h-43c-8 59 -45 138 -173 138c-114 0 -173 -64 -173 -139 c0 -95 71 -133 167 -158l44 -12c126 -34 199 -90 199 -207c0 -128 -94 -205 -232 -205z" glyph-name="afii10054" horiz-adv-x="588" unicode="Ѕ"/>
<glyph d="M105 0v750h58v-750h-58z" glyph-name="afii10055" horiz-adv-x="268" unicode="І"/>
<glyph d="M-4 838v76h76v-76h-76zM196 838v76h75v-76h-75zM105 0v750h58v-750h-58z" glyph-name="afii10056" horiz-adv-x="268" unicode="Ї"/>
<glyph d="M170 -10c-90 0 -142 58 -144 104v39h42c-2 -43 38 -94 100 -94c69 0 101 38 101 131v580h59v-579c0 -117 -48 -181 -158 -181z" glyph-name="afii10057" horiz-adv-x="426" unicode="Ј"/>
<glyph d="M9 0v52h19c77 0 109 60 118 390l9 308h417v-296h125c161 0 270 -79 270 -219c0 -137 -95 -235 -270 -235h-183v701h-308l-6 -239c-8 -325 -26 -462 -164 -462h-27zM572 49h124c143 0 212 71 212 184c0 95 -65 173 -212 173h-124v-357z" glyph-name="afii10058" horiz-adv-x="1000" unicode="Љ"/>
<glyph d="M164 372v-372h-59v750h59v-329h374v329h59v-329h125c170 0 270 -65 270 -205c0 -137 -95 -216 -270 -216h-184v372h-374zM597 49h124c143 0 212 53 212 165c0 103 -67 158 -212 158h-124v-323z" glyph-name="afii10059" horiz-adv-x="1025" unicode="Њ"/>
<glyph d="M258 0v701h-240v49h542v-49h-244v-316c31 64 105 105 201 105c147 0 224 -86 224 -227v-263h-59v264c0 132 -82 176 -172 176c-112 0 -194 -68 -194 -183v-257h-58z" glyph-name="afii10060" horiz-adv-x="793" unicode="Ћ"/>
<glyph d="M307 805v36l112 104h46v-36l-113 -104h-45zM163 359v-359h-58v750h58v-358l385 358h36v-36l-363 -335l376 -340v-39h-39z" glyph-name="afii10061" horiz-adv-x="612" unicode="Ќ"/>
<glyph d="M214 0h-37v37l98 185l-264 487v41h41l254 -470l243 470h37v-37zM303 814c-125 0 -143 95 -143 95v38h43s1 -90 100 -90c100 0 100 90 100 90h43v-38s-18 -95 -143 -95z" glyph-name="afii10062" horiz-adv-x="593" unicode="Ў"/>
<glyph d="M216 -10c-118 0 -173 65 -173 149c0 83 58 145 204 145c72 0 131 -13 131 -13v40c0 94 -42 145 -133 145c-114 0 -137 -85 -137 -85h-38v37s37 95 177 95c121 0 185 -67 185 -194v-309h-43l-6 104c-27 -67 -83 -114 -167 -114zM221 35c106 0 157 87 157 161v31 s-53 13 -132 13c-117 0 -151 -49 -151 -101c0 -66 44 -104 126 -104z" glyph-name="afii10065" horiz-adv-x="510" unicode="а"/>
<glyph d="M308 -10c-147 0 -240 101 -240 300v83c0 203 69 310 241 332l71 9c64 8 87 26 101 53h36v-37c-19 -35 -49 -52 -128 -62l-76 -11c-158 -20 -199 -117 -201 -299c36 104 122 145 205 145c150 0 232 -122 232 -255c0 -143 -94 -258 -241 -258zM308 37c108 0 187 80 187 211 c0 121 -72 208 -188 208c-109 0 -185 -89 -185 -208c0 -134 82 -211 186 -211z" glyph-name="afii10066" horiz-adv-x="598" unicode="б"/>
<glyph d="M289 -10c-154 0 -240 123 -240 258c0 107 56 222 200 246c-92 26 -168 63 -168 143c0 78 62 113 183 113h82c102 0 162 12 162 12v-48s-39 -14 -161 -14h-86c-95 0 -128 -22 -128 -67c0 -68 107 -91 200 -124c116 -38 196 -121 196 -261c0 -136 -88 -258 -240 -258z M289 37c117 0 186 96 186 211c0 109 -66 208 -186 208c-126 0 -186 -106 -186 -208c0 -115 69 -211 186 -211z" glyph-name="afii10066.locl" horiz-adv-x="578"/>
<glyph d="M84 0v493h180c102 0 172 -46 172 -132c0 -56 -33 -90 -82 -105c58 -9 109 -48 109 -117c0 -94 -60 -139 -186 -139h-193zM138 275h131c72 0 111 26 111 86c0 58 -43 86 -111 86h-131v-172zM138 46h142c88 0 127 28 127 94c0 63 -54 90 -127 90h-142v-184z" glyph-name="afii10067" horiz-adv-x="511" unicode="в"/>
<glyph d="M281 -10c-142 0 -205 99 -205 221v333c0 136 73 216 199 216c115 0 187 -68 187 -183c0 -93 -47 -156 -126 -185c100 -24 156 -86 156 -188c0 -125 -74 -214 -211 -214zM130 545v-135h104c111 0 174 67 174 162c0 90 -51 141 -133 141c-98 0 -145 -65 -145 -168zM281 37 c101 0 157 67 157 169s-70 159 -204 159h-104v-155c0 -103 50 -173 151 -173z" glyph-name="afii10067.bgr" horiz-adv-x="540"/>
<glyph d="M84 0v493h315v-47h-261v-446h-54z" glyph-name="afii10068" horiz-adv-x="418" unicode="г"/>
<glyph d="M232 -10c-119 0 -184 57 -184 136c0 88 70 120 145 135l68 13c63 12 93 39 93 92c0 57 -39 90 -115 90c-85 0 -128 -48 -143 -98h-37v38c20 61 79 107 180 107c111 0 171 -57 171 -133c0 -85 -54 -122 -122 -135l-74 -15c-67 -13 -110 -36 -110 -95c0 -52 43 -88 128 -88 c90 0 143 49 157 106h38v-38c-17 -56 -80 -115 -195 -115z" glyph-name="afii10068.bgr" horiz-adv-x="472"/>
<glyph d="M84 0v493h315v-47h-261v-446h-54z" glyph-name="afii10068.locl" horiz-adv-x="418"/>
<glyph d="M10 -140v186h54c34 40 44 114 50 214l15 233h335v-447h85v-186h-49v140h-441v-140h-49zM121 46h289v401h-235l-13 -204c-4 -70 -13 -146 -41 -197z" glyph-name="afii10069" horiz-adv-x="572" unicode="д"/>
<glyph d="M286 -260c-158 0 -208 104 -217 136v38h37c16 -57 66 -125 179 -125c120 0 187 72 187 241v77c-40 -83 -113 -117 -188 -117c-136 0 -234 110 -234 258c0 149 102 255 234 255c77 0 152 -36 188 -112l8 102h46v-463c0 -193 -86 -290 -240 -290zM291 37 c87 0 181 64 181 211c0 117 -66 208 -181 208c-113 0 -187 -92 -187 -208c0 -139 94 -211 187 -211z" glyph-name="afii10069.bgr" horiz-adv-x="609"/>
<glyph d="M10 -140v186h54c34 40 44 114 50 214l15 233h335v-447h85v-186h-49v140h-441v-140h-49zM121 46h289v401h-235l-13 -204c-4 -70 -13 -146 -41 -197z" glyph-name="afii10069.locl" horiz-adv-x="572"/>
<glyph d="M292 -10c-154 0 -243 99 -243 258c0 133 80 255 237 255c144 0 220 -95 220 -216c0 -31 -3 -48 -3 -48h-400c5 -133 78 -201 189 -201c99 0 153 55 165 99h38v-38c-11 -24 -63 -109 -203 -109zM105 284h347c0 108 -61 172 -166 172c-104 0 -169 -65 -181 -172z" glyph-name="afii10070" horiz-adv-x="554" unicode="е"/>
<glyph d="M292 -10c-154 0 -243 99 -243 258c0 133 80 255 237 255c144 0 220 -95 220 -216c0 -31 -3 -48 -3 -48h-400c5 -133 78 -201 189 -201c99 0 153 55 165 99h38v-38c-11 -24 -63 -109 -203 -109zM105 284h347c0 108 -61 172 -166 172c-104 0 -169 -65 -181 -172zM148 646 v74h73v-74h-73zM336 646v74h74v-74h-74z" glyph-name="afii10071" horiz-adv-x="554" unicode="ё"/>
<glyph d="M31 0v37l226 215l-220 206v35h37l248 -236v236h54v-236l245 236h36v-35l-214 -205l227 -214v-39h-39l-255 243v-243h-54v243l-254 -243h-37z" glyph-name="afii10072" horiz-adv-x="699" unicode="ж"/>
<glyph d="M31 0v37l226 215l-220 206v35h37l248 -236v493h54v-493l245 236h36v-35l-214 -205l227 -214v-39h-39l-255 243v-243h-54v243l-254 -243h-37z" glyph-name="afii10072.bgr" horiz-adv-x="699"/>
<glyph d="M233 -10c-117 0 -165 60 -186 109v38h38c21 -64 64 -100 148 -100c87 0 133 38 133 99c0 57 -42 94 -129 94h-80v46h86c72 0 102 38 102 83c0 64 -47 97 -117 97c-66 0 -119 -29 -138 -99h-38v38c25 65 85 108 182 108c99 0 166 -49 166 -131c0 -53 -25 -90 -81 -114 c54 -18 101 -52 101 -124c0 -87 -68 -144 -187 -144z" glyph-name="afii10073" horiz-adv-x="470" unicode="з"/>
<glyph d="M225 -260c-139 0 -186 97 -195 137v38h38c14 -57 58 -126 156 -126c90 0 160 58 160 173c0 106 -63 169 -185 169h-50v46h51c99 0 155 64 155 148c0 77 -45 131 -129 131c-69 0 -120 -29 -139 -99h-38v38c25 65 83 108 179 108c115 0 181 -73 181 -177 c0 -91 -54 -149 -118 -170c95 -22 147 -96 147 -194c0 -138 -88 -222 -213 -222z" glyph-name="afii10073.bgr" horiz-adv-x="481"/>
<glyph d="M84 0v493h54v-413l290 413h51v-493h-54v415l-290 -415h-51z" glyph-name="afii10074" horiz-adv-x="563" unicode="и"/>
<glyph d="M267 -10c-123 0 -190 73 -190 208v295h54v-283c0 -119 52 -173 143 -173c83 0 151 56 151 172v284h55v-493h-47l-4 95c-26 -63 -81 -105 -162 -105z" glyph-name="afii10074.bgr" horiz-adv-x="564"/>
<glyph d="M84 0v493h54v-413l290 413h51v-493h-54v415l-290 -415h-51zM285 584c-125 0 -136 99 -136 99v35h44s-3 -87 92 -87s91 87 91 87h45v-35s-11 -99 -136 -99z" glyph-name="afii10075" horiz-adv-x="563" unicode="й"/>
<glyph d="M267 -10c-123 0 -190 73 -190 208v295h54v-283c0 -119 52 -173 143 -173c83 0 151 56 151 172v284h55v-493h-47l-4 95c-26 -63 -81 -105 -162 -105zM280 584c-125 0 -136 99 -136 99v35h44s-3 -87 92 -87s91 87 91 87h45v-35s-11 -99 -136 -99z" glyph-name="afii10075.bgr" horiz-adv-x="564"/>
<glyph d="M84 0v493h54v-235l267 235h35v-35l-236 -206l251 -213v-39h-39l-278 242v-242h-54z" glyph-name="afii10076" horiz-adv-x="481" unicode="к"/>
<glyph d="M84 0v750h54v-485l265 228h36v-35l-235 -199l251 -220v-39h-39l-278 249v-249h-54z" glyph-name="afii10076.bgr" horiz-adv-x="481"/>
<glyph d="M13 0v48h8c65 3 89 46 93 181l7 264h324v-493h-54v447h-222l-7 -229c-3 -106 -20 -218 -128 -218h-21z" glyph-name="afii10077" horiz-adv-x="529" unicode="л"/>
<glyph d="M424 0l-181 424l-182 -424h-36v36l198 457h41l198 -455v-38h-38z" glyph-name="afii10077.bgr" horiz-adv-x="487"/>
<glyph d="M320 120l-185 283v-403h-51v493h55l203 -311l198 311h57v-493h-54v406l-186 -286h-37z" glyph-name="afii10078" horiz-adv-x="681" unicode="м"/>
<glyph d="M84 0v493h54v-217h284v217h54v-493h-54v229h-284v-229h-54z" glyph-name="afii10079" horiz-adv-x="560" unicode="н"/>
<glyph d="M84 0v493h54v-217h284v217h54v-493h-54v229h-284v-229h-54z" glyph-name="afii10079.bgr" horiz-adv-x="560"/>
<glyph d="M288 -10c-146 0 -240 113 -240 256s94 257 240 257c145 0 240 -112 240 -255s-95 -258 -240 -258zM288 37c123 0 186 103 186 211c0 106 -63 208 -187 208c-122 0 -185 -102 -185 -210c0 -107 63 -209 186 -209z" glyph-name="afii10080" horiz-adv-x="577" unicode="о"/>
<glyph d="M84 0v493h384v-493h-54v446h-276v-446h-54z" glyph-name="afii10081" horiz-adv-x="552" unicode="п"/>
<glyph d="M84 0v493h46l4 -105c21 63 78 115 169 115c133 0 184 -87 184 -215v-288h-54v276c0 112 -35 180 -140 180c-96 0 -155 -70 -155 -179v-277h-54z" glyph-name="afii10081.bgr" horiz-adv-x="564"/>
<glyph d="M84 0v493h384v-493h-54v446h-276v-446h-54z" glyph-name="afii10081.locl" horiz-adv-x="552"/>
<glyph d="M84 -250v743h46l8 -103c31 61 97 113 188 113c137 0 234 -113 234 -252c0 -146 -94 -261 -234 -261c-73 0 -147 33 -188 111v-351h-54zM320 37c103 0 186 82 186 214c0 111 -73 205 -186 205c-117 0 -182 -93 -182 -205c0 -166 109 -214 182 -214z" glyph-name="afii10082" horiz-adv-x="608" unicode="р"/>
<glyph d="M288 -10c-148 0 -239 113 -239 256s94 257 240 257c156 0 191 -111 191 -111v-38h-37s-24 101 -155 101c-122 0 -185 -101 -185 -209c0 -107 63 -209 186 -209c134 0 155 103 155 103h37v-37s-37 -113 -193 -113z" glyph-name="afii10083" horiz-adv-x="530" unicode="с"/>
<glyph d="M193 0v446h-175v47h405v-47h-176v-446h-54z" glyph-name="afii10084" horiz-adv-x="441" unicode="т"/>
<glyph d="M84 0v493h46l5 -82c25 55 73 92 141 92c81 0 119 -38 140 -98c28 58 74 98 154 98c110 0 159 -78 159 -189v-314h-54v313c0 86 -33 143 -118 143c-72 0 -124 -51 -124 -147v-309h-54v308c0 92 -35 148 -113 148c-76 0 -128 -61 -128 -152v-304h-54z" glyph-name="afii10084.bgr" horiz-adv-x="807"/>
<glyph d="M193 0v446h-175v47h405v-47h-176v-446h-54z" glyph-name="afii10084.locl" horiz-adv-x="441"/>
<glyph d="M127 -250h-37v37l138 270l-203 398v38h38l194 -381l187 381h36v-35z" glyph-name="afii10085" horiz-adv-x="498" unicode="у"/>
<glyph d="M318 -250v244c-169 6 -271 119 -271 254c0 134 102 248 271 254v188h54v-188c177 -6 271 -121 271 -255c0 -135 -94 -247 -271 -253v-244h-54zM318 43v410c-121 0 -216 -87 -216 -205c0 -120 95 -205 216 -205zM372 43c129 0 217 85 217 204s-88 206 -217 206v-410z" glyph-name="afii10086" horiz-adv-x="690" unicode="ф"/>
<glyph d="M37 0v35l176 214l-173 206v38h38l169 -208l169 208h35v-35l-174 -209l177 -211v-38h-38l-173 212l-171 -212h-35z" glyph-name="afii10087" horiz-adv-x="491" unicode="х"/>
<glyph d="M511 -140v140h-427v493h54v-447h276v447h54v-447h92v-186h-49z" glyph-name="afii10088" horiz-adv-x="581" unicode="ц"/>
<glyph d="M564 -140h-49v140h-82l-4 95c-26 -63 -81 -105 -162 -105c-123 0 -190 73 -190 208v295h54v-283c0 -119 52 -173 143 -173c83 0 151 56 151 172v284h55v-447h84v-186z" glyph-name="afii10088.bgr" horiz-adv-x="588"/>
<glyph d="M353 0v192h-112c-124 0 -196 39 -196 167v134h54v-134c0 -89 43 -121 144 -121h110v255h54v-493h-54z" glyph-name="afii10089" horiz-adv-x="491" unicode="ч"/>
<glyph d="M353 0v192h-112c-124 0 -196 39 -196 167v134h54v-134c0 -89 43 -121 144 -121h110v255h54v-493h-54z" glyph-name="afii10089.bgr" horiz-adv-x="491"/>
<glyph d="M84 0v493h54v-447h213v447h54v-447h213v447h54v-493h-588z" glyph-name="afii10090" horiz-adv-x="756" unicode="ш"/>
<glyph d="M237 -10c-111 0 -159 78 -159 189v314h54v-312c0 -87 32 -144 117 -144c72 0 124 51 124 147v309h54v-308c0 -91 35 -148 113 -148c76 0 128 61 128 153v303h54v-493h-46l-5 83c-25 -56 -73 -93 -141 -93c-80 0 -119 38 -140 98c-28 -58 -74 -98 -153 -98z" glyph-name="afii10090.bgr" horiz-adv-x="806"/>
<glyph d="M84 0v493h54v-447h213v447h54v-447h213v447h54v-493h-588z" glyph-name="afii10090.locl" horiz-adv-x="756"/>
<glyph d="M708 -140v140h-624v493h54v-447h213v447h54v-447h213v447h54v-447h85v-186h-49z" glyph-name="afii10091" horiz-adv-x="780" unicode="щ"/>
<glyph d="M807 -140h-49v140h-82l-5 83c-25 -56 -73 -93 -141 -93c-80 0 -119 38 -140 98c-28 -58 -74 -98 -153 -98c-111 0 -159 78 -159 189v314h54v-312c0 -87 32 -144 117 -144c72 0 124 51 124 147v309h54v-308c0 -91 35 -148 113 -148c76 0 128 61 128 153v303h54v-447h85 v-186z" glyph-name="afii10091.bgr" horiz-adv-x="830"/>
<glyph d="M345 0h-174v447h-153v46h207v-184h121c119 0 191 -58 191 -150c0 -95 -62 -159 -192 -159zM225 46h127c80 0 130 37 130 112c0 69 -55 106 -137 106h-120v-218z" glyph-name="afii10092" horiz-adv-x="571" unicode="ъ"/>
<glyph d="M346 -10c-108 0 -181 63 -181 204v252h-147v47h201v-167h114c128 0 198 -65 198 -163c0 -108 -74 -173 -185 -173zM346 36c73 0 130 43 130 126c0 75 -52 119 -144 119h-113v-87c0 -119 55 -158 127 -158z" glyph-name="afii10092.bgr" horiz-adv-x="566"/>
<glyph d="M84 0v493h54v-184h121c118 0 191 -58 191 -150c0 -95 -62 -159 -192 -159h-174zM544 0v493h54v-493h-54zM138 46h126c81 0 130 37 130 112c0 69 -54 106 -136 106h-120v-218z" glyph-name="afii10093" horiz-adv-x="682" unicode="ы"/>
<glyph d="M84 0v493h54v-184h121c118 0 191 -58 191 -150c0 -95 -62 -159 -192 -159h-174zM138 46h126c81 0 130 37 130 112c0 69 -54 106 -136 106h-120v-218z" glyph-name="afii10094" horiz-adv-x="484" unicode="ь"/>
<glyph d="M258 -10c-108 0 -181 63 -181 204v299h54v-167h113c129 0 198 -65 198 -163c0 -108 -74 -173 -184 -173zM257 36c74 0 130 43 130 126c0 75 -52 119 -144 119h-112v-87c0 -119 54 -158 126 -158z" glyph-name="afii10094.bgr" horiz-adv-x="477"/>
<glyph d="M251 -10c-152 0 -203 113 -203 113v37h38s37 -103 165 -103c118 0 170 92 175 191h-235v46h234c-8 96 -59 181 -174 181c-127 0 -164 -101 -164 -101h-38v38s52 111 202 111c148 0 230 -114 230 -257s-82 -256 -230 -256z" glyph-name="afii10095" horiz-adv-x="530" unicode="э"/>
<glyph d="M467 -10c-145 0 -224 104 -230 240h-99v-230h-54v500h54v-224h101c10 129 88 227 228 227c150 0 230 -112 230 -255s-80 -258 -230 -258zM467 39c128 0 176 102 176 209c0 106 -48 206 -177 206c-127 0 -175 -101 -175 -208c0 -106 48 -207 176 -207z" glyph-name="afii10096" horiz-adv-x="746" unicode="ю"/>
<glyph d="M467 -10c-145 0 -224 104 -230 240h-99v-230h-54v750h54v-474h101c10 129 88 227 228 227c150 0 230 -112 230 -255s-80 -258 -230 -258zM467 39c128 0 176 102 176 209c0 106 -48 206 -177 206c-127 0 -175 -101 -175 -208c0 -106 48 -207 176 -207z" glyph-name="afii10096.bgr" horiz-adv-x="746"/>
<glyph d="M362 205h-88l-198 -205h-37v36l170 173c-99 10 -149 62 -149 137c0 79 62 147 179 147h177v-493h-54v205zM235 248h127v199h-126c-72 0 -121 -41 -121 -101c0 -64 48 -98 120 -98z" glyph-name="afii10097" horiz-adv-x="500" unicode="я"/>
<glyph d="M350 633h49v-187h-261v-446h-54v493h266v140z" glyph-name="afii10098" horiz-adv-x="418" unicode="ґ"/>
<glyph d="M302 503c133 0 184 -87 184 -215v-363c0 -123 -56 -185 -161 -185v49c74 0 107 47 107 138v349c0 112 -35 180 -140 180c-96 0 -155 -70 -155 -179v-277h-54v625h-85v47h85v78h54v-78h134v-47h-134v-226c23 58 79 104 165 104z" glyph-name="afii10099" horiz-adv-x="563" unicode="ђ"/>
<glyph d="M84 0v493h315v-47h-261v-446h-54zM211 603v36l99 104h45v-36l-99 -104h-45z" glyph-name="afii10100" horiz-adv-x="418" unicode="ѓ"/>
<glyph d="M481 103c0 0 -37 -113 -193 -113c-148 0 -239 113 -239 256s94 257 240 257c156 0 191 -111 191 -111v-38h-37s-24 101 -155 101c-111 0 -174 -85 -183 -181h240v-46h-241c6 -99 69 -191 185 -191c134 0 155 103 155 103h37v-37z" glyph-name="afii10101" horiz-adv-x="529" unicode="є"/>
<glyph d="M241 -10c-117 0 -174 58 -194 109v37h37c17 -51 64 -99 157 -99c81 0 122 38 122 87c0 58 -47 77 -116 94l-61 14c-67 15 -128 48 -128 132c0 78 69 139 172 139c97 0 157 -42 172 -100v-37h-37c-11 50 -53 90 -135 90c-75 0 -120 -38 -120 -90c0 -54 40 -75 103 -90 l55 -13c75 -17 148 -48 148 -136c0 -77 -56 -137 -175 -137z" glyph-name="afii10102" horiz-adv-x="463" unicode="ѕ"/>
<glyph d="M84 0v493h54v-493h-54zM75 646v74h73v-74h-73z" glyph-name="afii10103" horiz-adv-x="222" unicode="і"/>
<glyph d="M10 646v74h74v-74h-74zM137 646v74h73v-74h-73zM83 0v493h54v-493h-54z" glyph-name="afii10104" horiz-adv-x="220" unicode="ї"/>
<glyph d="M19 -260c-70 0 -102 36 -111 65v37h38c2 -26 27 -53 71 -53c46 0 67 32 67 94v610h54v-612c0 -93 -40 -141 -119 -141zM75 646v74h73v-74h-73z" glyph-name="afii10105" horiz-adv-x="222" unicode="ј"/>
<glyph d="M162 218c-3 -106 -20 -218 -128 -218h-21v48h11c63 5 86 48 90 181l7 264h310v-184h121c118 0 191 -58 191 -150c0 -95 -62 -159 -192 -159h-174v447h-208zM431 46h126c81 0 130 37 130 112c0 69 -54 106 -137 106h-119v-218z" glyph-name="afii10106" horiz-adv-x="777" unicode="љ"/>
<glyph d="M138 239v-239h-54v493h54v-207h257v207h54v-207h121c119 0 191 -47 191 -137c0 -93 -62 -149 -192 -149h-174v239h-257zM449 46h127c80 0 129 29 129 102c0 67 -54 92 -136 92h-120v-194z" glyph-name="afii10107" horiz-adv-x="794" unicode="њ"/>
<glyph d="M137 277v-277h-54v625h-85v47h85v78h54v-78h134v-47h-134v-226c23 58 79 104 165 104c133 0 184 -87 184 -215v-288h-54v276c0 112 -35 180 -140 180c-96 0 -155 -70 -155 -179z" glyph-name="afii10108" horiz-adv-x="563" unicode="ћ"/>
<glyph d="M84 0v493h54v-235l267 235h35v-35l-236 -206l251 -213v-39h-39l-278 242v-242h-54zM238 608v36l99 104h45v-36l-99 -104h-45z" glyph-name="afii10109" horiz-adv-x="481" unicode="ќ"/>
<glyph d="M127 -250h-37v37l138 270l-203 398v38h38l194 -381l187 381h36v-35zM254 584c-125 0 -136 99 -136 99v35h44s-3 -87 92 -87s91 87 91 87h45v-35s-11 -99 -136 -99z" glyph-name="afii10110" horiz-adv-x="498" unicode="ў"/>
<glyph d="M339 -150v150h-234v750h59v-701h404v701h59v-750h-234v-150h-54z" glyph-name="afii10145" horiz-adv-x="732" unicode="Џ"/>
<glyph d="M252 -140v140h-168v493h54v-447h276v447h54v-493h-168v-140h-48z" glyph-name="afii10193" horiz-adv-x="552" unicode="џ"/>
<glyph d="M110 0v750h53l435 -654v654h53v-750h-53l-435 651v-651h-53zM937 334c-116 0 -183 86 -183 189c0 105 70 189 183 189c112 0 185 -85 185 -189c0 -105 -71 -189 -185 -189zM937 382c81 0 128 58 128 141c0 85 -49 141 -128 141s-127 -58 -127 -141s47 -141 127 -141z M784 226v49h309v-49h-309z" glyph-name="afii61352" horiz-adv-x="1170" unicode="№"/>
<glyph d="M216 -10c-118 0 -173 65 -173 149c0 83 58 145 204 145c72 0 131 -13 131 -13v40c0 94 -42 145 -133 145c-114 0 -137 -85 -137 -85h-38v37s37 95 177 95c121 0 185 -67 185 -194v-309h-43l-6 104c-27 -67 -83 -114 -167 -114zM221 35c106 0 157 87 157 161v31 s-53 13 -132 13c-117 0 -151 -49 -151 -101c0 -66 44 -104 126 -104zM231 610l-99 104v36h45l99 -104v-36h-45z" glyph-name="agrave" horiz-adv-x="510" unicode="à"/>
<glyph d="M216 -10c-118 0 -173 65 -173 149c0 83 58 145 204 145c72 0 131 -13 131 -13v40c0 94 -42 145 -133 145c-114 0 -137 -85 -137 -85h-38v37s37 95 177 95c121 0 185 -67 185 -194v-309h-43l-6 104c-27 -67 -83 -114 -167 -114zM221 35c106 0 157 87 157 161v31 s-53 13 -132 13c-117 0 -151 -49 -151 -101c0 -66 44 -104 126 -104zM144 654v49h223v-49h-223z" glyph-name="amacron" horiz-adv-x="510" unicode="ā"/>
<glyph d="M619 0l-101 96c-54 -65 -133 -107 -234 -107c-148 0 -234 88 -234 203c0 111 78 168 158 206c-69 79 -85 123 -85 186c0 97 71 176 188 176c111 0 179 -68 179 -169c0 -96 -62 -153 -183 -212c5 -5 143 -148 206 -200c28 53 45 124 50 185h52c-5 -77 -26 -158 -62 -222 l109 -103v-39h-43zM180 587c0 -64 26 -105 91 -174c110 49 161 106 161 177c0 72 -43 121 -122 121s-130 -54 -130 -124zM288 39c85 0 150 40 192 94c-73 66 -232 222 -239 229c-63 -29 -133 -73 -133 -167c0 -89 66 -156 180 -156z" glyph-name="ampersand" horiz-adv-x="686" unicode="&amp;"/>
<glyph d="M345 -70c0 29 19 58 44 70l-6 104c-27 -67 -83 -114 -167 -114c-118 0 -173 65 -173 149c0 83 58 145 204 145c72 0 131 -13 131 -13v40c0 94 -42 145 -133 145c-114 0 -137 -85 -137 -85h-38v37s37 95 177 95c121 0 185 -67 185 -194v-309s-37 -9 -37 -54 c0 -36 31 -48 51 -48v-43h-42s-59 11 -59 75zM221 35c106 0 157 87 157 161v31s-53 13 -132 13c-117 0 -151 -49 -151 -101c0 -66 44 -104 126 -104z" glyph-name="aogonek" horiz-adv-x="510" unicode="ą"/>
<glyph d="M421 338c-106 0 -131 124 -212 124c-52 0 -78 -49 -85 -120h-49c10 132 69 172 134 172c110 0 136 -125 211 -125c47 0 77 43 87 131h48c-9 -141 -69 -182 -134 -182zM421 108c-106 0 -131 124 -212 124c-52 0 -78 -49 -85 -120h-49c10 132 69 172 134 172 c110 0 136 -125 211 -125c47 0 77 43 87 131h48c-9 -141 -69 -182 -134 -182z" glyph-name="approxequal" horiz-adv-x="623" unicode="≈"/>
<glyph d="M418 288c-106 0 -131 124 -212 124c-52 0 -78 -49 -85 -120h-49c10 132 69 172 134 172c110 0 136 -125 211 -125c47 0 77 43 87 131h48c-9 -141 -69 -182 -134 -182zM418 58c-106 0 -131 124 -212 124c-52 0 -78 -49 -85 -120h-49c10 132 69 172 134 172 c110 0 136 -125 211 -125c47 0 77 43 87 131h48c-9 -141 -69 -182 -134 -182z" glyph-name="approxequal.old" horiz-adv-x="622"/>
<glyph d="M407 288c-106 0 -131 124 -212 124c-52 0 -78 -49 -85 -120h-49c10 132 69 172 134 172c110 0 136 -125 211 -125c47 0 77 43 87 131h48c-9 -141 -69 -182 -134 -182zM407 58c-106 0 -131 124 -212 124c-52 0 -78 -49 -85 -120h-49c10 132 69 172 134 172 c110 0 136 -125 211 -125c47 0 77 43 87 131h48c-9 -141 -69 -182 -134 -182z" glyph-name="approxequal.oldtab" horiz-adv-x="600"/>
<glyph d="M435 338c-106 0 -131 124 -212 124c-52 0 -78 -49 -85 -120h-49c10 132 69 172 134 172c110 0 136 -125 211 -125c47 0 77 43 87 131h48c-9 -141 -69 -182 -134 -182zM435 108c-106 0 -131 124 -212 124c-52 0 -78 -49 -85 -120h-49c10 132 69 172 134 172 c110 0 136 -125 211 -125c47 0 77 43 87 131h48c-9 -141 -69 -182 -134 -182z" glyph-name="approxequal.tab" horiz-adv-x="650"/>
<glyph d="M216 -10c-118 0 -173 65 -173 149c0 83 58 145 204 145c72 0 131 -13 131 -13v40c0 94 -42 145 -133 145c-114 0 -137 -85 -137 -85h-38v37s37 95 177 95c121 0 185 -67 185 -194v-309h-43l-6 104c-27 -67 -83 -114 -167 -114zM221 35c106 0 157 87 157 161v31 s-53 13 -132 13c-117 0 -151 -49 -151 -101c0 -66 44 -104 126 -104zM254 598c-48 0 -84 33 -84 80c0 46 36 79 84 79c49 0 85 -33 85 -79c0 -47 -36 -80 -85 -80zM254 638c22 0 41 15 41 40c0 24 -19 39 -41 39c-20 0 -40 -15 -40 -39c0 -25 20 -40 40 -40z" glyph-name="aring" horiz-adv-x="510" unicode="å"/>
<glyph d="M216 -10c-118 0 -173 65 -173 149c0 83 58 145 204 145c72 0 131 -13 131 -13v40c0 94 -42 145 -133 145c-114 0 -137 -85 -137 -85h-38v37s37 95 177 95c121 0 185 -67 185 -194v-309h-43l-6 104c-27 -67 -83 -114 -167 -114zM221 35c106 0 157 87 157 161v31 s-53 13 -132 13c-117 0 -151 -49 -151 -101c0 -66 44 -104 126 -104zM254 598c-48 0 -84 33 -84 80c0 46 36 79 84 79c49 0 85 -33 85 -79c0 -47 -36 -80 -85 -80zM254 638c22 0 41 15 41 40c0 24 -19 39 -41 39c-20 0 -40 -15 -40 -39c0 -25 20 -40 40 -40zM228 805v36 l112 104h46v-36l-113 -104h-45z" glyph-name="aringacute" horiz-adv-x="510" unicode="ǻ"/>
<glyph d="M412 438l-157 254l-157 -254h-37v38l172 274h44l172 -274v-38h-37z" glyph-name="asciicircum" horiz-adv-x="510" unicode="^"/>
<glyph d="M401 218c-95 0 -117 121 -189 121c-50 0 -75 -45 -82 -117h-52c10 132 69 172 134 172c98 0 122 -121 188 -121c47 0 59 40 69 127h52c-9 -141 -55 -182 -120 -182z" glyph-name="asciitilde" horiz-adv-x="594" unicode="~"/>
<glyph d="M151 406l-53 38l94 118l-140 25l18 58l134 -42l-10 147h64l-9 -148l134 43l16 -58l-138 -25l97 -117l-52 -39l-80 128z" glyph-name="asterisk" horiz-adv-x="453" unicode="*"/>
<glyph d="M466 -207c-234 0 -413 140 -413 431c0 272 175 483 468 483c253 0 394 -161 394 -382c0 -222 -125 -325 -318 -325h-34l8 93c-28 -55 -72 -103 -141 -103c-113 0 -161 103 -146 242c16 140 95 243 229 243c71 0 102 -42 102 -42l14 27h35l-46 -411c140 0 240 80 240 275 c0 183 -105 333 -338 333c-237 0 -409 -165 -409 -433c0 -271 168 -382 361 -382c122 0 188 24 235 44v-46c-61 -29 -120 -47 -241 -47zM447 40c75 0 121 82 132 177l19 177s-24 37 -88 37c-106 0 -158 -105 -168 -197c-13 -116 20 -194 105 -194z" glyph-name="at" horiz-adv-x="972" unicode="@"/>
<glyph d="M468 -87c-234 0 -413 140 -413 431c0 272 175 483 468 483c253 0 394 -161 394 -382c0 -222 -125 -325 -318 -325h-34l8 93c-28 -55 -72 -103 -141 -103c-113 0 -161 103 -146 242c16 140 95 243 229 243c71 0 102 -42 102 -42l14 27h35l-46 -411c140 0 240 80 240 275 c0 183 -105 333 -338 333c-237 0 -409 -165 -409 -433c0 -271 168 -382 361 -382c122 0 188 24 235 44v-46c-61 -29 -120 -47 -241 -47zM449 160c75 0 121 82 132 177l19 177s-24 37 -88 37c-106 0 -158 -105 -168 -197c-13 -116 20 -194 105 -194z" glyph-name="at.uc" horiz-adv-x="956"/>
<glyph d="M216 -10c-118 0 -173 65 -173 149c0 83 58 145 204 145c72 0 131 -13 131 -13v40c0 94 -42 145 -133 145c-114 0 -137 -85 -137 -85h-38v37s37 95 177 95c121 0 185 -67 185 -194v-309h-43l-6 104c-27 -67 -83 -114 -167 -114zM221 35c106 0 157 87 157 161v31 s-53 13 -132 13c-117 0 -151 -49 -151 -101c0 -66 44 -104 126 -104zM319 630c-63 0 -71 53 -115 53c-20 0 -40 -16 -41 -48h-43c0 54 29 94 80 94c62 0 70 -53 111 -53c19 0 34 9 35 48h43c0 -62 -24 -94 -70 -94z" glyph-name="atilde" horiz-adv-x="510" unicode="ã"/>
<glyph d="M324 -10c-73 0 -147 33 -188 111l-8 -101h-46v750h54v-359c31 60 97 112 188 112c137 0 234 -113 234 -252c0 -146 -94 -261 -234 -261zM318 37c103 0 186 82 186 214c0 111 -73 205 -186 205c-117 0 -182 -93 -182 -205c0 -166 109 -214 182 -214z" glyph-name="b" horiz-adv-x="606" unicode="b"/>
<glyph d="M423 -250l-394 1069h59l394 -1069h-59z" glyph-name="backslash" horiz-adv-x="511" unicode="\"/>
<glyph d="M424 -180l-394 1029h62l394 -1029h-62z" glyph-name="backslash.uc" horiz-adv-x="518"/>
<glyph d="M126 -250l-29 30v1009l30 30l29 -30v-1009z" glyph-name="bar" horiz-adv-x="253" unicode="|"/>
<glyph d="M140 -180l-31 30v969l31 30l31 -30v-969z" glyph-name="bar.uc" horiz-adv-x="280"/>
<glyph d="M357 -232c-185 0 -232 70 -232 229v68c0 151 -36 170 -110 170v48c74 0 110 19 110 170v68c0 159 61 229 246 229v-45c-137 0 -188 -44 -188 -160v-71c0 -145 -29 -197 -86 -215c57 -18 86 -63 86 -208v-71c0 -123 44 -167 174 -167v-45z" glyph-name="braceleft" horiz-adv-x="381" unicode="{"/>
<glyph d="M357 -232c-185 0 -232 70 -232 229v68c0 151 -36 170 -110 170v48c74 0 110 19 110 170v68c0 159 61 229 246 229v-45c-137 0 -188 -44 -188 -160v-71c0 -145 -29 -197 -86 -215c57 -18 86 -63 86 -208v-71c0 -123 44 -167 174 -167v-45z" glyph-name="braceleft.old" horiz-adv-x="381"/>
<glyph d="M466 -232c-185 0 -232 70 -232 229v68c0 151 -36 170 -110 170v48c74 0 110 19 110 170v68c0 159 61 229 246 229v-45c-137 0 -188 -44 -188 -160v-71c0 -145 -29 -197 -86 -215c57 -18 86 -63 86 -208v-71c0 -123 44 -167 174 -167v-45z" glyph-name="braceleft.oldtab" horiz-adv-x="600"/>
<glyph d="M481 -142c-169 0 -213 68 -213 223v40c0 150 -36 172 -110 172v42c74 0 110 22 110 172v40c0 155 57 223 227 223v-45c-123 0 -168 -42 -168 -154v-44c0 -144 -29 -196 -86 -213c57 -17 86 -63 86 -207v-43c0 -119 39 -161 154 -161v-45z" glyph-name="braceleft.tab" horiz-adv-x="650"/>
<glyph d="M370 -142c-185 0 -233 70 -233 229v48c0 151 -36 170 -110 170v48c74 0 110 19 110 170v48c0 159 62 229 246 229v-45c-137 0 -187 -44 -187 -160v-51c0 -145 -30 -197 -86 -215c56 -18 86 -63 86 -208v-51c0 -123 44 -167 174 -167v-45z" glyph-name="braceleft.uc" horiz-adv-x="411"/>
<glyph d="M11 -232v45c137 0 188 44 188 160v71c0 145 29 197 86 215c-57 18 -86 63 -86 208v71c0 123 -44 167 -174 167v45c184 0 232 -70 232 -229v-68c0 -151 36 -170 110 -170v-48c-74 0 -110 -19 -110 -170v-68c0 -159 -61 -229 -246 -229z" glyph-name="braceright" horiz-adv-x="382" unicode="}"/>
<glyph d="M11 -232v45c137 0 188 44 188 160v71c0 145 29 197 86 215c-57 18 -86 63 -86 208v71c0 123 -44 167 -174 167v45c184 0 232 -70 232 -229v-68c0 -151 36 -170 110 -170v-48c-74 0 -110 -19 -110 -170v-68c0 -159 -61 -229 -246 -229z" glyph-name="braceright.old" horiz-adv-x="382"/>
<glyph d="M120 -232v45c137 0 188 44 188 160v71c0 145 29 197 86 215c-57 18 -86 63 -86 208v71c0 123 -44 167 -174 167v45c184 0 232 -70 232 -229v-68c0 -151 36 -170 110 -170v-48c-74 0 -110 -19 -110 -170v-68c0 -159 -61 -229 -246 -229z" glyph-name="braceright.oldtab" horiz-adv-x="600"/>
<glyph d="M155 -142v45c122 0 168 42 168 154v44c0 144 29 196 85 213c-56 17 -85 63 -85 207v43c0 119 -40 161 -154 161v45c169 0 212 -68 212 -223v-40c0 -150 36 -172 110 -172v-42c-74 0 -110 -22 -110 -172v-40c0 -155 -56 -223 -226 -223z" glyph-name="braceright.tab" horiz-adv-x="650"/>
<glyph d="M27 -142v45c137 0 188 44 188 160v51c0 145 29 197 85 215c-56 18 -85 63 -85 208v51c0 123 -44 167 -174 167v45c184 0 232 -70 232 -229v-48c0 -151 36 -170 110 -170v-48c-74 0 -110 -19 -110 -170v-48c0 -159 -61 -229 -246 -229z" glyph-name="braceright.uc" horiz-adv-x="410"/>
<glyph d="M99 -230v980h212v-49h-154v-882h154v-49h-212z" glyph-name="bracketleft" horiz-adv-x="332" unicode="["/>
<glyph d="M99 -230v980h212v-49h-154v-882h154v-49h-212z" glyph-name="bracketleft.old" horiz-adv-x="332"/>
<glyph d="M233 -230v980h212v-49h-154v-882h154v-49h-212z" glyph-name="bracketleft.oldtab" horiz-adv-x="600"/>
<glyph d="M257 -140v920h212v-49h-153v-822h153v-49h-212z" glyph-name="bracketleft.tab" horiz-adv-x="650"/>
<glyph d="M110 -140v940h212v-49h-153v-842h153v-49h-212z" glyph-name="bracketleft.uc" horiz-adv-x="358"/>
<glyph d="M21 -230v49h154v882h-154v49h212v-980h-212z" glyph-name="bracketright" horiz-adv-x="332" unicode="]"/>
<glyph d="M21 -230v49h154v882h-154v49h212v-980h-212z" glyph-name="bracketright.old" horiz-adv-x="332"/>
<glyph d="M155 -230v49h154v882h-154v49h212v-980h-212z" glyph-name="bracketright.oldtab" horiz-adv-x="600"/>
<glyph d="M181 -140v49h153v822h-153v49h212v-920h-212z" glyph-name="bracketright.tab" horiz-adv-x="650"/>
<glyph d="M36 -140v49h154v842h-154v49h212v-940h-212z" glyph-name="bracketright.uc" horiz-adv-x="358"/>
<glyph d="M201 599c-115 0 -126 78 -126 78v43h43s0 -75 83 -75c85 0 80 75 80 75h42v-43s-10 -78 -122 -78z" glyph-name="breve" horiz-adv-x="398" unicode="˘"/>
<glyph d="M232 823c-110 0 -126 72 -126 72v42h42s5 -68 84 -68c80 0 80 68 80 68h42v-42s-14 -72 -122 -72z" glyph-name="breve.uc" horiz-adv-x="460"/>
<glyph d="M96 389v400l31 30l31 -30v-400h-62zM127 -250l-31 30v405h62v-405z" glyph-name="brokenbar" horiz-adv-x="254" unicode="¦"/>
<glyph d="M183 231c-51 0 -88 39 -88 89s37 89 88 89c53 0 89 -39 89 -89s-36 -89 -89 -89z" glyph-name="bullet" horiz-adv-x="366" unicode="•"/>
<glyph d="M288 -10c-148 0 -239 113 -239 256s94 257 240 257c156 0 191 -111 191 -111v-38h-37s-24 101 -155 101c-122 0 -185 -101 -185 -209c0 -107 63 -209 186 -209c134 0 155 103 155 103h37v-37s-37 -113 -193 -113z" glyph-name="c" horiz-adv-x="528" unicode="c"/>
<glyph d="M288 -10c-148 0 -239 113 -239 256s94 257 240 257c156 0 191 -111 191 -111v-38h-37s-24 101 -155 101c-122 0 -185 -101 -185 -209c0 -107 63 -209 186 -209c134 0 155 103 155 103h37v-37s-37 -113 -193 -113zM258 610v36l99 104h45v-36l-99 -104h-45z" glyph-name="cacute" horiz-adv-x="528" unicode="ć"/>
<glyph d="M288 -10c-148 0 -239 113 -239 256s94 257 240 257c156 0 191 -111 191 -111v-38h-37s-24 101 -155 101c-122 0 -185 -101 -185 -209c0 -107 63 -209 186 -209c134 0 155 103 155 103h37v-37s-37 -113 -193 -113zM253 610v36l76 134h45v-36l-76 -134h-45z" glyph-name="cacute.pl" horiz-adv-x="528"/>
<glyph d="M224 610h-49l-100 104v36h36l88 -92l87 92h36v-36z" glyph-name="caron" horiz-adv-x="397" unicode="ˇ"/>
<glyph d="M106 602v148h61v-61l-25 -87h-36z" glyph-name="caron.alt" horiz-adv-x="288"/>
<glyph d="M255 816h-49l-100 90v36h36l88 -80l86 80h36v-36z" glyph-name="caron.uc" horiz-adv-x="458"/>
<glyph d="M288 -10c-148 0 -239 113 -239 256s94 257 240 257c156 0 191 -111 191 -111v-38h-37s-24 101 -155 101c-122 0 -185 -101 -185 -209c0 -107 63 -209 186 -209c134 0 155 103 155 103h37v-37s-37 -113 -193 -113zM306 610h-49l-100 104v36h36l88 -92l87 92h36v-36z" glyph-name="ccaron" horiz-adv-x="528" unicode="č"/>
<glyph d="M379 -112c0 -51 -46 -77 -83 -81h-37v42c42 0 71 11 71 42c0 30 -29 43 -67 43v57c-133 12 -214 120 -214 255c0 143 94 257 240 257c156 0 191 -111 191 -111v-38h-37s-24 101 -155 101c-122 0 -185 -101 -185 -209c0 -107 63 -209 186 -209c134 0 155 103 155 103h37 v-37s-34 -103 -173 -112v-31c48 -7 71 -34 71 -72z" glyph-name="ccedilla" horiz-adv-x="528" unicode="ç"/>
<glyph d="M288 -10c-148 0 -239 113 -239 256s94 257 240 257c156 0 191 -111 191 -111v-38h-37s-24 101 -155 101c-122 0 -185 -101 -185 -209c0 -107 63 -209 186 -209c134 0 155 103 155 103h37v-37s-37 -113 -193 -113zM372 610l-88 92l-87 -92h-36v36l99 104h49l99 -104v-36 h-36z" glyph-name="ccircumflex" horiz-adv-x="528" unicode="ĉ"/>
<glyph d="M288 -10c-148 0 -239 113 -239 256s94 257 240 257c156 0 191 -111 191 -111v-38h-37s-24 101 -155 101c-122 0 -185 -101 -185 -209c0 -107 63 -209 186 -209c134 0 155 103 155 103h37v-37s-37 -113 -193 -113zM250 646v74h73v-74h-73z" glyph-name="cdotaccent" horiz-adv-x="528" unicode="ċ"/>
<glyph d="M108 -193v42c42 0 71 11 71 42c0 30 -29 43 -67 43v66h45v-40c48 -7 71 -34 71 -72c0 -51 -46 -77 -83 -81h-37z" glyph-name="cedilla" horiz-adv-x="333" unicode="¸"/>
<glyph d="M289 -10h-4l-11 -133h-48l11 138c-117 23 -187 126 -187 251c0 138 88 250 226 257l11 139h49l-11 -141c126 -15 156 -109 156 -109v-38h-37s-20 84 -123 99l-33 -416h2c134 0 155 103 155 103h37v-37s-37 -113 -193 -113zM104 246c0 -92 46 -179 136 -203l32 411 c-111 -8 -168 -105 -168 -208z" glyph-name="cent" horiz-adv-x="538" unicode="¢"/>
<glyph d="M289 -10h-4l-11 -133h-48l11 138c-117 23 -187 126 -187 251c0 138 88 250 226 257l11 139h49l-11 -141c126 -15 156 -109 156 -109v-38h-37s-20 84 -123 99l-33 -416h2c134 0 155 103 155 103h37v-37s-37 -113 -193 -113zM104 246c0 -92 46 -179 136 -203l32 411 c-111 -8 -168 -105 -168 -208z" glyph-name="cent.old" horiz-adv-x="538"/>
<glyph d="M320 -10h-4l-11 -133h-48l11 138c-117 23 -187 126 -187 251c0 138 88 250 226 257l11 139h49l-11 -141c126 -15 156 -109 156 -109v-38h-37s-20 84 -123 99l-33 -416h2c134 0 155 103 155 103h37v-37s-37 -113 -193 -113zM135 246c0 -92 46 -179 136 -203l32 411 c-111 -8 -168 -105 -168 -208z" glyph-name="cent.oldtab" horiz-adv-x="600"/>
<glyph d="M345 -10h-4l-11 -133h-48l11 138c-117 23 -187 126 -187 251c0 138 88 250 226 257l11 139h49l-11 -141c126 -15 156 -109 156 -109v-38h-37s-20 84 -123 99l-33 -416h2c134 0 155 103 155 103h37v-37s-37 -113 -193 -113zM160 246c0 -92 46 -179 136 -203l32 411 c-111 -8 -168 -105 -168 -208z" glyph-name="cent.tab" horiz-adv-x="650"/>
<glyph d="M747 138l-93 30v-167h-129v208l-92 29v119l92 -29v110h-192v119h192v193h129v-193h193v-119h-193v-151l93 -30v-119z" glyph-name="church"/>
<glyph d="M525 1v437h-192v119h192v193h129v-193h193v-119h-193v-437h-129z" glyph-name="church2"/>
<glyph d="M778 132h-78v-79h-229v79h-94v147h-50l-59 46v56h109v20c-3 2 -7 5 -10 8c-27 26 -45 65 -45 104c0 40 18 79 45 105c26 24 60 38 98 38c37 0 72 -14 98 -38l8 -8l8 8c25 24 60 38 97 38c39 0 73 -14 98 -38c28 -26 45 -65 45 -105c0 -37 -15 -74 -41 -100v-35l82 46v28 h40v-249h-40v24l-82 51v-146zM465 452c17 0 31 6 42 17c13 11 20 28 20 45c0 18 -7 34 -20 46c-11 11 -25 16 -42 16s-32 -5 -44 -16c-11 -12 -18 -28 -18 -46c0 -17 7 -34 18 -45c12 -11 27 -17 44 -17zM675 452c17 0 32 6 43 17c12 11 19 28 19 45c0 18 -7 34 -19 46 c-11 11 -26 16 -43 16c-16 0 -31 -5 -43 -16c-12 -12 -19 -28 -19 -46c0 -17 7 -34 19 -45s27 -17 43 -17z" glyph-name="cinema"/>
<glyph d="M286 610l-88 92l-87 -92h-36v36l99 104h49l99 -104v-36h-36z" glyph-name="circumflex" horiz-adv-x="420" unicode="ˆ"/>
<glyph d="M301 816l-88 80l-87 -80h-36v36l99 90h49l99 -90v-36h-36z" glyph-name="circumflex.uc" horiz-adv-x="424"/>
<glyph d="M71 423v77h76v-77h-76zM71 0v77h76v-77h-76z" glyph-name="colon" horiz-adv-x="218" unicode=":"/>
<glyph d="M71 423v77h76v-77h-76zM71 0v77h76v-77h-76z" glyph-name="colon.old" horiz-adv-x="218"/>
<glyph d="M262 423v77h76v-77h-76zM262 0v77h76v-77h-76z" glyph-name="colon.oldtab" horiz-adv-x="600"/>
<glyph d="M287 423v77h76v-77h-76zM287 0v77h76v-77h-76z" glyph-name="colon.tab" horiz-adv-x="650"/>
<glyph d="M74 -96v173h72v-64l-35 -109h-37z" glyph-name="comma" horiz-adv-x="220" unicode=","/>
<glyph d="M71 -96v173h72v-64l-35 -109h-37z" glyph-name="comma.old" horiz-adv-x="214"/>
<glyph d="M264 -96v173h72v-64l-35 -109h-37z" glyph-name="comma.oldtab" horiz-adv-x="600"/>
<glyph d="M289 -96v173h72v-64l-35 -109h-37z" glyph-name="comma.tab" horiz-adv-x="650"/>
<glyph d="M75 -191v139h60v-58l-25 -81h-35z" glyph-name="commaaccent" horiz-adv-x="208" unicode=""/>
<glyph d="M280 744v-139h-60v58l25 81h35z" glyph-name="commaaccent.alt" horiz-adv-x="470"/>
<glyph d="M519 -209c-268 0 -469 208 -469 463c0 254 201 462 469 462s469 -208 469 -462c0 -255 -201 -463 -469 -463zM519 -161c235 0 413 183 413 415c0 231 -178 413 -413 413s-414 -182 -414 -413c0 -232 179 -415 414 -415zM522 -10c-163 0 -251 115 -251 262 c0 149 92 259 251 259c152 0 193 -95 193 -95v-37h-38s-28 81 -155 81c-129 0 -192 -93 -192 -208c0 -122 73 -211 192 -211c129 0 158 83 158 83h38v-37s-40 -97 -196 -97z" glyph-name="copyright" horiz-adv-x="1038" unicode="©"/>
<glyph d="M242 584c-125 0 -136 99 -136 99v35h44s-3 -87 92 -87s91 87 91 87h45v-35s-11 -99 -136 -99z" glyph-name="cyrbreve" horiz-adv-x="483" unicode=""/>
<glyph d="M280 814c-125 0 -143 95 -143 95v38h43s1 -90 100 -90c100 0 100 90 100 90h43v-38s-18 -95 -143 -95z" glyph-name="cyrbreve.uc" horiz-adv-x="560"/>
<glyph d="M283 -10c-136 0 -234 110 -234 258c0 149 102 255 234 255c76 0 151 -28 188 -113v360h54v-750h-46l-10 101c-42 -78 -109 -111 -186 -111zM289 37c88 0 182 64 182 211c0 117 -66 208 -181 208c-113 0 -187 -92 -187 -208c0 -139 93 -211 186 -211z" glyph-name="d" horiz-adv-x="609" unicode="d"/>
<glyph d="M229 -72l-31 100l22 468l-164 -9v53l164 -8l-15 218h67l-14 -218l163 8v-53l-163 9l22 -468l-29 -100h-22z" glyph-name="dagger" horiz-adv-x="478" unicode="†"/>
<glyph d="M206 -72l15 219l-164 -8v53l164 -9l-18 151l18 162l-164 -9v53l164 -8l-15 218h67l-14 -218l163 8v-53l-163 9l18 -162l-18 -151l163 9v-53l-163 8l14 -219h-67z" glyph-name="daggerdbl" horiz-adv-x="478" unicode="‡"/>
<glyph d="M283 -10c-136 0 -234 110 -234 258c0 149 102 255 234 255c76 0 151 -28 188 -113v360h54v-750h-46l-10 101c-42 -78 -109 -111 -186 -111zM289 37c88 0 182 64 182 211c0 117 -66 208 -181 208c-113 0 -187 -92 -187 -208c0 -139 93 -211 186 -211zM581 602v148h61v-61 l-25 -87h-36z" glyph-name="dcaron" horiz-adv-x="612" unicode="ď"/>
<glyph d="M469 101c-42 -78 -109 -111 -186 -111c-136 0 -234 110 -234 258c0 149 102 255 234 255c76 0 151 -28 188 -113v235h-134v47h134v78h54v-78h85v-47h-85v-625h-46zM289 37c88 0 182 64 182 211c0 117 -66 208 -181 208c-113 0 -187 -92 -187 -208 c0 -139 93 -211 186 -211z" glyph-name="dcroat" horiz-adv-x="608" unicode="đ"/>
<glyph d="M217 427c-99 0 -169 75 -169 166s70 167 169 167c98 0 169 -76 169 -167s-71 -166 -169 -166zM217 475c71 0 114 56 114 118c0 61 -43 120 -114 120c-70 0 -114 -59 -114 -120c0 -62 44 -118 114 -118z" glyph-name="degree" horiz-adv-x="434" unicode="°"/>
<glyph d="M26 646v74h73v-74h-73zM214 646v74h74v-74h-74z" glyph-name="dieresis" horiz-adv-x="302" unicode="¨"/>
<glyph d="M106 838v76h76v-76h-76zM306 838v76h75v-76h-75z" glyph-name="dieresis.uc" horiz-adv-x="487"/>
<glyph d="M246 505v77h77v-77h-77zM82 324v47h406v-47h-406zM246 113v77h77v-77h-77z" glyph-name="divide" horiz-adv-x="570" unicode="÷"/>
<glyph d="M238 434v76h77v-76h-77zM74 259v47h405v-47h-405zM238 54v77h77v-77h-77z" glyph-name="divide.old" horiz-adv-x="553"/>
<glyph d="M262 434v76h77v-76h-77zM98 259v47h405v-47h-405zM262 54v77h77v-77h-77z" glyph-name="divide.oldtab" horiz-adv-x="600"/>
<glyph d="M286 505v77h77v-77h-77zM122 324v47h406v-47h-406zM286 113v77h77v-77h-77z" glyph-name="divide.tab" horiz-adv-x="650"/>
<glyph d="M289 -10h-8l-10 -133h-50l10 137c-109 17 -166 81 -190 149v39h42c25 -74 73 -123 152 -138l23 317l-4 1c-144 37 -200 105 -200 208s81 190 232 190h1l9 116h51l-9 -120c96 -15 148 -71 161 -144v-39h-42c-7 50 -35 115 -123 133l-22 -302l9 -2 c126 -34 200 -90 200 -207c0 -128 -94 -205 -232 -205zM111 572c0 -90 64 -129 151 -154l22 293c-114 0 -173 -57 -173 -139zM464 195c0 64 -29 115 -156 152l-23 -308h5c98 0 174 47 174 156z" glyph-name="dollar" horiz-adv-x="570" unicode="$"/>
<glyph d="M261 -137h-48l11 131c-96 12 -154 62 -178 119v36h46c20 -58 66 -96 135 -107l20 249c-134 31 -193 84 -193 175c0 95 73 171 221 175l10 126h49l-11 -129c89 -12 140 -63 153 -129v-36h-46c-5 43 -32 102 -110 115l-22 -258c127 -30 198 -76 198 -174 c0 -106 -96 -171 -224 -165zM113 470c0 -77 60 -108 137 -128l21 250c-105 -2 -158 -50 -158 -122zM437 156c0 51 -27 93 -142 123l-20 -240c87 -6 162 31 162 117z" glyph-name="dollar.old" horiz-adv-x="547"/>
<glyph d="M287 -137h-48l11 131c-96 12 -154 62 -178 119v36h46c20 -58 66 -96 135 -107l20 249c-134 31 -193 84 -193 175c0 95 73 171 221 175l10 126h49l-11 -129c89 -12 140 -63 153 -129v-36h-46c-5 43 -32 102 -110 115l-22 -258c127 -30 198 -76 198 -174 c0 -106 -96 -171 -224 -165zM139 470c0 -77 60 -108 137 -128l21 250c-105 -2 -158 -50 -158 -122zM463 156c0 51 -27 93 -142 123l-20 -240c87 -6 162 31 162 117z" glyph-name="dollar.oldtab" horiz-adv-x="600"/>
<glyph d="M329 -10h-8l-10 -133h-50l10 137c-109 17 -166 81 -190 149v39h42c25 -74 73 -123 152 -138l23 317l-4 1c-144 37 -200 105 -200 208s81 190 232 190h1l9 116h51l-9 -120c96 -15 148 -71 161 -144v-39h-42c-7 50 -35 115 -123 133l-22 -302l9 -2 c126 -34 200 -90 200 -207c0 -128 -94 -205 -232 -205zM151 572c0 -90 64 -129 151 -154l22 293c-114 0 -173 -57 -173 -139zM504 195c0 64 -29 115 -156 152l-23 -308h5c98 0 174 47 174 156z" glyph-name="dollar.tab" horiz-adv-x="650"/>
<glyph d="M176 646v74h73v-74h-73z" glyph-name="dotaccent" horiz-adv-x="425" unicode="˙"/>
<glyph d="M106 838v76h76v-76h-76z" glyph-name="dotaccent.uc" horiz-adv-x="287"/>
<glyph d="M84 0v493h54v-493h-54z" glyph-name="dotlessi" horiz-adv-x="222" unicode="ı"/>
<glyph d="M292 -10c-154 0 -243 99 -243 258c0 133 80 255 237 255c144 0 220 -95 220 -216c0 -31 -3 -48 -3 -48h-400c5 -133 78 -201 189 -201c99 0 153 55 165 99h38v-38c-11 -24 -63 -109 -203 -109zM105 284h347c0 108 -61 172 -166 172c-104 0 -169 -65 -181 -172z" glyph-name="e" horiz-adv-x="554" unicode="e"/>
<glyph d="M292 -10c-154 0 -243 99 -243 258c0 133 80 255 237 255c144 0 220 -95 220 -216c0 -31 -3 -48 -3 -48h-400c5 -133 78 -201 189 -201c99 0 153 55 165 99h38v-38c-11 -24 -63 -109 -203 -109zM105 284h347c0 108 -61 172 -166 172c-104 0 -169 -65 -181 -172zM249 610 v36l99 104h45v-36l-99 -104h-45z" glyph-name="eacute" horiz-adv-x="554" unicode="é"/>
<glyph d="M292 -10c-154 0 -243 99 -243 258c0 133 80 255 237 255c144 0 220 -95 220 -216c0 -31 -3 -48 -3 -48h-400c5 -133 78 -201 189 -201c99 0 153 55 165 99h38v-38c-11 -24 -63 -109 -203 -109zM105 284h347c0 108 -61 172 -166 172c-104 0 -169 -65 -181 -172zM285 599 c-115 0 -126 78 -126 78v43h43s0 -75 83 -75c85 0 80 75 80 75h42v-43s-10 -78 -122 -78z" glyph-name="ebreve" horiz-adv-x="554" unicode="ĕ"/>
<glyph d="M310 610h-49l-100 104v36h36l88 -92l87 92h36v-36zM292 -10c-154 0 -243 99 -243 258c0 133 80 255 237 255c144 0 220 -95 220 -216c0 -31 -3 -48 -3 -48h-400c5 -133 78 -201 189 -201c99 0 153 55 165 99h38v-38c-11 -24 -63 -109 -203 -109zM105 284h347 c0 108 -61 172 -166 172c-104 0 -169 -65 -181 -172z" glyph-name="ecaron" horiz-adv-x="554" unicode="ě"/>
<glyph d="M292 -10c-154 0 -243 99 -243 258c0 133 80 255 237 255c144 0 220 -95 220 -216c0 -31 -3 -48 -3 -48h-400c5 -133 78 -201 189 -201c99 0 153 55 165 99h38v-38c-11 -24 -63 -109 -203 -109zM105 284h347c0 108 -61 172 -166 172c-104 0 -169 -65 -181 -172zM374 610 l-88 92l-87 -92h-36v36l99 104h49l99 -104v-36h-36z" glyph-name="ecircumflex" horiz-adv-x="554" unicode="ê"/>
<glyph d="M292 -10c-154 0 -243 99 -243 258c0 133 80 255 237 255c144 0 220 -95 220 -216c0 -31 -3 -48 -3 -48h-400c5 -133 78 -201 189 -201c99 0 153 55 165 99h38v-38c-11 -24 -63 -109 -203 -109zM105 284h347c0 108 -61 172 -166 172c-104 0 -169 -65 -181 -172zM148 646 v74h73v-74h-73zM336 646v74h74v-74h-74z" glyph-name="edieresis" horiz-adv-x="554" unicode="ë"/>
<glyph d="M292 -10c-154 0 -243 99 -243 258c0 133 80 255 237 255c144 0 220 -95 220 -216c0 -31 -3 -48 -3 -48h-400c5 -133 78 -201 189 -201c99 0 153 55 165 99h38v-38c-11 -24 -63 -109 -203 -109zM105 284h347c0 108 -61 172 -166 172c-104 0 -169 -65 -181 -172zM248 646 v74h73v-74h-73z" glyph-name="edotaccent" horiz-adv-x="554" unicode="ė"/>
<glyph d="M292 -10c-154 0 -243 99 -243 258c0 133 80 255 237 255c144 0 220 -95 220 -216c0 -31 -3 -48 -3 -48h-400c5 -133 78 -201 189 -201c99 0 153 55 165 99h38v-38c-11 -24 -63 -109 -203 -109zM105 284h347c0 108 -61 172 -166 172c-104 0 -169 -65 -181 -172zM256 610 l-99 104v36h45l99 -104v-36h-45z" glyph-name="egrave" horiz-adv-x="554" unicode="è"/>
<glyph d="M296 -10c-153 0 -240 94 -240 219c0 68 33 159 135 192c-83 37 -106 107 -106 166c0 106 74 193 211 193c135 0 211 -87 211 -193c0 -74 -36 -134 -106 -166c103 -35 136 -124 136 -192c0 -125 -86 -219 -241 -219zM296 420c107 0 155 68 155 147c0 76 -48 144 -155 144 c-108 0 -155 -68 -155 -144c0 -79 46 -147 155 -147zM296 40c121 0 181 70 181 169c0 88 -57 166 -181 166c-123 0 -180 -78 -180 -166c0 -99 61 -169 180 -169z" glyph-name="eight" horiz-adv-x="593" unicode="8"/>
<glyph d="M289 -10c-145 0 -233 94 -233 219c0 68 37 159 135 192c-79 37 -106 105 -106 168c0 106 76 191 204 191c127 0 204 -85 204 -191c0 -78 -39 -136 -106 -168c100 -35 136 -124 136 -192c0 -125 -87 -219 -234 -219zM289 421c93 0 150 64 150 148c0 77 -57 144 -150 144 s-150 -67 -150 -144c0 -84 56 -148 150 -148zM289 37c108 0 180 73 180 172c0 88 -69 164 -180 164c-110 0 -179 -76 -179 -164c0 -99 72 -172 179 -172z" glyph-name="eight.old" horiz-adv-x="579"/>
<glyph d="M300 -10c-145 0 -233 94 -233 219c0 68 37 159 135 192c-79 37 -106 105 -106 168c0 106 76 191 204 191c127 0 204 -85 204 -191c0 -78 -39 -136 -106 -168c100 -35 136 -124 136 -192c0 -125 -87 -219 -234 -219zM300 421c93 0 150 64 150 148c0 77 -57 144 -150 144 s-150 -67 -150 -144c0 -84 56 -148 150 -148zM300 37c108 0 180 73 180 172c0 88 -69 164 -180 164c-110 0 -179 -76 -179 -164c0 -99 72 -172 179 -172z" glyph-name="eight.oldtab" horiz-adv-x="600"/>
<glyph d="M325 -11c-153 0 -240 94 -240 219c0 68 33 159 135 192c-83 37 -106 107 -106 166c0 106 74 193 211 193c135 0 211 -87 211 -193c0 -74 -36 -134 -106 -166c103 -35 136 -124 136 -192c0 -125 -86 -219 -241 -219zM325 419c107 0 155 68 155 147c0 76 -48 144 -155 144 c-108 0 -155 -68 -155 -144c0 -79 46 -147 155 -147zM325 39c121 0 181 70 181 169c0 88 -57 166 -181 166c-123 0 -180 -78 -180 -166c0 -99 61 -169 180 -169z" glyph-name="eight.tab" horiz-adv-x="650"/>
<glyph d="M71 0v77h76v-77h-76zM279 0v77h77v-77h-77zM487 0v77h77v-77h-77z" glyph-name="ellipsis" horiz-adv-x="635" unicode="…"/>
<glyph d="M292 -10c-154 0 -243 99 -243 258c0 133 80 255 237 255c144 0 220 -95 220 -216c0 -31 -3 -48 -3 -48h-400c5 -133 78 -201 189 -201c99 0 153 55 165 99h38v-38c-11 -24 -63 -109 -203 -109zM105 284h347c0 108 -61 172 -166 172c-104 0 -169 -65 -181 -172zM170 654 v49h223v-49h-223z" glyph-name="emacron" horiz-adv-x="554" unicode="ē"/>
<glyph d="M71 303v47h629v-47h-629z" glyph-name="emdash" horiz-adv-x="771" unicode="—"/>
<glyph d="M74 353v47h629v-47h-629z" glyph-name="emdash.uc" horiz-adv-x="777"/>
<glyph d="M71 303v47h429v-47h-429z" glyph-name="endash" horiz-adv-x="571" unicode="–"/>
<glyph d="M74 353v47h429v-47h-429z" glyph-name="endash.uc" horiz-adv-x="577"/>
<glyph d="M303 503c133 0 184 -87 184 -215v-377c0 -113 -53 -171 -154 -171v49c69 0 100 42 100 124v363c0 112 -35 180 -140 180c-96 0 -155 -70 -155 -179v-277h-54v493h46l4 -105c21 63 78 115 169 115z" glyph-name="eng" horiz-adv-x="564" unicode="ŋ"/>
<glyph d="M489 -102v-43h-43s-72 5 -72 75c0 22 5 46 29 82c-29 -13 -65 -22 -111 -22c-154 0 -243 99 -243 258c0 133 80 255 237 255c144 0 220 -95 220 -216c0 -31 -3 -48 -3 -48h-400c5 -133 78 -201 189 -201c99 0 153 55 165 99h38v-38c-3 -7 -9 -18 -19 -30 c-37 -54 -52 -87 -52 -123c0 -41 35 -48 65 -48zM105 284h347c0 108 -61 172 -166 172c-104 0 -169 -65 -181 -172z" glyph-name="eogonek" horiz-adv-x="554" unicode="ę"/>
<glyph d="M74 382v47h423v-47h-423zM74 206v48h423v-48h-423z" glyph-name="equal" horiz-adv-x="571" unicode="="/>
<glyph d="M74 332v47h423v-47h-423zM74 156v48h423v-48h-423z" glyph-name="equal.old" horiz-adv-x="571"/>
<glyph d="M88 332v47h423v-47h-423zM88 156v48h423v-48h-423z" glyph-name="equal.oldtab" horiz-adv-x="600"/>
<glyph d="M114 382v47h423v-47h-423zM114 206v48h423v-48h-423z" glyph-name="equal.tab" horiz-adv-x="650"/>
<glyph d="M289 -10c-149 0 -240 108 -240 251s90 249 236 249c70 0 154 -19 190 -111c-12 103 -52 185 -115 241l-162 -86v44l128 69c-49 34 -109 56 -180 65v38h38c69 -13 135 -38 189 -79l121 63v-44l-89 -48c76 -71 125 -181 125 -341c0 -203 -84 -311 -241 -311zM289 37 c133 0 187 103 187 208s-55 198 -190 198c-123 0 -183 -93 -183 -202c0 -111 61 -204 186 -204z" glyph-name="eth" horiz-adv-x="594" unicode="ð"/>
<glyph d="M103 212l-8 538h62l-8 -538h-46zM90 0v77h77v-77h-77z" glyph-name="exclam" horiz-adv-x="257" unicode="!"/>
<glyph d="M99 398l-8 -538h62l-8 538h-46zM86 610v-77h77v77h-77z" glyph-name="exclamdown" horiz-adv-x="249" unicode="¡"/>
<glyph d="M116 538l-8 -538h62l-8 538h-46zM103 750v-77h77v77h-77z" glyph-name="exclamdown.uc" horiz-adv-x="283"/>
<glyph d="M110 0v446h-90v47h90v99c0 120 73 168 151 168c71 0 113 -36 126 -78v-37h-38c-8 41 -41 66 -88 66c-51 0 -97 -29 -97 -117v-101h161v-47h-161v-446h-54z" glyph-name="f" horiz-adv-x="337" unicode="f"/>
<glyph d="M634 -10c-73 0 -147 33 -188 111l-3 -101h-51v684c-15 14 -45 27 -94 27c-70 0 -134 -33 -134 -129v-89h148v-47h-148v-446h-54v446h-90v47h90v87c0 130 93 180 188 180c75 0 122 -22 148 -44v-325c31 60 97 112 188 112c137 0 234 -113 234 -252 c0 -146 -94 -261 -234 -261zM627 37c104 0 187 82 187 214c0 111 -73 205 -187 205c-116 0 -181 -93 -181 -205c0 -166 108 -214 181 -214z" glyph-name="f_b" horiz-adv-x="916"/>
<glyph d="M162 0h-52v446h-90v47h90v81c0 103 49 176 159 176c19 0 49 -3 64 -10v-49c-16 6 -36 10 -62 10c-71 0 -109 -42 -109 -135v-73h228v99c0 120 73 168 151 168c71 0 113 -36 126 -78v-37h-38c-8 41 -41 66 -88 66c-51 0 -97 -29 -97 -117v-101h161v-47h-161v-446h-54v446 h-228v-446z" glyph-name="f_f" horiz-adv-x="617" unicode="ﬀ"/>
<glyph d="M1148 251c0 -146 -94 -261 -234 -261c-73 0 -147 33 -188 111l-3 -101h-51v684c-15 14 -45 27 -94 27c-70 0 -134 -33 -134 -129v-89h148v-47h-148v-446h-54v446h-228v-446h-52v446h-90v47h90v81c0 103 49 176 159 176c19 0 49 -3 64 -10v-49c-16 6 -36 10 -62 10 c-71 0 -109 -42 -109 -135v-73h228v87c0 130 93 180 188 180c75 0 122 -22 148 -44v-325c31 60 97 112 188 112c137 0 234 -113 234 -252zM907 37c104 0 187 82 187 214c0 111 -73 205 -187 205c-116 0 -181 -93 -181 -205c0 -166 108 -214 181 -214z" glyph-name="f_f_b" horiz-adv-x="1196"/>
<glyph d="M162 0h-52v446h-90v47h90v81c0 103 49 176 159 176c19 0 49 -3 64 -10v-49c-16 6 -36 10 -62 10c-71 0 -109 -42 -109 -135v-73h228v87c0 130 93 180 188 180c75 0 122 -22 148 -44v-317c23 58 79 104 165 104c133 0 184 -87 184 -215v-288h-54v276 c0 112 -36 180 -140 180c-97 0 -155 -70 -155 -179v-277h-54v684c-15 14 -45 27 -94 27c-70 0 -134 -33 -134 -129v-89h148v-47h-148v-446h-54v446h-228v-446z" glyph-name="f_f_h" horiz-adv-x="1152"/>
<glyph d="M162 0h-52v446h-90v47h90v81c0 103 49 176 159 176c19 0 49 -3 64 -10v-49c-16 6 -36 10 -62 10c-71 0 -109 -42 -109 -135v-73h228v80c0 130 82 187 180 187c89 0 143 -46 156 -109v-37h-45c-9 59 -48 97 -115 97c-68 0 -122 -42 -122 -136v-82h148v-47h-148v-446h-54 v446h-228v-446zM672 0v493h54v-493h-54z" glyph-name="f_f_i" horiz-adv-x="810" unicode="ﬃ"/>
<glyph d="M162 0h-52v446h-90v47h90v81c0 103 49 176 159 176c19 0 49 -3 64 -10v-49c-16 6 -36 10 -62 10c-71 0 -109 -42 -109 -135v-73h228v80c0 130 82 187 180 187c89 0 143 -46 156 -109v-37h-45c-9 59 -48 97 -115 97c-68 0 -122 -42 -122 -136v-82h148v-47h-148v-446h-54 v446h-228v-446zM607 -260c-70 0 -102 36 -111 65v37h38c2 -26 26 -53 71 -53c46 0 67 32 67 94v617h54v-619c0 -93 -40 -141 -119 -141z" glyph-name="f_f_j" horiz-adv-x="810"/>
<glyph d="M162 0h-52v446h-90v47h90v81c0 103 49 176 159 176c19 0 49 -3 64 -10v-49c-16 6 -36 10 -62 10c-71 0 -109 -42 -109 -135v-73h228v87c0 130 93 180 188 180c75 0 122 -22 148 -44v-451l265 228h36v-35l-235 -199l251 -220v-39h-39l-278 249v-249h-54v684 c-15 14 -45 27 -94 27c-70 0 -134 -33 -134 -129v-89h148v-47h-148v-446h-54v446h-228v-446z" glyph-name="f_f_k" horiz-adv-x="1060"/>
<glyph d="M162 0h-52v446h-90v47h90v81c0 103 49 176 159 176c19 0 49 -3 64 -10v-49c-16 6 -36 10 -62 10c-71 0 -109 -42 -109 -135v-73h228v87c0 130 93 180 188 180c75 0 122 -22 148 -44v-716h-54v684c-15 14 -45 27 -94 27c-70 0 -134 -33 -134 -129v-89h148v-47h-148v-446 h-54v446h-228v-446z" glyph-name="f_f_l" horiz-adv-x="810" unicode="ﬄ"/>
<glyph d="M164 446v-446h-54v446h-90v47h90v87c0 130 93 180 188 180c75 0 122 -22 148 -44v-317c23 58 79 104 165 104c133 0 184 -87 184 -215v-288h-54v276c0 112 -36 180 -140 180c-97 0 -155 -70 -155 -179v-277h-54v684c-15 14 -45 27 -94 27c-70 0 -134 -33 -134 -129v-89 h148v-47h-148z" glyph-name="f_h" horiz-adv-x="872"/>
<glyph d="M110 0v446h-90v47h90v80c0 130 82 187 180 187c89 0 143 -46 156 -109v-37h-45c-9 59 -48 97 -115 97c-68 0 -122 -42 -122 -136v-82h148v-47h-148v-446h-54zM327 -260c-70 0 -102 36 -111 65v37h38c2 -26 26 -53 71 -53c46 0 67 32 67 94v617h54v-619 c0 -93 -40 -141 -119 -141z" glyph-name="f_j" horiz-adv-x="530"/>
<glyph d="M164 446v-446h-54v446h-90v47h90v87c0 130 93 180 188 180c75 0 122 -22 148 -44v-451l265 228h36v-35l-235 -199l251 -220v-39h-39l-278 249v-249h-54v684c-15 14 -45 27 -94 27c-70 0 -134 -33 -134 -129v-89h148v-47h-148z" glyph-name="f_k" horiz-adv-x="780"/>
<glyph d="M231 -158l-156 179v675l156 179h718l156 -179v-675l-156 -179h-718z" glyph-name="fillframe1" unicode=""/>
<glyph d="M590 -157c-138 0 -261 51 -352 136c-102 96 -163 236 -163 381s61 285 163 381c91 85 214 136 352 136s261 -51 352 -136c102 -96 163 -236 163 -381s-61 -285 -163 -381c-91 -85 -214 -136 -352 -136z" glyph-name="fillframeround" unicode=""/>
<glyph d="M280 -9c-164 0 -224 126 -233 176v39h42c9 -64 69 -166 189 -166c113 0 183 75 183 199c0 110 -76 183 -182 183c-67 0 -121 -23 -149 -56l-51 13l42 371h356v-55h-308l-33 -272c28 29 90 48 148 48c120 0 235 -77 235 -232c0 -144 -87 -248 -239 -248z" glyph-name="five" horiz-adv-x="566" unicode="5"/>
<glyph d="M263 -260c-168 0 -216 122 -223 165v38h37c10 -63 56 -156 185 -156c105 0 173 72 173 198c0 111 -76 184 -175 184c-67 0 -116 -27 -144 -62l-44 17l42 376h337v-52h-295l-32 -282c34 34 88 50 141 50c122 0 224 -79 224 -231c0 -141 -81 -245 -226 -245z" glyph-name="five.old" horiz-adv-x="530"/>
<glyph d="M299 -260c-168 0 -216 122 -224 165v38h38c9 -63 56 -156 184 -156c106 0 174 72 174 198c0 111 -76 184 -175 184c-67 0 -116 -27 -145 -62l-44 17l42 376h338v-52h-295l-33 -281c34 33 88 49 142 49c122 0 224 -79 224 -231c0 -141 -81 -245 -226 -245z" glyph-name="five.oldtab" horiz-adv-x="600"/>
<glyph d="M321 -9c-166 0 -227 126 -235 176v39h42c8 -64 69 -166 192 -166c115 0 185 75 185 199c0 110 -76 183 -184 183c-68 0 -124 -23 -152 -56l-51 13l42 371h362v-55h-315l-32 -272c27 29 91 48 151 48c122 0 238 -77 238 -232c0 -144 -88 -248 -243 -248z" glyph-name="five.tab" horiz-adv-x="650"/>
<glyph d="M225 -40l469 830h56l-469 -830h-56zM186 296c-100 0 -138 58 -145 89v36h36c9 -42 38 -81 109 -81c60 0 95 48 95 103c0 62 -38 102 -97 102c-45 0 -80 -19 -94 -54l-39 13l37 246h218v-49h-182l-25 -150c21 25 56 37 90 37c78 0 142 -44 142 -145 c0 -90 -66 -147 -145 -147zM747 -59c-95 1 -154 57 -154 132c0 46 28 101 89 116c-56 25 -67 65 -67 98c0 62 45 117 132 117c85 0 132 -55 132 -117c0 -36 -18 -78 -65 -98c66 -20 87 -70 87 -116c0 -75 -58 -133 -154 -132zM747 208c52 0 84 34 84 77c0 39 -32 75 -84 75 c-53 0 -84 -36 -84 -75c0 -43 30 -77 84 -77zM747 -14c64 0 104 34 104 89c0 49 -37 90 -104 90s-104 -41 -104 -91c0 -54 40 -88 104 -88z" glyph-name="fiveeighths" horiz-adv-x="939" unicode="⅝"/>
<glyph d="M67 -175c-67 0 -100 34 -110 64v38h39c3 -26 27 -53 71 -53c48 0 63 35 74 94l71 417h-84v47h92l27 160c21 118 75 168 154 168c71 0 114 -36 127 -78v-37h-39c-8 41 -40 66 -87 66c-53 0 -86 -32 -101 -117l-27 -162h157v-47h-165l-71 -418c-16 -93 -49 -142 -128 -142z " glyph-name="florin" horiz-adv-x="549" unicode="ƒ"/>
<glyph d="M67 -175c-67 0 -100 34 -110 64v38h39c3 -26 27 -53 71 -53c48 0 63 35 74 94l71 417h-84v47h92l27 160c21 118 75 168 154 168c71 0 114 -36 127 -78v-37h-39c-8 41 -40 66 -87 66c-53 0 -86 -32 -101 -117l-27 -162h157v-47h-165l-71 -418c-16 -93 -49 -142 -128 -142z " glyph-name="florin.old" horiz-adv-x="549"/>
<glyph d="M93 -175c-67 0 -100 34 -110 64v38h39c3 -26 27 -53 71 -53c48 0 63 35 74 94l71 417h-84v47h92l27 160c21 118 75 168 154 168c71 0 114 -36 127 -78v-37h-39c-8 41 -40 66 -87 66c-53 0 -86 -32 -101 -117l-27 -162h157v-47h-165l-71 -418c-16 -93 -49 -142 -128 -142z " glyph-name="florin.oldtab" horiz-adv-x="600"/>
<glyph d="M118 -175c-67 0 -100 34 -110 64v38h39c3 -26 27 -53 71 -53c48 0 63 35 74 94l71 417h-84v47h92l27 160c21 118 75 168 154 168c71 0 114 -36 127 -78v-37h-39c-8 41 -40 66 -87 66c-53 0 -86 -32 -101 -117l-27 -162h157v-47h-165l-71 -418c-16 -93 -49 -142 -128 -142 z" glyph-name="florin.tab" horiz-adv-x="650"/>
<glyph d="M559 206h-101v-216h-59v216h-378v34l390 510h47v-496h101v-48zM399 254v402l-308 -402h308z" glyph-name="four" horiz-adv-x="597" unicode="4"/>
<glyph d="M542 20h-101v-270h-54v270h-356v34l369 451h41v-438h101v-47zM387 67v353l-286 -353h286z" glyph-name="four.old" horiz-adv-x="576"/>
<glyph d="M553 20h-101v-270h-54v270h-354v34l367 451h41v-438h101v-47zM398 67v352l-284 -352h284z" glyph-name="four.oldtab" horiz-adv-x="600"/>
<glyph d="M584 206h-101v-216h-57v216h-377v34l385 512h49v-498h101v-48zM426 254v406l-307 -406h307z" glyph-name="four.tab" horiz-adv-x="650"/>
<glyph d="M4 -40l469 830h56l-469 -830h-56z" glyph-name="fraction" horiz-adv-x="534" unicode="⁄"/>
<glyph d="M286 -260c-158 0 -208 104 -217 136v38h37c16 -57 66 -125 179 -125c120 0 187 72 187 241v77c-40 -83 -113 -117 -188 -117c-136 0 -234 110 -234 258c0 149 102 255 234 255c77 0 152 -36 188 -112l8 102h46v-463c0 -193 -86 -290 -240 -290zM291 37 c87 0 181 64 181 211c0 117 -66 208 -181 208c-113 0 -187 -92 -187 -208c0 -139 94 -211 187 -211z" glyph-name="g" horiz-adv-x="609" unicode="g"/>
<glyph d="M286 -260c-158 0 -208 104 -217 136v38h37c16 -57 66 -125 179 -125c120 0 187 72 187 241v77c-40 -83 -113 -117 -188 -117c-136 0 -234 110 -234 258c0 149 102 255 234 255c77 0 152 -36 188 -112l8 102h46v-463c0 -193 -86 -290 -240 -290zM291 37 c87 0 181 64 181 211c0 117 -66 208 -181 208c-113 0 -187 -92 -187 -208c0 -139 94 -211 187 -211zM299 599c-115 0 -126 78 -126 78v43h43s0 -75 83 -75c85 0 80 75 80 75h42v-43s-10 -78 -122 -78z" glyph-name="gbreve" horiz-adv-x="609" unicode="ğ"/>
<glyph d="M286 -260c-158 0 -208 104 -217 136v38h37c16 -57 66 -125 179 -125c120 0 187 72 187 241v77c-40 -83 -113 -117 -188 -117c-136 0 -234 110 -234 258c0 149 102 255 234 255c77 0 152 -36 188 -112l8 102h46v-463c0 -193 -86 -290 -240 -290zM291 37 c87 0 181 64 181 211c0 117 -66 208 -181 208c-113 0 -187 -92 -187 -208c0 -139 94 -211 187 -211zM389 610l-88 92l-87 -92h-36v36l99 104h49l99 -104v-36h-36z" glyph-name="gcircumflex" horiz-adv-x="609" unicode="ĝ"/>
<glyph d="M286 -260c-158 0 -208 104 -217 136v38h37c16 -57 66 -125 179 -125c120 0 187 72 187 241v77c-40 -83 -113 -117 -188 -117c-136 0 -234 110 -234 258c0 149 102 255 234 255c77 0 152 -36 188 -112l8 102h46v-463c0 -193 -86 -290 -240 -290zM291 37 c87 0 181 64 181 211c0 117 -66 208 -181 208c-113 0 -187 -92 -187 -208c0 -139 94 -211 187 -211zM331 754v-139h-60v58l25 81h35z" glyph-name="gcommaaccent" horiz-adv-x="609" unicode="ģ"/>
<glyph d="M286 -260c-158 0 -208 104 -217 136v38h37c16 -57 66 -125 179 -125c120 0 187 72 187 241v77c-40 -83 -113 -117 -188 -117c-136 0 -234 110 -234 258c0 149 102 255 234 255c77 0 152 -36 188 -112l8 102h46v-463c0 -193 -86 -290 -240 -290zM291 37 c87 0 181 64 181 211c0 117 -66 208 -181 208c-113 0 -187 -92 -187 -208c0 -139 94 -211 187 -211zM265 646v74h73v-74h-73z" glyph-name="gdotaccent" horiz-adv-x="609" unicode="ġ"/>
<glyph d="M311 -10c-38 0 -62 4 -89 10v48c27 -7 52 -11 85 -11c91 0 152 46 152 154c0 75 -47 158 -216 163v48c114 8 173 81 173 173c0 85 -52 136 -138 136c-97 0 -142 -65 -142 -171v-540h-54v538c0 145 73 222 197 222c120 0 192 -68 192 -183c0 -96 -49 -164 -130 -191 c119 -24 173 -100 173 -198c0 -101 -54 -198 -203 -198z" glyph-name="germandbls" horiz-adv-x="561" unicode="ß"/>
<glyph d="M174 610l-99 104v36h45l99 -104v-36h-45z" glyph-name="grave" horiz-adv-x="294" unicode="`"/>
<glyph d="M211 805l-113 104v36h45l113 -104v-36h-45z" glyph-name="grave.uc" horiz-adv-x="360"/>
<glyph d="M118 90h-38v34l291 206l-291 202v38h38l312 -219v-38z" glyph-name="greater" horiz-adv-x="480" unicode="&gt;"/>
<glyph d="M95 40h-38v34l292 206l-292 202v38h38l313 -219v-38z" glyph-name="greater.old" horiz-adv-x="446"/>
<glyph d="M172 40h-38v34l292 206l-292 202v38h38l313 -219v-38z" glyph-name="greater.oldtab" horiz-adv-x="600"/>
<glyph d="M203 90h-38v34l291 206l-291 202v38h38l312 -219v-38z" glyph-name="greater.tab" horiz-adv-x="650"/>
<glyph d="M121 180h-38v34l291 196l-291 192v38h38l313 -209v-38zM83 69v47h342v-47h-342z" glyph-name="greaterequal" horiz-adv-x="500" unicode="≥"/>
<glyph d="M122 130h-38v34l291 189l-291 186v37h38l312 -202v-38zM81 22v47h345v-47h-345z" glyph-name="greaterequal.old" horiz-adv-x="495"/>
<glyph d="M174 130h-38v34l291 189l-291 186v37h38l312 -202v-38zM133 22v47h345v-47h-345z" glyph-name="greaterequal.oldtab" horiz-adv-x="600"/>
<glyph d="M196 180h-38v34l291 196l-291 192v38h38l313 -209v-38zM158 69v47h342v-47h-342z" glyph-name="greaterequal.tab" horiz-adv-x="650"/>
<glyph d="M272 60h-38l-191 210l191 210h38v-35l-160 -173l160 -174v-38zM468 60h-38l-191 210l191 210h38v-35l-160 -173l160 -174v-38z" glyph-name="guillemotleft" horiz-adv-x="527" unicode="«"/>
<glyph d="M283 110h-38l-191 210l191 210h38v-35l-160 -173l160 -174v-38zM479 110h-38l-191 210l191 210h38v-35l-160 -173l160 -174v-38z" glyph-name="guillemotleft.uc" horiz-adv-x="549"/>
<glyph d="M97 60h-38v34l160 175l-160 173v38h38l191 -210zM293 60h-38v34l160 175l-160 173v38h38l191 -210z" glyph-name="guillemotright" horiz-adv-x="527" unicode="»"/>
<glyph d="M108 110h-38v34l160 175l-160 173v38h38l191 -210zM304 110h-38v34l160 175l-160 173v38h38l191 -210z" glyph-name="guillemotright.uc" horiz-adv-x="549"/>
<glyph d="M234 60l-191 210l191 210h38v-34l-160 -174l160 -174v-38h-38z" glyph-name="guilsinglleft" horiz-adv-x="331" unicode="‹"/>
<glyph d="M245 110l-191 210l191 210h38v-34l-160 -174l160 -174v-38h-38z" glyph-name="guilsinglleft.uc" horiz-adv-x="353"/>
<glyph d="M59 60v34l160 175l-160 173v38h38l191 -210l-191 -210h-38z" glyph-name="guilsinglright" horiz-adv-x="331" unicode="›"/>
<glyph d="M70 110v34l160 175l-160 173v38h38l191 -210l-191 -210h-38z" glyph-name="guilsinglright.uc" horiz-adv-x="353"/>
<glyph d="M82 0v750h54v-351c23 58 79 104 165 104c133 0 184 -87 184 -215v-288h-54v276c0 112 -35 180 -140 180c-96 0 -155 -70 -155 -179v-277h-54z" glyph-name="h" horiz-adv-x="562" unicode="h"/>
<glyph d="M136 277v-277h-54v625h-85v47h85v78h54v-78h134v-47h-134v-226c23 58 79 104 165 104c133 0 184 -87 184 -215v-288h-54v276c0 112 -35 180 -140 180c-96 0 -155 -70 -155 -179z" glyph-name="hbar" horiz-adv-x="562" unicode="ħ"/>
<glyph d="M82 0v750h54v-351c23 58 79 104 165 104c133 0 184 -87 184 -215v-288h-54v276c0 112 -35 180 -140 180c-96 0 -155 -70 -155 -179v-277h-54zM366 815l-88 80l-87 -80h-36v36l99 90h49l99 -90v-36h-36z" glyph-name="hcircumflex" horiz-adv-x="562" unicode="ĥ"/>
<glyph d="M75 610v36l102 104h39v-36l-102 -104h-39zM233 610v36l103 104h39v-36l-103 -104h-39z" glyph-name="hungarumlaut" horiz-adv-x="450" unicode="˝"/>
<glyph d="M106 805v36l112 104h40v-36l-113 -104h-39zM278 805v36l112 104h40v-36l-113 -104h-39z" glyph-name="hungarumlaut.uc" horiz-adv-x="535"/>
<glyph d="M71 303v47h270v-47h-270z" glyph-name="hyphen" horiz-adv-x="412" unicode="-"/>
<glyph d="M74 353v47h270v-47h-270z" glyph-name="hyphen.uc" horiz-adv-x="418"/>
<glyph d="M84 0v493h54v-493h-54zM75 646v74h73v-74h-73z" glyph-name="i" horiz-adv-x="222" unicode="i"/>
<glyph d="M84 0v493h54v-493h-54zM89 610v36l99 104h45v-36l-99 -104h-45z" glyph-name="iacute" horiz-adv-x="221" unicode="í"/>
<glyph d="M83 0v493h54v-493h-54zM112 599c-115 0 -126 78 -126 78v43h43s0 -75 83 -75c85 0 80 75 80 75h42v-43s-10 -78 -122 -78z" glyph-name="ibreve" horiz-adv-x="220" unicode="ĭ"/>
<glyph d="M83 0v493h54v-493h-54zM198 610l-88 92l-87 -92h-36v36l99 104h49l99 -104v-36h-36z" glyph-name="icircumflex" horiz-adv-x="220" unicode="î"/>
<glyph d="M83 0v493h54v-493h-54zM-20 646v74h73v-74h-73zM168 646v74h74v-74h-74z" glyph-name="idieresis" horiz-adv-x="220" unicode="ï"/>
<glyph d="M84 0v493h54v-493h-54zM75 646v74h73v-74h-73z" glyph-name="idotaccent" horiz-adv-x="222"/>
<glyph d="M83 0v493h54v-493h-54zM89 610l-99 104v36h45l99 -104v-36h-45z" glyph-name="igrave" horiz-adv-x="221" unicode="ì"/>
<glyph d="M84 0v493h54v-493h-54zM75 646v74h73v-74h-73zM248 -260c-70 0 -102 36 -111 65v37h38c2 -26 27 -53 71 -53c46 0 67 32 67 94v610h54v-612c0 -93 -40 -141 -119 -141zM304 646v74h73v-74h-73z" glyph-name="ij" horiz-adv-x="451" unicode="ĳ"/>
<glyph d="M83 0v493h54v-493h-54zM-1 654v49h223v-49h-223z" glyph-name="imacron" horiz-adv-x="220" unicode="ī"/>
<glyph d="M75 646v74h73v-74h-73zM51 -70c0 29 19 58 44 70h-11v493h54v-493s-37 -9 -37 -54c0 -36 31 -48 51 -48v-43h-42s-59 11 -59 75z" glyph-name="iogonek" horiz-adv-x="222" unicode="į"/>
<glyph d="M83 0v493h54v-493h-54zM181 630c-63 0 -71 53 -115 53c-20 0 -40 -16 -41 -48h-43c0 54 29 94 80 94c62 0 70 -53 111 -53c19 0 34 9 35 48h43c0 -62 -24 -94 -70 -94z" glyph-name="itilde" horiz-adv-x="220" unicode="ĩ"/>
<glyph d="M19 -260c-70 0 -102 36 -111 65v37h38c2 -26 27 -53 71 -53c46 0 67 32 67 94v610h54v-612c0 -93 -40 -141 -119 -141zM75 646v74h73v-74h-73z" glyph-name="j" horiz-adv-x="222" unicode="j"/>
<glyph d="M18 -260c-70 0 -102 36 -111 65v37h38c2 -26 27 -53 71 -53c46 0 67 32 67 94v610h54v-612c0 -93 -40 -141 -119 -141zM198 610l-88 92l-87 -92h-36v36l99 104h49l99 -104v-36h-36z" glyph-name="jcircumflex" horiz-adv-x="220" unicode="ĵ"/>
<glyph d="M82 0v750h54v-485l265 228h36v-35l-235 -199l251 -220v-39h-39l-278 249v-249h-54z" glyph-name="k" horiz-adv-x="470" unicode="k"/>
<glyph d="M82 0v750h54v-485l265 228h36v-35l-235 -199l251 -220v-39h-39l-278 249v-249h-54zM226 -191v139h60v-58l-25 -81h-35z" glyph-name="kcommaaccent" horiz-adv-x="470" unicode="ķ"/>
<glyph d="M84 0v750h54v-750h-54z" glyph-name="l" horiz-adv-x="222" unicode="l"/>
<glyph d="M84 0v750h54v-750h-54zM87 824v36l112 104h46v-36l-113 -104h-45z" glyph-name="lacute" horiz-adv-x="222" unicode="ĺ"/>
<glyph d="M84 0v750h54v-750h-54zM195 602v148h61v-61l-25 -87h-36z" glyph-name="lcaron" horiz-adv-x="225" unicode="ľ"/>
<glyph d="M84 0v750h54v-750h-54zM82 -191v139h60v-58l-25 -81h-35z" glyph-name="lcommaaccent" horiz-adv-x="222" unicode="ļ"/>
<glyph d="M84 0v750h54v-750h-54zM261 253v71h71v-71h-71z" glyph-name="ldot" horiz-adv-x="373" unicode="ŀ"/>
<glyph d="M400 90h-37l-313 219v38l313 223h37v-34l-291 -206l291 -202v-38z" glyph-name="less" horiz-adv-x="480" unicode="&lt;"/>
<glyph d="M388 40h-37l-313 219v38l313 223h37v-34l-291 -206l291 -202v-38z" glyph-name="less.old" horiz-adv-x="444"/>
<glyph d="M466 40h-37l-313 219v38l313 223h37v-34l-291 -206l291 -202v-38z" glyph-name="less.oldtab" horiz-adv-x="600"/>
<glyph d="M485 90h-37l-313 219v38l313 223h37v-34l-291 -206l291 -202v-38z" glyph-name="less.tab" horiz-adv-x="650"/>
<glyph d="M416 180h-37l-313 209v38l313 213h37v-34l-290 -196l290 -192v-38zM75 69v47h341v-47h-341z" glyph-name="lessequal" horiz-adv-x="499" unicode="≤"/>
<glyph d="M410 123h-38l-312 202v39l312 205h38v-34l-291 -189l291 -185v-38zM68 15v48h342v-48h-342z" glyph-name="lessequal.old" horiz-adv-x="492"/>
<glyph d="M464 123h-38l-312 202v39l312 205h38v-34l-291 -189l291 -185v-38zM122 15v48h342v-48h-342z" glyph-name="lessequal.oldtab" horiz-adv-x="600"/>
<glyph d="M492 180h-37l-313 209v38l313 213h37v-34l-290 -196l290 -192v-38zM151 69v47h341v-47h-341z" glyph-name="lessequal.tab" horiz-adv-x="650"/>
<glyph d="M247 342l-90 -47v-295h-54v267l-90 -47v51l90 47v432h54v-404l90 47v-51z" glyph-name="lslash" horiz-adv-x="263" unicode="ł"/>
<glyph d="M84 0v493h46l5 -82c25 55 73 92 141 92c81 0 119 -38 140 -98c28 58 74 98 154 98c110 0 159 -78 159 -189v-314h-54v313c0 86 -33 143 -118 143c-72 0 -124 -51 -124 -147v-309h-54v308c0 92 -35 148 -113 148c-76 0 -128 -61 -128 -152v-304h-54z" glyph-name="m" horiz-adv-x="807" unicode="m"/>
<glyph d="M75 654v49h223v-49h-223z" glyph-name="macron" horiz-adv-x="373" unicode="¯"/>
<glyph d="M106 847v52h243v-52h-243z" glyph-name="macron.uc" horiz-adv-x="455"/>
<glyph d="M590 148l-109 189l-45 -128h37v-57h-218v57h42l156 410l137 -253l137 253l156 -410h41v-57h-217v57h37l-45 128z" glyph-name="metrologo"/>
<glyph d="M74 325v47h406v-47h-406z" glyph-name="minus" horiz-adv-x="554" unicode="−"/>
<glyph d="M74 275v47h406v-47h-406z" glyph-name="minus.old" horiz-adv-x="554"/>
<glyph d="M97 275v47h406v-47h-406z" glyph-name="minus.oldtab" horiz-adv-x="600"/>
<glyph d="M122 325v47h406v-47h-406z" glyph-name="minus.tab" horiz-adv-x="650"/>
<glyph d="M72 505l6 245h72l-35 -245h-43z" glyph-name="minute" horiz-adv-x="205" unicode="′"/>
<glyph d="M406 129l-152 154l-154 -154l-34 35l154 153l-154 152l35 35l153 -154l152 153l34 -35l-153 -151l154 -153z" glyph-name="multiply" horiz-adv-x="507" unicode="×"/>
<glyph d="M405 79l-152 154l-154 -154l-34 35l154 153l-154 152l35 35l153 -154l152 153l34 -35l-153 -151l154 -153z" glyph-name="multiply.old" horiz-adv-x="505"/>
<glyph d="M453 79l-152 154l-154 -154l-34 35l154 153l-154 152l35 35l153 -154l152 153l34 -35l-153 -151l154 -153z" glyph-name="multiply.oldtab" horiz-adv-x="600"/>
<glyph d="M477 129l-152 154l-154 -154l-34 35l154 153l-154 152l35 35l153 -154l152 153l34 -35l-153 -151l154 -153z" glyph-name="multiply.tab" horiz-adv-x="650"/>
<glyph d="M84 0v493h46l4 -105c21 63 78 115 169 115c133 0 184 -87 184 -215v-288h-54v276c0 112 -35 180 -140 180c-96 0 -155 -70 -155 -179v-277h-54z" glyph-name="n" horiz-adv-x="564" unicode="n"/>
<glyph d="M84 0v493h46l4 -105c21 63 78 115 169 115c133 0 184 -87 184 -215v-288h-54v276c0 112 -35 180 -140 180c-96 0 -155 -70 -155 -179v-277h-54zM256 610v36l99 104h45v-36l-99 -104h-45z" glyph-name="nacute" horiz-adv-x="564" unicode="ń"/>
<glyph d="M84 0v493h46l4 -105c21 63 78 115 169 115c133 0 184 -87 184 -215v-288h-54v276c0 112 -35 180 -140 180c-96 0 -155 -70 -155 -179v-277h-54zM256 610v36l76 134h45v-36l-76 -134h-45z" glyph-name="nacute.pl" horiz-adv-x="564"/>
<glyph d="M84 602v148h61v-61l-25 -87h-36zM84 0v493h46l4 -105c21 63 78 115 169 115c133 0 184 -87 184 -215v-288h-54v276c0 112 -35 180 -140 180c-96 0 -155 -70 -155 -179v-277h-54z" glyph-name="napostrophe" horiz-adv-x="564" unicode="ŉ"/>
<glyph d="M84 0v493h46l4 -105c21 63 78 115 169 115c133 0 184 -87 184 -215v-288h-54v276c0 112 -35 180 -140 180c-96 0 -155 -70 -155 -179v-277h-54zM306 610h-49l-100 104v36h36l88 -92l87 92h36v-36z" glyph-name="ncaron" horiz-adv-x="564" unicode="ň"/>
<glyph d="M84 0v493h46l4 -105c21 63 78 115 169 115c133 0 184 -87 184 -215v-288h-54v276c0 112 -35 180 -140 180c-96 0 -155 -70 -155 -179v-277h-54zM255 -191v139h60v-58l-25 -81h-35z" glyph-name="ncommaaccent" horiz-adv-x="564" unicode="ņ"/>
<glyph d="M167 -10v35c15 19 115 133 127 148c56 63 112 129 136 175c-41 -52 -101 -70 -148 -70c-165 0 -246 111 -246 244s93 238 246 238c161 0 247 -106 247 -238c0 -134 -63 -224 -185 -369c-13 -17 -118 -138 -138 -163h-39zM281 327c114 0 190 78 190 195s-66 189 -189 189 c-116 0 -188 -72 -188 -189c0 -118 67 -195 187 -195z" glyph-name="nine" horiz-adv-x="580" unicode="9"/>
<glyph d="M203 -267v38c15 18 103 133 115 149c39 50 102 128 126 165c-35 -44 -100 -64 -147 -64c-163 0 -242 107 -242 240s87 242 243 242c163 0 242 -110 242 -242c0 -117 -40 -186 -185 -379c-13 -18 -93 -122 -114 -149h-38zM297 69c113 0 189 80 189 192 c0 111 -64 195 -188 195c-116 0 -189 -84 -189 -195c0 -112 68 -192 188 -192z" glyph-name="nine.old" horiz-adv-x="585"/>
<glyph d="M211 -267v38c15 18 103 133 115 149c39 50 102 128 126 165c-35 -44 -100 -64 -147 -64c-163 0 -242 107 -242 240s87 242 243 242c163 0 242 -110 242 -242c0 -117 -40 -186 -185 -379c-13 -18 -93 -122 -114 -149h-38zM305 69c113 0 189 80 189 192 c0 111 -64 195 -188 195c-116 0 -189 -84 -189 -195c0 -112 68 -192 188 -192z" glyph-name="nine.oldtab" horiz-adv-x="600"/>
<glyph d="M196 -9v35l113 127c67 73 132 147 161 198c-43 -54 -106 -73 -158 -73c-162 0 -244 111 -244 244s94 238 249 238c163 0 250 -106 250 -238c0 -138 -66 -229 -210 -393l-123 -138h-38zM316 327c116 0 193 82 193 195c0 114 -67 189 -192 189c-118 0 -191 -76 -191 -189 c0 -114 68 -195 190 -195z" glyph-name="nine.tab" horiz-adv-x="650"/>
<glyph d="M231 -158l-156 179v675l156 179h718l156 -179v-675l-156 -179h-718zM255 805l-31 -36l779 -767l32 37v639l-110 127h-670zM255 -88h670l33 38l-779 767l-34 -39v-639z" glyph-name="noframe1" unicode=""/>
<glyph d="M497 206h-236l-95 -174h-55l96 174h-133v48h159l70 128h-229v47h255l88 160h54l-88 -160h114v-47h-139l-70 -128h209v-48z" glyph-name="notequal" horiz-adv-x="571" unicode="≠"/>
<glyph d="M466 159h-235l-88 -157h-55l88 157h-133v48h161l68 122h-229v47h256l80 143h55l-79 -143h111v-47h-139l-68 -122h207v-48z" glyph-name="notequal.old" horiz-adv-x="509"/>
<glyph d="M512 159h-235l-88 -157h-55l88 157h-133v48h161l68 122h-229v47h256l80 143h55l-79 -143h111v-47h-139l-68 -122h207v-48z" glyph-name="notequal.oldtab" horiz-adv-x="600"/>
<glyph d="M537 206h-236l-95 -174h-55l96 174h-133v48h159l70 128h-229v47h255l88 160h54l-88 -160h114v-47h-139l-70 -128h209v-48z" glyph-name="notequal.tab" horiz-adv-x="650"/>
<glyph d="M84 0v493h46l4 -105c21 63 78 115 169 115c133 0 184 -87 184 -215v-288h-54v276c0 112 -35 180 -140 180c-96 0 -155 -70 -155 -179v-277h-54zM346 630c-63 0 -71 53 -115 53c-20 0 -40 -16 -41 -48h-43c0 54 29 94 80 94c62 0 70 -53 111 -53c19 0 34 9 35 48h43 c0 -62 -24 -94 -70 -94z" glyph-name="ntilde" horiz-adv-x="564" unicode="ñ"/>
<glyph d="M333 0l30 204h-173l-30 -204h-54l30 204h-93v48h100l33 222h-103v48h110l34 228h54l-33 -228h173l33 228h54l-33 -228h97v-48h-105l-32 -222h107v-48h-115l-30 -204h-54zM371 252l32 222h-173l-32 -222h173z" glyph-name="numbersign" horiz-adv-x="606" unicode="#"/>
<glyph d="M314 0l31 174h-152l-31 -174h-52l30 174h-93v48h103l31 182h-104v48h113l31 178h52l-31 -178h152l31 178h53l-31 -178h95v-48h-105l-31 -182h106v-48h-115l-30 -174h-53zM354 222l31 182h-152l-31 -182h152z" glyph-name="numbersign.old" horiz-adv-x="592"/>
<glyph d="M318 0l30 174h-152l-30 -174h-52l30 174h-93v48h102l31 182h-103v48h113l31 178h52l-31 -178h152l31 178h52l-31 -178h95v-48h-104l-31 -182h105v-48h-114l-31 -174h-52zM358 222l31 182h-152l-31 -182h152z" glyph-name="numbersign.oldtab" horiz-adv-x="600"/>
<glyph d="M329 0l30 204h-171l-29 -204h-54l30 204h-92v48h100l31 222h-101v48h109l33 228h54l-34 -228h171l33 228h54l-34 -228h97v-48h-104l-32 -222h106v-48h-113l-30 -204h-54zM367 252l31 222h-170l-32 -222h171z" glyph-name="numbersign.tab" horiz-adv-x="600"/>
<glyph d="M288 -10c-146 0 -240 113 -240 256s94 257 240 257c145 0 240 -112 240 -255s-95 -258 -240 -258zM288 37c123 0 186 103 186 211c0 106 -63 208 -187 208c-122 0 -185 -102 -185 -210c0 -107 63 -209 186 -209z" glyph-name="o" horiz-adv-x="577" unicode="o"/>
<glyph d="M260 610v36l99 104h45v-36l-99 -104h-45zM288 -10c-146 0 -240 113 -240 256s94 257 240 257c145 0 240 -112 240 -255s-95 -258 -240 -258zM288 37c123 0 186 103 186 211c0 106 -63 208 -187 208c-122 0 -185 -102 -185 -210c0 -107 63 -209 186 -209z" glyph-name="oacute" horiz-adv-x="577" unicode="ó"/>
<glyph d="M264 610v36l76 134h45v-36l-76 -134h-45zM288 -10c-146 0 -240 113 -240 256s94 257 240 257c145 0 240 -112 240 -255s-95 -258 -240 -258zM288 37c123 0 186 103 186 211c0 106 -63 208 -187 208c-122 0 -185 -102 -185 -210c0 -107 63 -209 186 -209z" glyph-name="oacute.pl" horiz-adv-x="577"/>
<glyph d="M288 -10c-146 0 -240 113 -240 256s94 257 240 257c145 0 240 -112 240 -255s-95 -258 -240 -258zM288 37c123 0 186 103 186 211c0 106 -63 208 -187 208c-122 0 -185 -102 -185 -210c0 -107 63 -209 186 -209zM285 599c-115 0 -126 78 -126 78v43h43s0 -75 83 -75 c85 0 80 75 80 75h42v-43s-10 -78 -122 -78z" glyph-name="obreve" horiz-adv-x="577" unicode="ŏ"/>
<glyph d="M377 610l-88 92l-87 -92h-36v36l99 104h49l99 -104v-36h-36zM288 -10c-146 0 -240 113 -240 256s94 257 240 257c145 0 240 -112 240 -255s-95 -258 -240 -258zM288 37c123 0 186 103 186 211c0 106 -63 208 -187 208c-122 0 -185 -102 -185 -210 c0 -107 63 -209 186 -209z" glyph-name="ocircumflex" horiz-adv-x="577" unicode="ô"/>
<glyph d="M158 646v74h73v-74h-73zM346 646v74h74v-74h-74zM288 -10c-146 0 -240 113 -240 256s94 257 240 257c145 0 240 -112 240 -255s-95 -258 -240 -258zM288 37c123 0 186 103 186 211c0 106 -63 208 -187 208c-122 0 -185 -102 -185 -210c0 -107 63 -209 186 -209z" glyph-name="odieresis" horiz-adv-x="577" unicode="ö"/>
<glyph d="M718 -10c-107 0 -184 50 -218 135c-37 -80 -113 -135 -212 -135c-146 0 -240 113 -240 256s94 257 240 257c100 0 177 -55 213 -137c33 79 104 137 211 137c144 0 220 -95 220 -216c0 -31 -3 -48 -3 -48h-400c5 -133 78 -201 189 -201c99 0 153 55 165 99h37v-38 c-10 -24 -62 -109 -202 -109zM288 37c123 0 186 103 186 211c0 106 -63 208 -187 208c-122 0 -185 -102 -185 -210c0 -107 63 -209 186 -209zM531 284h347c0 108 -62 172 -166 172s-169 -65 -181 -172z" glyph-name="oe" horiz-adv-x="979" unicode="œ"/>
<glyph d="M148 -145c0 0 -59 11 -59 75c0 29 19 58 44 70h43s-37 -9 -37 -54c0 -36 31 -48 51 -48v-43h-42z" glyph-name="ogonek" horiz-adv-x="261" unicode="˛"/>
<glyph d="M288 -10c-146 0 -240 113 -240 256s94 257 240 257c145 0 240 -112 240 -255s-95 -258 -240 -258zM288 37c123 0 186 103 186 211c0 106 -63 208 -187 208c-122 0 -185 -102 -185 -210c0 -107 63 -209 186 -209zM265 610l-99 104v36h45l99 -104v-36h-45z" glyph-name="ograve" horiz-adv-x="577" unicode="ò"/>
<glyph d="M191 610v36l102 104h39v-36l-102 -104h-39zM349 610v36l103 104h39v-36l-103 -104h-39zM288 -10c-146 0 -240 113 -240 256s94 257 240 257c145 0 240 -112 240 -255s-95 -258 -240 -258zM288 37c123 0 186 103 186 211c0 106 -63 208 -187 208 c-122 0 -185 -102 -185 -210c0 -107 63 -209 186 -209z" glyph-name="ohungarumlaut" horiz-adv-x="577" unicode="ő"/>
<glyph d="M288 -10c-146 0 -240 113 -240 256s94 257 240 257c145 0 240 -112 240 -255s-95 -258 -240 -258zM288 37c123 0 186 103 186 211c0 106 -63 208 -187 208c-122 0 -185 -102 -185 -210c0 -107 63 -209 186 -209zM176 654v49h223v-49h-223z" glyph-name="omacron" horiz-adv-x="577" unicode="ō"/>
<glyph d="M187 0v679l-128 -107h-36v36l173 142h49v-750h-58z" glyph-name="one" horiz-adv-x="355" unicode="1"/>
<glyph d="M196 0v424l-126 -97h-37v38l173 135h44v-500h-54z" glyph-name="one.old" horiz-adv-x="351"/>
<glyph d="M496 0h-354v52h158v372l-126 -97h-37v38l173 135h44v-448h142v-52z" glyph-name="one.oldtab" horiz-adv-x="600"/>
<glyph d="M549 0h-419v55h184v624l-128 -107h-35v35l174 143h48v-695h176v-55z" glyph-name="one.tab" horiz-adv-x="650"/>
<glyph d="M162 -40l469 830h57l-469 -830h-57zM225 300h-50v383l-107 -88h-33v33l149 122h41v-450zM685 -59c-95 1 -154 57 -154 132c0 46 28 101 89 116c-56 25 -67 65 -67 98c0 62 45 117 132 117c85 0 132 -55 132 -117c0 -36 -18 -78 -65 -98c66 -20 87 -70 87 -116 c0 -75 -59 -133 -154 -132zM685 208c52 0 84 34 84 77c0 39 -32 75 -84 75c-53 0 -84 -36 -84 -75c0 -43 30 -77 84 -77zM685 -14c64 0 104 34 104 89c0 49 -37 90 -104 90s-104 -41 -104 -91c0 -54 40 -88 104 -88z" glyph-name="oneeighth" horiz-adv-x="882" unicode="⅛"/>
<glyph d="M162 -40l469 830h57l-469 -830h-57zM175 300v383l-107 -88h-33v33l149 122h41v-450h-50zM840 -55h-284v41l127 117c72 66 100 112 100 163c0 56 -33 91 -91 91c-72 0 -94 -52 -101 -90h-36v36c5 7 22 98 139 98c86 0 138 -48 138 -131c0 -73 -41 -127 -114 -195l-89 -81 h211v-49z" glyph-name="onehalf" horiz-adv-x="885" unicode="½"/>
<glyph d="M162 -40l469 830h57l-469 -830h-57zM225 300h-50v383l-107 -88h-33v33l149 122h41v-450zM804 69h-67v-124h-51v124h-225v23l218 307h58v-285h67v-45zM686 114v220l-156 -220h156z" glyph-name="onequarter" horiz-adv-x="842" unicode="¼"/>
<glyph d="M162 -40l469 830h57l-469 -830h-57zM175 300v383l-107 -88h-33v33l149 122h41v-450h-50zM688 -60c-115 0 -151 72 -158 102v36h36c6 -43 43 -94 120 -94c60 0 104 27 104 85c0 35 -23 83 -104 83h-47v44h45c68 0 83 46 83 82c0 52 -35 79 -87 78 c-75 -1 -102 -50 -108 -90h-36v36c8 34 45 98 147 98c80 0 134 -39 134 -118c0 -44 -23 -88 -77 -105c69 -10 100 -59 100 -109c0 -69 -47 -128 -152 -128z" glyph-name="onethird" horiz-adv-x="882" unicode="⅓"/>
<glyph d="M194 304c-91 0 -140 50 -140 129c0 74 56 134 178 134c55 0 102 -12 102 -12v48c0 66 -34 112 -108 112c-105 0 -113 -87 -113 -87h-37v37s24 96 153 96c87 0 157 -38 157 -157v-291h-42l-6 77c-22 -46 -68 -86 -144 -86zM206 348c72 0 128 55 128 125v40s-43 11 -102 11 c-80 0 -127 -36 -127 -92c0 -53 33 -84 101 -84z" glyph-name="ordfeminine" horiz-adv-x="463" unicode="ª"/>
<glyph d="M259 304c-134 0 -211 103 -211 229s77 227 211 227c132 0 209 -101 209 -227s-77 -229 -209 -229zM259 349c99 0 157 72 157 184c0 110 -58 182 -157 182c-100 0 -159 -72 -159 -182c0 -112 59 -184 159 -184z" glyph-name="ordmasculine" horiz-adv-x="516" unicode="º"/>
<glyph d="M288 -10c-48 0 -91 13 -126 36l-60 -86h-56l79 113c-49 46 -77 115 -77 193c0 143 94 257 240 257c49 0 91 -13 126 -35l60 85h56l-79 -112c49 -47 77 -116 77 -193c0 -143 -95 -258 -240 -258zM102 246c0 -56 18 -111 53 -150l231 332c-26 17 -60 28 -99 28 c-122 0 -185 -102 -185 -210zM288 37c123 0 186 103 186 211c0 56 -18 110 -52 149l-232 -331c26 -18 59 -29 98 -29z" glyph-name="oslash" horiz-adv-x="577" unicode="ø"/>
<glyph d="M288 -10c-48 0 -91 13 -126 36l-60 -86h-56l79 113c-49 46 -77 115 -77 193c0 143 94 257 240 257c49 0 91 -13 126 -35l60 85h56l-79 -112c49 -47 77 -116 77 -193c0 -143 -95 -258 -240 -258zM102 246c0 -56 18 -111 53 -150l231 332c-26 17 -60 28 -99 28 c-122 0 -185 -102 -185 -210zM288 37c123 0 186 103 186 211c0 56 -18 110 -52 149l-232 -331c26 -18 59 -29 98 -29zM265 610v36l99 104h45v-36l-99 -104h-45z" glyph-name="oslashacute" horiz-adv-x="577" unicode="ǿ"/>
<glyph d="M351 630c-63 0 -71 53 -115 53c-20 0 -40 -16 -41 -48h-43c0 54 29 94 80 94c62 0 70 -53 111 -53c19 0 34 9 35 48h43c0 -62 -24 -94 -70 -94zM288 -10c-146 0 -240 113 -240 256s94 257 240 257c145 0 240 -112 240 -255s-95 -258 -240 -258zM288 37 c123 0 186 103 186 211c0 106 -63 208 -187 208c-122 0 -185 -102 -185 -210c0 -107 63 -209 186 -209z" glyph-name="otilde" horiz-adv-x="577" unicode="õ"/>
<glyph d="M84 -250v743h46l8 -103c31 61 97 113 188 113c137 0 234 -113 234 -252c0 -146 -94 -261 -234 -261c-73 0 -147 33 -188 111v-351h-54zM320 37c103 0 186 82 186 214c0 111 -73 205 -186 205c-117 0 -182 -93 -182 -205c0 -166 109 -214 182 -214z" glyph-name="p" horiz-adv-x="608" unicode="p"/>
<glyph d="M263 -96v463h-20c-122 0 -207 70 -207 190c0 113 69 193 222 193h213v-846h-52v797h-104v-797h-52z" glyph-name="paragraph" horiz-adv-x="587" unicode="¶"/>
<glyph d="M349 -230c-185 63 -300 241 -300 498s115 435 300 498v-49c-124 -58 -241 -209 -241 -449s124 -398 241 -449v-49z" glyph-name="parenleft" horiz-adv-x="364" unicode="("/>
<glyph d="M349 -230c-185 63 -300 241 -300 498s115 435 300 498v-49c-124 -58 -241 -209 -241 -449s124 -398 241 -449v-49z" glyph-name="parenleft.old" horiz-adv-x="364"/>
<glyph d="M467 -230c-185 63 -300 241 -300 498s115 435 300 498v-49c-124 -58 -241 -209 -241 -449s124 -398 241 -449v-49z" glyph-name="parenleft.oldtab" horiz-adv-x="600"/>
<glyph d="M491 -150c-191 65 -300 226 -300 468s116 406 300 468v-49c-122 -57 -241 -195 -241 -419s125 -368 241 -419v-49z" glyph-name="parenleft.tab" horiz-adv-x="650"/>
<glyph d="M354 -140c-185 63 -300 224 -300 478s115 415 300 478v-49c-124 -58 -241 -192 -241 -429s124 -378 241 -429v-49z" glyph-name="parenleft.uc" horiz-adv-x="384"/>
<glyph d="M15 -230v49c124 58 241 209 241 449s-116 391 -241 449v49c185 -63 300 -241 300 -498s-115 -435 -300 -498z" glyph-name="parenright" horiz-adv-x="364" unicode=")"/>
<glyph d="M15 -230v49c124 58 241 209 241 449s-116 391 -241 449v49c185 -63 300 -241 300 -498s-115 -435 -300 -498z" glyph-name="parenright.old" horiz-adv-x="364"/>
<glyph d="M133 -230v49c124 58 241 209 241 449s-116 391 -241 449v49c185 -63 300 -241 300 -498s-115 -435 -300 -498z" glyph-name="parenright.oldtab" horiz-adv-x="600"/>
<glyph d="M159 -150v49c124 53 242 183 242 419s-117 361 -242 419v49c186 -63 300 -216 300 -468s-114 -405 -300 -468z" glyph-name="parenright.tab" horiz-adv-x="650"/>
<glyph d="M30 -140v49c126 58 241 192 241 429s-116 371 -241 429v49c185 -63 300 -224 300 -478s-115 -415 -300 -478z" glyph-name="parenright.uc" horiz-adv-x="384"/>
<glyph d="M240 -26l460 788h59l-460 -788h-59zM235 344c-120 0 -198 87 -198 208c0 123 81 208 198 208s199 -86 199 -208c0 -123 -80 -208 -199 -208zM235 394c95 0 140 75 140 158c0 85 -47 158 -140 158c-94 0 -139 -75 -139 -158s44 -158 139 -158zM766 -13 c-120 0 -197 87 -197 208c0 123 80 208 197 208s199 -86 199 -208c0 -123 -80 -208 -199 -208zM766 38c96 0 140 75 140 157c0 85 -46 158 -140 158c-93 0 -138 -75 -138 -158c0 -82 44 -157 138 -157z" glyph-name="percent" horiz-adv-x="1002" unicode="%"/>
<glyph d="M223 264c-112 0 -184 79 -184 188c0 111 74 188 184 188c109 0 186 -78 186 -188c0 -111 -75 -188 -186 -188zM236 -26l403 656h59l-403 -656h-59zM223 313c87 0 128 67 128 139c0 74 -43 139 -128 139s-127 -67 -127 -139s41 -139 127 -139zM717 -10 c-108 0 -184 79 -184 188c0 111 78 188 184 188s186 -78 186 -188c0 -111 -79 -188 -186 -188zM717 39c87 0 129 67 129 139c0 74 -44 139 -129 139c-84 0 -126 -67 -126 -139s41 -139 126 -139z" glyph-name="percent.old" horiz-adv-x="942"/>
<glyph d="M86 288c-106 0 -173 74 -173 176c0 104 70 176 173 176c102 0 174 -73 174 -176c0 -104 -70 -176 -174 -176zM69 -18l400 648h58l-399 -648h-59zM86 335c81 0 120 62 120 129c0 69 -41 129 -120 129c-80 0 -120 -62 -120 -129s39 -129 120 -129zM513 -10 c-101 0 -173 74 -173 176c0 104 73 176 173 176c99 0 174 -73 174 -176c0 -104 -74 -176 -174 -176zM513 37c81 0 120 62 120 129c0 69 -40 129 -120 129s-119 -62 -119 -129s38 -129 119 -129z" glyph-name="percent.oldtab" horiz-adv-x="600"/>
<glyph d="M109 370c-104 0 -170 82 -170 195c0 116 69 196 170 196s173 -81 173 -196s-70 -195 -173 -195zM68 -18l451 776h61l-450 -776h-62zM109 422c78 0 116 68 116 143c0 77 -39 144 -116 144c-76 0 -114 -69 -114 -144s37 -143 114 -143zM538 -13c-104 0 -170 82 -170 196 c0 115 69 195 170 195c102 0 173 -81 173 -195c0 -115 -70 -196 -173 -196zM538 39c78 0 116 69 116 144c0 77 -40 144 -116 144s-114 -69 -114 -144s37 -144 114 -144z" glyph-name="percent.tab" horiz-adv-x="650"/>
<glyph d="M71 0v77h76v-77h-76z" glyph-name="period" horiz-adv-x="218" unicode="."/>
<glyph d="M71 0v77h76v-77h-76z" glyph-name="period.old" horiz-adv-x="218"/>
<glyph d="M262 0v77h76v-77h-76z" glyph-name="period.oldtab" horiz-adv-x="600"/>
<glyph d="M287 0v77h76v-77h-76z" glyph-name="period.tab" horiz-adv-x="650"/>
<glyph d="M71 253v71h71v-71h-71z" glyph-name="periodcentered" horiz-adv-x="213" unicode="·"/>
<glyph d="M240 -26l460 788h59l-460 -788h-59zM235 344c-120 0 -198 87 -198 208c0 123 81 208 198 208s199 -86 199 -208c0 -123 -80 -208 -199 -208zM235 394c95 0 140 75 140 158c0 85 -47 158 -140 158c-94 0 -139 -75 -139 -158s44 -158 139 -158zM766 -13 c-120 0 -197 87 -197 208c0 123 80 208 197 208s199 -86 199 -208c0 -123 -80 -208 -199 -208zM1230 -13c-120 0 -197 87 -197 208c0 123 80 208 197 208s199 -86 199 -208c0 -123 -80 -208 -199 -208zM766 38c96 0 140 75 140 157c0 85 -46 158 -140 158 c-93 0 -138 -75 -138 -158c0 -82 44 -157 138 -157zM1230 38c95 0 140 75 140 157c0 85 -47 158 -140 158c-94 0 -139 -75 -139 -158c0 -82 44 -157 139 -157z" glyph-name="perthousand" horiz-adv-x="1466" unicode="‰"/>
<glyph d="M223 264c-112 0 -184 79 -184 188c0 111 74 188 184 188c109 0 186 -78 186 -188c0 -111 -75 -188 -186 -188zM236 -26l403 656h59l-403 -656h-59zM223 313c87 0 128 67 128 139c0 74 -43 139 -128 139s-127 -67 -127 -139s41 -139 127 -139zM717 -10 c-108 0 -184 79 -184 188c0 111 78 188 184 188s186 -78 186 -188c0 -111 -79 -188 -186 -188zM1138 -10c-108 0 -184 79 -184 188c0 111 78 188 184 188s186 -78 186 -188c0 -111 -79 -188 -186 -188zM717 39c87 0 129 67 129 139c0 74 -44 139 -129 139 c-84 0 -126 -67 -126 -139s41 -139 126 -139zM1138 39c87 0 128 67 128 139c0 74 -43 139 -128 139s-126 -67 -126 -139s40 -139 126 -139z" glyph-name="perthousand.old" horiz-adv-x="1362"/>
<glyph d="M145 288c-88 0 -144 74 -144 176c0 104 58 176 144 176s146 -73 146 -176c0 -104 -59 -176 -146 -176zM131 -18l335 648h50l-336 -648h-49zM145 335c68 0 96 62 96 129c0 69 -29 129 -96 129s-95 -62 -95 -129s27 -129 95 -129zM503 -10c-85 0 -144 74 -144 176 c0 104 61 176 144 176s146 -73 146 -176c0 -104 -62 -176 -146 -176zM829 -10c-85 0 -144 74 -144 176c0 104 61 176 144 176s146 -73 146 -176c0 -104 -62 -176 -146 -176zM503 37c68 0 96 62 96 129c0 69 -29 129 -96 129s-95 -62 -95 -129s28 -129 95 -129zM829 37 c68 0 97 62 97 129c0 69 -30 129 -97 129s-95 -62 -95 -129s28 -129 95 -129z" glyph-name="perthousand.oldtab" horiz-adv-x="975"/>
<glyph d="M144 370c-88 0 -143 82 -143 195c0 116 58 196 143 196s146 -81 146 -196s-59 -195 -146 -195zM109 -18l380 776h52l-379 -776h-53zM144 422c66 0 93 68 93 143c0 77 -28 144 -93 144c-64 0 -91 -69 -91 -144s26 -143 91 -143zM505 -13c-87 0 -143 82 -143 196 c0 115 58 195 143 195c86 0 146 -81 146 -195c0 -115 -59 -196 -146 -196zM829 -13c-87 0 -143 82 -143 196c0 115 58 195 143 195c86 0 146 -81 146 -195c0 -115 -58 -196 -146 -196zM505 39c66 0 93 69 93 144c0 77 -28 144 -93 144c-64 0 -91 -69 -91 -144 s27 -144 91 -144zM829 39c66 0 93 69 93 144c0 77 -28 144 -93 144c-64 0 -91 -69 -91 -144s27 -144 91 -144z" glyph-name="perthousand.tab" horiz-adv-x="975"/>
<glyph d="M454 324h-178v-199h-50v199h-178v47h178v198h50v-198h178v-47z" glyph-name="plus" horiz-adv-x="502" unicode="+"/>
<glyph d="M453 274h-178v-199h-50v199h-178v47h178v198h50v-198h178v-47z" glyph-name="plus.old" horiz-adv-x="500"/>
<glyph d="M503 274h-178v-199h-50v199h-178v47h178v198h50v-198h178v-47z" glyph-name="plus.oldtab" horiz-adv-x="600"/>
<glyph d="M528 324h-178v-199h-50v199h-178v47h178v198h50v-198h178v-47z" glyph-name="plus.tab" horiz-adv-x="650"/>
<glyph d="M486 393h-179v-188h-49v188h-178v47h178v189h49v-189h179v-47zM80 79v48h406v-48h-406z" glyph-name="plusminus" horiz-adv-x="567" unicode="±"/>
<glyph d="M477 322h-178v-188h-50v188h-177v48h177v188h50v-188h178v-48zM72 13v48h405v-48h-405z" glyph-name="plusminus.old" horiz-adv-x="549"/>
<glyph d="M502 322h-178v-188h-50v188h-177v48h177v188h50v-188h178v-48zM97 13v48h405v-48h-405z" glyph-name="plusminus.oldtab" horiz-adv-x="600"/>
<glyph d="M528 393h-179v-188h-49v188h-178v47h178v189h49v-189h179v-47zM122 79v48h406v-48h-406z" glyph-name="plusminus.tab" horiz-adv-x="650"/>
<glyph d="M471 -250v357c-40 -86 -118 -117 -188 -117c-137 0 -234 110 -234 258c0 149 102 255 234 255c76 0 151 -34 188 -113l8 103h46v-743h-54zM289 37c88 0 182 64 182 211c0 117 -66 208 -181 208c-113 0 -187 -92 -187 -208c0 -139 93 -211 186 -211z" glyph-name="q" horiz-adv-x="608" unicode="q"/>
<glyph d="M188 212c-6 15 -9 31 -9 45c0 126 215 155 215 316c0 75 -53 138 -149 138c-147 0 -164 -141 -164 -141h-43v39s31 151 208 151c134 0 207 -78 207 -187c0 -182 -218 -211 -218 -319c0 -13 2 -27 8 -42h-55zM179 0v77h77v-77h-77z" glyph-name="question" horiz-adv-x="494" unicode="?"/>
<glyph d="M305 398c6 -15 9 -31 9 -45c0 -126 -215 -155 -215 -316c0 -75 53 -138 149 -138c147 0 164 141 164 141h43v-39s-31 -151 -208 -151c-134 0 -207 78 -207 187c0 182 218 211 218 319c0 13 -2 27 -8 42h55zM314 610v-77h-77v77h77z" glyph-name="questiondown" horiz-adv-x="493" unicode="¿"/>
<glyph d="M306 538c6 -15 9 -31 9 -45c0 -126 -215 -155 -215 -316c0 -75 53 -138 149 -138c147 0 164 141 164 141h43v-39s-31 -151 -208 -151c-134 0 -207 78 -207 187c0 182 218 211 218 319c0 13 -2 27 -8 42h55zM315 750v-77h-77v77h77z" glyph-name="questiondown.uc" horiz-adv-x="495"/>
<glyph d="M76 510l-8 240h62l-10 -240h-44zM208 510l-8 240h62l-10 -240h-44z" glyph-name="quotedbl" horiz-adv-x="329" unicode='"'/>
<glyph d="M74 -96v173h72v-64l-35 -109h-37zM216 -96v173h72v-64l-35 -109h-37z" glyph-name="quotedblbase" horiz-adv-x="362" unicode="„"/>
<glyph d="M276 750v-173h-72v64l35 109h37zM134 750v-173h-72v64l35 109h37z" glyph-name="quotedblleft" horiz-adv-x="344" unicode="“"/>
<glyph d="M68 577v173h72v-64l-35 -109h-37zM210 577v173h72v-64l-35 -109h-37z" glyph-name="quotedblright" horiz-adv-x="335" unicode="”"/>
<glyph d="M134 750v-173h-72v64l35 109h37z" glyph-name="quoteleft" horiz-adv-x="202" unicode="‘"/>
<glyph d="M68 577v173h72v-64l-35 -109h-37z" glyph-name="quoteright" horiz-adv-x="193" unicode="’"/>
<glyph d="M74 -96v173h72v-64l-35 -109h-37z" glyph-name="quotesinglbase" horiz-adv-x="220" unicode="‚"/>
<glyph d="M76 510l-8 240h62l-10 -240h-44z" glyph-name="quotesingle" horiz-adv-x="197" unicode="'"/>
<glyph d="M84 0v493h46l5 -80c23 54 70 90 139 90c73 0 121 -38 134 -106v-38h-38c-11 58 -42 97 -108 97c-94 0 -124 -81 -124 -159v-297h-54z" glyph-name="r" horiz-adv-x="422" unicode="r"/>
<glyph d="M84 0v493h46l5 -80c23 54 70 90 139 90c73 0 121 -38 134 -106v-38h-38c-11 58 -42 97 -108 97c-94 0 -124 -81 -124 -159v-297h-54zM209 610v36l99 104h45v-36l-99 -104h-45z" glyph-name="racute" horiz-adv-x="422" unicode="ŕ"/>
<glyph d="M84 0v493h46l5 -80c23 54 70 90 139 90c73 0 121 -38 134 -106v-38h-38c-11 58 -42 97 -108 97c-94 0 -124 -81 -124 -159v-297h-54zM255 610h-49l-100 104v36h36l88 -92l87 92h36v-36z" glyph-name="rcaron" horiz-adv-x="422" unicode="ř"/>
<glyph d="M84 0v493h46l5 -80c23 54 70 90 139 90c73 0 121 -38 134 -106v-38h-38c-11 58 -42 97 -108 97c-94 0 -124 -81 -124 -159v-297h-54zM82 -191v139h60v-58l-25 -81h-35z" glyph-name="rcommaaccent" horiz-adv-x="422" unicode="ŗ"/>
<glyph d="M231 -158l-156 179v675l156 179h718l156 -179v-675l-156 -179h-718zM255 -88h670l110 127v639l-110 127h-670l-110 -127v-639z" glyph-name="regframe1" unicode=""/>
<glyph d="M356 148c-163 0 -298 135 -298 306s135 306 298 306s298 -135 298 -306s-135 -306 -298 -306zM356 187c145 0 254 123 254 267s-109 266 -254 266c-144 0 -253 -122 -253 -266s109 -267 253 -267zM303 427v-127h-42v313h90c72 0 106 -40 106 -90c0 -44 -24 -71 -64 -85 l85 -110v-28h-29l-101 127h-45zM303 463h45c43 0 67 28 67 58s-25 58 -67 58h-45v-116z" glyph-name="registered" horiz-adv-x="712" unicode="®"/>
<glyph d="M183 598c-48 0 -84 33 -84 80c0 46 36 79 84 79c49 0 85 -33 85 -79c0 -47 -36 -80 -85 -80zM183 638c22 0 41 15 41 40c0 24 -19 39 -41 39c-20 0 -40 -15 -40 -39c0 -25 20 -40 40 -40z" glyph-name="ring" horiz-adv-x="367" unicode="˚"/>
<glyph d="M190 801c-48 0 -84 33 -84 80c0 46 36 79 84 79c49 0 84 -33 84 -79c0 -47 -35 -80 -84 -80zM190 841c22 0 40 15 40 40c0 24 -18 39 -40 39c-21 0 -40 -15 -40 -39c0 -25 19 -40 40 -40z" glyph-name="ring.uc" horiz-adv-x="380"/>
<glyph d="M243 -10c-117 0 -174 58 -194 109v37h37c17 -51 64 -99 157 -99c81 0 122 38 122 87c0 58 -47 77 -116 94l-61 14c-67 15 -128 48 -128 132c0 78 69 139 172 139c97 0 157 -42 172 -100v-37h-37c-11 50 -53 90 -135 90c-75 0 -120 -38 -120 -90c0 -54 40 -75 103 -90 l55 -13c75 -17 148 -48 148 -136c0 -77 -56 -137 -175 -137z" glyph-name="s" horiz-adv-x="467" unicode="s"/>
<glyph d="M243 -10c-117 0 -174 58 -194 109v37h37c17 -51 64 -99 157 -99c81 0 122 38 122 87c0 58 -47 77 -116 94l-61 14c-67 15 -128 48 -128 132c0 78 69 139 172 139c97 0 157 -42 172 -100v-37h-37c-11 50 -53 90 -135 90c-75 0 -120 -38 -120 -90c0 -54 40 -75 103 -90 l55 -13c75 -17 148 -48 148 -136c0 -77 -56 -137 -175 -137zM211 610v36l99 104h45v-36l-99 -104h-45z" glyph-name="sacute" horiz-adv-x="467" unicode="ś"/>
<glyph d="M243 -10c-117 0 -174 58 -194 109v37h37c17 -51 64 -99 157 -99c81 0 122 38 122 87c0 58 -47 77 -116 94l-61 14c-67 15 -128 48 -128 132c0 78 69 139 172 139c97 0 157 -42 172 -100v-37h-37c-11 50 -53 90 -135 90c-75 0 -120 -38 -120 -90c0 -54 40 -75 103 -90 l55 -13c75 -17 148 -48 148 -136c0 -77 -56 -137 -175 -137zM205 610v36l76 134h45v-36l-76 -134h-45z" glyph-name="sacute.pl" horiz-adv-x="467"/>
<glyph d="M243 -10c-117 0 -174 58 -194 109v37h37c17 -51 64 -99 157 -99c81 0 122 38 122 87c0 58 -47 77 -116 94l-61 14c-67 15 -128 48 -128 132c0 78 69 139 172 139c97 0 157 -42 172 -100v-37h-37c-11 50 -53 90 -135 90c-75 0 -120 -38 -120 -90c0 -54 40 -75 103 -90 l55 -13c75 -17 148 -48 148 -136c0 -77 -56 -137 -175 -137zM264 610h-49l-100 104v36h36l88 -92l87 92h36v-36z" glyph-name="scaron" horiz-adv-x="467" unicode="š"/>
<glyph d="M327 -111c0 -51 -46 -77 -83 -81h-37v42c42 0 71 11 71 42c0 30 -29 43 -67 43v57c-96 9 -144 61 -162 107v37h37c17 -51 64 -99 157 -99c81 0 122 38 122 87c0 58 -47 77 -116 94l-61 14c-67 15 -128 48 -128 132c0 78 69 139 172 139c97 0 157 -42 172 -100v-37h-37 c-11 50 -53 90 -135 90c-75 0 -120 -38 -120 -90c0 -54 40 -75 103 -90l55 -13c75 -17 148 -48 148 -136c0 -74 -52 -133 -162 -137v-29c48 -7 71 -34 71 -72z" glyph-name="scedilla" horiz-adv-x="467" unicode="ş"/>
<glyph d="M243 -10c-117 0 -174 58 -194 109v37h37c17 -51 64 -99 157 -99c81 0 122 38 122 87c0 58 -47 77 -116 94l-61 14c-67 15 -128 48 -128 132c0 78 69 139 172 139c97 0 157 -42 172 -100v-37h-37c-11 50 -53 90 -135 90c-75 0 -120 -38 -120 -90c0 -54 40 -75 103 -90 l55 -13c75 -17 148 -48 148 -136c0 -77 -56 -137 -175 -137zM330 610l-88 92l-87 -92h-36v36l99 104h49l99 -104v-36h-36z" glyph-name="scircumflex" horiz-adv-x="467" unicode="ŝ"/>
<glyph d="M243 -10c-117 0 -174 58 -194 109v37h37c17 -51 64 -99 157 -99c81 0 122 38 122 87c0 58 -47 77 -116 94l-61 14c-67 15 -128 48 -128 132c0 78 69 139 172 139c97 0 157 -42 172 -100v-37h-37c-11 50 -53 90 -135 90c-75 0 -120 -38 -120 -90c0 -54 40 -75 103 -90 l55 -13c75 -17 148 -48 148 -136c0 -77 -56 -137 -175 -137zM219 -191v139h60v-58l-25 -81h-35z" glyph-name="scommaaccent" horiz-adv-x="467" unicode="ș"/>
<glyph d="M72 505l6 245h72l-35 -245h-43zM214 505l6 245h72l-35 -245h-43z" glyph-name="second" horiz-adv-x="347" unicode="″"/>
<glyph d="M278 -120c-147 0 -203 85 -210 132v39h42c1 -35 39 -122 168 -122c102 0 155 50 155 114c0 68 -25 95 -152 136l-72 22c-87 27 -143 68 -143 157c0 40 19 82 59 108c-40 30 -59 67 -59 123c0 101 83 171 209 171c183 0 205 -132 205 -132v-39h-43s-16 122 -162 122 c-102 0 -153 -56 -153 -121c0 -49 24 -87 153 -131l61 -20c110 -36 153 -73 153 -155c0 -48 -18 -83 -60 -110c36 -27 60 -65 60 -128c0 -93 -72 -166 -211 -166zM317 222c21 -6 46 -13 64 -22c33 17 49 47 49 81c0 50 -17 76 -137 117l-58 19c-24 9 -46 15 -62 24 c-31 -19 -48 -47 -48 -79c0 -48 20 -84 120 -116z" glyph-name="section" horiz-adv-x="553" unicode="§"/>
<glyph d="M72 423v77h76v-77h-76zM72 -96v173h72v-64l-35 -109h-37z" glyph-name="semicolon" horiz-adv-x="219" unicode=";"/>
<glyph d="M72 423v77h76v-77h-76zM72 -96v173h72v-64l-35 -109h-37z" glyph-name="semicolon.old" horiz-adv-x="219"/>
<glyph d="M262 423v77h76v-77h-76zM262 -96v173h72v-64l-35 -109h-37z" glyph-name="semicolon.oldtab" horiz-adv-x="600"/>
<glyph d="M287 423v77h76v-77h-76zM287 -96v173h72v-64l-35 -109h-37z" glyph-name="semicolon.tab" horiz-adv-x="650"/>
<glyph d="M112 -10v41c65 171 183 449 275 667h-364v52h427v-42c-100 -228 -220 -510 -296 -718h-42z" glyph-name="seven" horiz-adv-x="472" unicode="7"/>
<glyph d="M152 -260h-40v41c45 117 210 523 271 670h-367v49h427v-39c-68 -154 -238 -580 -291 -721z" glyph-name="seven.old" horiz-adv-x="460"/>
<glyph d="M220 -260h-40v41c45 117 213 523 274 670h-370v49h431v-39c-68 -154 -242 -580 -295 -721z" glyph-name="seven.oldtab" horiz-adv-x="600"/>
<glyph d="M201 -10v41c65 171 183 449 275 667h-364v52h427v-42c-100 -228 -220 -510 -296 -718h-42z" glyph-name="seven.tab" horiz-adv-x="650"/>
<glyph d="M184 -40l469 830h56l-469 -830h-56zM164 296h-39v36c37 79 142 298 179 372h-269v46h326v-31c-44 -83 -149 -320 -197 -423zM706 -59c-95 1 -154 57 -154 132c0 46 28 101 89 116c-56 25 -67 65 -67 98c0 62 45 117 132 117c85 0 132 -55 132 -117c0 -36 -18 -78 -65 -98 c66 -20 87 -70 87 -116c0 -75 -58 -133 -154 -132zM706 208c52 0 84 34 84 77c0 39 -32 75 -84 75c-53 0 -84 -36 -84 -75c0 -43 30 -77 84 -77zM706 -14c64 0 104 34 104 89c0 49 -37 90 -104 90s-104 -41 -104 -91c0 -54 40 -88 104 -88z" glyph-name="seveneighths" horiz-adv-x="904" unicode="⅞"/>
<glyph d="M299 -9c-157 0 -248 110 -248 242c0 123 50 192 213 406l92 121h38v-35l-97 -130c-47 -60 -114 -144 -144 -187c36 43 100 65 151 65c152 0 241 -107 241 -240s-91 -242 -246 -242zM299 40c115 0 187 77 187 193c0 118 -67 191 -187 191c-113 0 -189 -74 -189 -191 s71 -193 189 -193z" glyph-name="six" horiz-adv-x="580" unicode="6"/>
<glyph d="M293 -10c-156 0 -242 111 -242 243c0 123 43 193 208 406l93 121h38v-38l-97 -126c-47 -60 -118 -147 -148 -189c37 44 103 66 154 66c152 0 237 -107 237 -240s-87 -243 -243 -243zM293 37c116 0 189 87 189 196c0 111 -68 193 -188 193c-113 0 -189 -83 -189 -193 s71 -196 188 -196z" glyph-name="six.old" horiz-adv-x="571"/>
<glyph d="M307 -10c-156 0 -242 111 -242 243c0 123 43 193 208 406l93 121h38v-38l-97 -126c-47 -60 -118 -147 -148 -189c37 44 103 66 154 66c152 0 237 -107 237 -240s-87 -243 -243 -243zM307 37c116 0 189 87 189 196c0 111 -68 193 -188 193c-113 0 -189 -83 -189 -193 s71 -196 188 -196z" glyph-name="six.oldtab" horiz-adv-x="600"/>
<glyph d="M333 -9c-158 0 -250 110 -250 242c0 123 46 193 216 406l96 121h39v-35l-101 -126c-49 -60 -117 -148 -146 -191c37 44 99 65 151 65c154 0 245 -107 245 -240s-92 -242 -250 -242zM333 40c118 0 191 80 191 193c0 115 -68 191 -190 191c-115 0 -193 -77 -193 -191 s73 -193 192 -193z" glyph-name="six.tab" horiz-adv-x="650"/>
<glyph d="M29 -250l394 1069h59l-394 -1069h-59z" glyph-name="slash" horiz-adv-x="511" unicode="/"/>
<glyph d="M32 -180l394 1029h62l-394 -1029h-62z" glyph-name="slash.uc" horiz-adv-x="518"/>
<glyph glyph-name="space" horiz-adv-x="266" unicode=" "/>
<glyph glyph-name="space.old" horiz-adv-x="266"/>
<glyph glyph-name="space.oldtab" horiz-adv-x="600"/>
<glyph glyph-name="space.tab" horiz-adv-x="650"/>
<glyph d="M522 52v-52h-462v49c72 60 105 131 105 235c0 12 -1 26 -3 37h-108v49h94c-16 50 -40 104 -40 185c0 130 92 205 207 205c171 0 201 -144 201 -144v-40h-43s-21 135 -157 135c-85 0 -149 -54 -149 -156c0 -87 26 -129 42 -185h235v-49h-225c2 -10 3 -24 3 -37 c0 -96 -32 -174 -91 -232h391z" glyph-name="sterling" horiz-adv-x="578" unicode="£"/>
<glyph d="M501 52v-52h-438v49c86 60 114 138 103 217h-109v48h93c-16 41 -39 85 -39 145c0 115 88 181 197 181c163 0 190 -134 190 -134v-36h-42s-20 121 -147 121c-79 0 -140 -45 -140 -132c0 -63 26 -101 41 -145h176v-48h-163c6 -75 -19 -159 -89 -214h367z" glyph-name="sterling.old" horiz-adv-x="563"/>
<glyph d="M520 52v-52h-438v49c86 60 114 138 103 217h-109v48h93c-16 41 -39 85 -39 145c0 115 88 181 197 181c163 0 190 -134 190 -134v-36h-42s-20 121 -147 121c-79 0 -140 -45 -140 -132c0 -63 26 -101 41 -145h176v-48h-163c6 -75 -19 -159 -89 -214h367z" glyph-name="sterling.oldtab" horiz-adv-x="600"/>
<glyph d="M558 52v-52h-462v49c72 60 105 131 105 235c0 12 -1 26 -3 37h-108v49h94c-16 50 -40 104 -40 185c0 130 92 205 207 205c171 0 201 -144 201 -144v-40h-43s-21 135 -157 135c-85 0 -149 -54 -149 -156c0 -87 26 -129 42 -185h235v-49h-225c2 -10 3 -24 3 -37 c0 -96 -32 -174 -91 -232h391z" glyph-name="sterling.tab" horiz-adv-x="650"/>
<glyph d="M926 202h-214l-122 -202l-122 202h-214l108 176l-108 178h217l119 194l119 -194h217l-108 -178zM546 556h88l-44 72zM365 496l34 -57l35 57h-69zM506 262h168l70 116l-73 118h-162l-73 -119zM746 496l35 -57l34 57h-69zM748 262h67l-34 54zM365 262h67l-33 54zM542 202 l48 -79l47 79h-95z" glyph-name="synagogue"/>
<glyph d="M256 -10c-91 0 -155 54 -155 163v293h-81v47h85l4 132h46v-132h196v-47h-196v-284c0 -76 30 -125 102 -125c68 0 87 51 90 85h38v-38c-11 -44 -48 -94 -129 -94z" glyph-name="t" horiz-adv-x="394" unicode="t"/>
<glyph d="M391 84c-11 -44 -48 -94 -129 -94c-91 0 -155 54 -155 163v106h-81v47h81v140h-81v47h85l4 132h46v-132h196v-47h-196v-140h196v-47h-196v-97c0 -76 30 -125 102 -125c68 0 87 51 90 85h38v-38z" glyph-name="tbar" horiz-adv-x="401" unicode="ŧ"/>
<glyph d="M257 602v148h61v-61l-25 -87h-36zM256 -10c-91 0 -155 54 -155 163v293h-81v47h85l4 132h46v-132h196v-47h-196v-284c0 -76 30 -125 102 -125c68 0 87 51 90 85h38v-38c-11 -44 -48 -94 -129 -94z" glyph-name="tcaron" horiz-adv-x="394" unicode="ť"/>
<glyph d="M216 -191v139h60v-58l-25 -81h-35zM256 -10c-91 0 -155 54 -155 163v293h-81v47h85l4 132h46v-132h196v-47h-196v-284c0 -76 30 -125 102 -125c68 0 87 51 90 85h38v-38c-11 -44 -48 -94 -129 -94z" glyph-name="tcommaaccent" horiz-adv-x="394" unicode="ţ"/>
<glyph glyph-name="thinspace" horiz-adv-x="94" unicode=" "/>
<glyph d="M82 -250v1000h54v-362c31 67 97 115 188 115c137 0 234 -113 234 -252c0 -146 -94 -261 -234 -261c-73 0 -147 33 -188 111v-351h-54zM318 37c103 0 186 82 186 214c0 111 -73 205 -186 205c-117 0 -182 -93 -182 -205c0 -166 109 -214 182 -214z" glyph-name="thorn" horiz-adv-x="606" unicode="þ"/>
<glyph d="M287 -9c-162 0 -227 107 -236 179v39h45c10 -88 76 -169 191 -169c103 0 177 57 177 167c0 83 -54 161 -183 161h-75v48h69c95 0 157 70 157 158c0 79 -50 137 -151 137c-105 0 -154 -79 -162 -145h-44v39c10 58 75 155 207 155c135 0 208 -78 208 -180 c0 -88 -44 -149 -120 -181c92 -24 152 -91 152 -192c0 -127 -88 -216 -235 -216z" glyph-name="three" horiz-adv-x="578" unicode="3"/>
<glyph d="M265 -260c-153 0 -213 109 -223 165v38h38c9 -77 76 -156 185 -156c92 0 167 59 167 170c0 84 -56 162 -180 162h-61v47h55c97 0 161 67 161 151c0 77 -50 139 -144 139c-93 0 -151 -71 -159 -142h-38v38c10 64 75 151 200 151c128 0 195 -81 195 -183 c0 -87 -45 -142 -122 -174c95 -25 147 -92 147 -189c0 -127 -80 -217 -221 -217z" glyph-name="three.old" horiz-adv-x="537"/>
<glyph d="M297 -260c-153 0 -213 109 -223 165v38h38c9 -77 76 -156 185 -156c92 0 167 59 167 170c0 84 -56 162 -180 162h-61v47h55c97 0 161 67 161 151c0 77 -50 139 -144 139c-93 0 -151 -71 -159 -142h-38v38c10 64 75 151 200 151c128 0 195 -81 195 -183 c0 -87 -45 -142 -122 -174c95 -25 147 -92 147 -189c0 -127 -80 -217 -221 -217z" glyph-name="three.oldtab" horiz-adv-x="600"/>
<glyph d="M325 -9c-164 0 -230 107 -240 179v39h43c9 -88 79 -169 197 -169c103 0 177 57 177 167c0 83 -54 161 -183 161h-75v48h70c94 0 156 70 156 158c0 79 -50 137 -151 137c-108 0 -161 -79 -169 -145h-40v39c9 63 75 155 210 155s208 -78 208 -180c0 -88 -44 -149 -120 -181 c92 -24 152 -91 152 -192c0 -127 -88 -216 -235 -216z" glyph-name="three.tab" horiz-adv-x="650"/>
<glyph d="M249 -40l469 830h56l-469 -830h-56zM203 296c-115 0 -150 72 -157 102v36h36c5 -43 43 -94 119 -94c60 0 104 27 104 85c0 35 -23 83 -104 83h-47v44h45c68 0 84 46 84 82c0 52 -36 79 -88 78c-75 -1 -102 -50 -108 -90h-36v36c8 34 45 98 148 98c80 0 133 -39 133 -118 c0 -44 -23 -88 -76 -104c69 -11 99 -60 99 -109c0 -70 -46 -129 -152 -129zM772 -59c-95 1 -154 57 -154 132c0 46 28 101 89 116c-56 25 -68 65 -68 98c0 62 46 117 133 117c85 0 132 -55 132 -117c0 -36 -18 -78 -65 -98c66 -20 87 -70 87 -116c0 -75 -59 -133 -154 -132z M772 208c52 0 84 34 84 77c0 39 -32 75 -84 75c-53 0 -84 -36 -84 -75c0 -43 30 -77 84 -77zM772 -14c64 0 103 34 103 89c0 49 -36 90 -103 90s-104 -41 -104 -91c0 -54 40 -88 104 -88z" glyph-name="threeeighths" horiz-adv-x="964" unicode="⅜"/>
<glyph d="M251 -40l469 830h56l-469 -830h-56zM205 296c-115 0 -150 72 -157 102v36h36c5 -43 43 -94 119 -94c60 0 104 27 104 85c0 35 -23 83 -104 83h-47v44h45c68 0 84 46 84 82c0 52 -36 79 -88 78c-75 -1 -102 -50 -108 -90h-36v36c8 34 45 98 148 98c80 0 133 -39 133 -118 c0 -44 -23 -88 -76 -104c69 -11 99 -60 99 -109c0 -70 -46 -129 -152 -129zM893 69h-67v-124h-51v124h-225v23l218 307h58v-285h67v-45zM775 114v220l-156 -220h156z" glyph-name="threequarters" horiz-adv-x="929" unicode="¾"/>
<glyph d="M274 630c-63 0 -71 53 -115 53c-20 0 -40 -16 -41 -48h-43c0 54 29 94 80 94c62 0 70 -53 111 -53c19 0 34 9 35 48h43c0 -62 -24 -94 -70 -94z" glyph-name="tilde" horiz-adv-x="419" unicode="˜"/>
<glyph d="M305 821c-63 0 -71 53 -115 53c-20 0 -40 -15 -42 -48h-42c0 55 29 95 79 95c63 0 71 -53 112 -53c19 0 34 9 35 48h43c0 -62 -24 -95 -70 -95z" glyph-name="tilde.uc" horiz-adv-x="480"/>
<glyph d="M479 493l-95 193v-243h-48v307h69l97 -198l93 198h66v-307h-50v247l-95 -197h-37zM141 443v264h-97v43h246v-43h-98v-264h-51z" glyph-name="trademark" horiz-adv-x="746" unicode="™"/>
<glyph d="M491 0h-437v49l227 261c79 91 128 164 128 255s-57 146 -153 146c-94 0 -153 -73 -161 -148h-43v39c3 25 46 158 205 158c126 0 210 -68 210 -197c0 -113 -64 -191 -146 -286l-191 -222h361v-55z" glyph-name="two" horiz-adv-x="537" unicode="2"/>
<glyph d="M422 0h-356v46c26 19 176 149 189 159c61 54 86 98 86 151c0 56 -43 100 -114 100c-86 0 -127 -54 -133 -109h-37v37c4 26 38 119 173 119c107 0 167 -58 167 -145c0 -78 -33 -126 -105 -185c-8 -7 -130 -112 -143 -121h273v-52z" glyph-name="two.old" horiz-adv-x="471"/>
<glyph d="M490 0h-362v46l179 151c74 60 102 103 102 159s-44 100 -117 100c-89 0 -130 -54 -136 -109h-38v37c5 26 39 119 176 119c110 0 171 -60 171 -147c0 -79 -40 -128 -114 -186l-140 -118h279v-52z" glyph-name="two.oldtab" horiz-adv-x="600"/>
<glyph d="M552 0h-447v45l227 259c84 94 138 168 138 258c0 101 -67 149 -157 149c-99 0 -155 -73 -164 -148h-45v39c2 25 46 158 210 158c128 0 214 -68 214 -197c0 -116 -69 -195 -156 -292l-188 -216h368v-55z" glyph-name="two.tab" horiz-adv-x="650"/>
<glyph d="M236 -40l469 830h56l-469 -830h-56zM338 300h-285v41l128 117c72 66 99 112 99 163c0 56 -32 91 -91 91c-71 0 -94 -53 -100 -90h-36v36c5 7 22 98 138 98c87 0 139 -48 139 -131c0 -73 -41 -127 -114 -195l-89 -81h211v-49zM754 -60c-114 0 -150 72 -157 102v36h36 c5 -43 43 -94 119 -94c61 0 105 27 105 85c0 35 -23 83 -105 83h-47v44h45c68 0 84 46 84 82c0 52 -36 79 -88 78c-75 -1 -101 -50 -107 -90h-36v36c7 34 45 98 147 98c80 0 133 -39 133 -118c0 -44 -22 -88 -76 -105c69 -10 99 -59 99 -109c0 -69 -46 -128 -152 -128z" glyph-name="twothirds" horiz-adv-x="944" unicode="⅔"/>
<glyph d="M267 -10c-123 0 -190 73 -190 208v295h54v-283c0 -119 52 -173 143 -173c83 0 151 56 151 172v284h55v-493h-47l-4 95c-26 -63 -81 -105 -162 -105z" glyph-name="u" horiz-adv-x="564" unicode="u"/>
<glyph d="M639 0l23 332l-53 23l37 255l55 76h33l16 -324l-22 -30l23 -332h-112zM439 0l23 398l-44 39v243h36v-159h21v159h36v-158h20v158h35v-242l-42 -40l23 -398h-108z" glyph-name="u1F374" unicode="🍴"/>
<glyph d="M298 138v45h40v45h30v235h-70v45l292 170l293 -170v-45h-70v-235h30v-45h40v-45h40v-45h-665v45h40zM468 228v235h-55v-235h55zM568 228v235h-55v-235h55zM668 228v235h-55v-235h55zM768 228v235h-55v-235h55z" glyph-name="u1F3DB" unicode="🏛"/>
<glyph d="M227 190v320h726v-320h-726zM272 235h636v230h-636v-230zM390 268c-49 0 -83 38 -83 82c0 45 34 83 83 83s82 -38 82 -83c0 -44 -33 -82 -82 -82zM591 268c-49 0 -83 37 -83 82c0 46 33 83 83 83s82 -38 82 -83c0 -44 -33 -82 -82 -82zM791 267c-48 0 -82 39 -82 83 s34 83 82 83c50 0 82 -39 82 -83s-32 -83 -82 -83zM585 288h12v13c16 2 27 12 27 26c0 15 -6 23 -27 31v31c7 -1 11 -6 13 -11h11v10c-4 6 -11 13 -24 15v11h-12v-12c-16 -3 -25 -13 -25 -27s8 -23 25 -28v-35c-9 3 -14 8 -16 14h-10v-10c3 -7 12 -14 26 -15v-13zM794 300 c28 0 37 17 37 17v9h-10s-5 -14 -26 -14c-16 0 -27 10 -32 22h37l5 13h-45v8h50l6 14h-52c5 13 15 21 31 21c21 0 25 -13 25 -13h11v9s-9 16 -37 16c-24 0 -40 -14 -46 -33h-10l-6 -14h12v-8h-6l-6 -13h15c6 -20 22 -34 47 -34zM368 301h15v16h31v12h-31v8h12 c23 0 34 15 34 33s-13 30 -34 30h-27v-51h-17v-12h17v-8h-17v-12h17v-16zM585 363c-8 3 -11 6 -11 13s3 12 11 13v-26zM383 349v39h11c14 0 21 -9 21 -19c0 -12 -8 -20 -21 -20h-11zM597 312v30c9 -3 14 -7 14 -15c0 -6 -5 -12 -14 -15z" glyph-name="u1F4B1" unicode="💱"/>
<glyph d="M277 140v420h626v-420h-626zM322 515v-59h536v59h-536zM322 185h536v181h-536v-181zM503 268h145v-40h-145v40zM356 268h105v-40h-105v40z" glyph-name="u1F4B3" unicode="💳"/>
<glyph d="M441 80v591h298v-591h-298zM541 601h98v25h-98v-25zM481 201h218v357h-218v-357zM590 110c17 0 31 14 31 31c0 16 -15 30 -31 30s-31 -14 -31 -30c0 -17 14 -31 31 -31z" glyph-name="u1F4F1" unicode="📱"/>
<glyph d="M590 877c138 0 261 -51 352 -136c102 -96 163 -236 163 -381s-61 -285 -163 -381c-91 -85 -214 -136 -352 -136s-261 51 -352 136c-102 96 -163 236 -163 381s61 285 163 381c91 85 214 136 352 136zM739 670v-409l193 -193c64 76 103 178 103 292 c0 132 -52 247 -134 326c-81 78 -194 121 -311 121c-108 0 -213 -37 -293 -104l144 -144v111h298zM590 -87c109 0 214 37 294 105l-635 636c-64 -77 -104 -179 -104 -294c0 -132 52 -247 134 -326c81 -78 194 -121 311 -121zM639 601v25h-98v-25h98zM481 558v-39l218 -218 v257h-218zM441 384l40 -40v-143h143l115 -115v-6h-298v304zM621 141c0 16 -15 30 -31 30s-31 -14 -31 -30c0 -17 14 -31 31 -31s31 14 31 31z" glyph-name="u1F4F5" unicode="📵"/>
<glyph d="M266 149v381h91v98h205v-98h352v-381h-648zM695 553v45h145v-45h-145zM407 529h107v57h-107v-57zM596 199c78 0 141 63 141 141c0 77 -64 140 -141 140s-140 -63 -140 -140s63 -141 140 -141zM596 229c-60 0 -110 51 -110 111s50 110 110 110s110 -50 110 -110 c0 -61 -49 -111 -110 -111z" glyph-name="u1F4F7" unicode="📷"/>
<glyph d="M507 101v130l-56 82h-136l-51 -78h-52l35 112l-35 112h52l50 -78h138l129 75v92h45v-92h161l114 -132v-92l-40 -38h-57v-93h-297zM274 503v45h272v-45h-272zM661 503v45h297v-45h-297zM709 309h146l-94 109h-52v-109zM552 146h207v47h-207v-47z" glyph-name="u1F681" unicode="🚁"/>
<glyph d="M327 60v400c0 160 100 274 263 274s263 -114 263 -274v-400h-50l-114 134v32h70v370l-169 13l-169 -13v-370h70v-32l-114 -134h-50zM515 568v19h149v-19h-149zM536 263v283l54 2l54 -2v-283h-108zM450 413v126l61 5v-131h-61zM669 413v131l61 -5v-126h-61zM556 282h68 v131h-68v-131zM475 267c-17 0 -29 14 -29 28c0 15 12 27 29 27c16 0 29 -12 29 -27c0 -14 -13 -28 -29 -28zM705 267c-16 0 -29 14 -29 28c0 15 13 27 29 27c17 0 29 -12 29 -27c0 -14 -12 -28 -29 -28zM539 191v20h102v-20h-102zM488 131l26 37h150l26 -37h-202zM437 59 l35 49h234l35 -49h-304z" glyph-name="u1F687" unicode="🚇"/>
<glyph d="M779 40l-41 48h-299l-41 -48h-64l138 162v39h-85v447l201 17l204 -17v-447h-84v-39l138 -162h-67zM747 649l-135 11v-193h135v182zM567 467v193l-135 -11v-182h135zM727 291c21 0 36 16 36 34s-15 33 -36 33c-19 0 -35 -15 -35 -33s16 -34 35 -34zM452 358 c-20 0 -35 -15 -35 -33s15 -34 35 -34s35 16 35 34s-15 33 -35 33zM650 199v24h-121v-24h121zM472 126h234l-30 35h-174z" glyph-name="u1F688" unicode="🚈"/>
<glyph d="M418 173c0 49 -38 77 -80 77c-43 0 -81 -27 -81 -77h-45v201l65 203h682v-404h-46c0 49 -38 77 -80 77c-43 0 -81 -27 -81 -77h-334zM257 297h76l31 83v153h-56l-51 -156v-80zM409 533v-153h65v153h-65zM519 533v-153h65v153h-65zM629 533v-153h65v153h-65zM739 533v-153 h65v153h-65zM914 533h-65v-153h65v153zM338 224c27 0 56 -20 56 -56c0 -37 -29 -57 -56 -57c-30 0 -57 20 -57 57c0 36 27 56 57 56zM833 224c27 0 56 -20 56 -56c0 -37 -29 -57 -56 -57c-30 0 -57 20 -57 57c0 36 27 56 57 56z" glyph-name="u1F68C" unicode="🚌"/>
<glyph d="M325 39v637h530v-637h-115v81h-300v-81h-115zM460 566h259v60h-259v-60zM385 316h410v200h-410v-200zM385 206h115v55h-115v-55zM680 206h115v55h-115v-55z" glyph-name="u1F68D" unicode="🚍"/>
<glyph d="M428 213c0 49 -38 77 -80 77c-43 0 -81 -27 -81 -77h-65v180l99 164h658v-344h-56c0 49 -38 77 -80 77c-43 0 -81 -27 -81 -77h-314zM278 420h156v93h-105zM479 420h115v93h-115v-93zM639 420h115v93h-115v-93zM914 513h-115v-93h115v93zM348 264c27 0 56 -20 56 -56 c0 -37 -29 -57 -56 -57c-30 0 -57 20 -57 57c0 36 27 56 57 56zM823 264c27 0 56 -20 56 -56c0 -37 -29 -57 -56 -57c-30 0 -57 20 -57 57c0 36 27 56 57 56z" glyph-name="u1F690" unicode="🚐"/>
<glyph d="M508 684h-35v-105h-32v105h-35v26h102v-26zM707 579l-28 45l-30 -45h-23v15l36 52l-34 49v15h27l26 -42l28 42h23v-14l-33 -49l34 -52v-16h-26zM751 579v131h31v-131h-31zM598 579l-12 28h-50l-11 -28h-24v13l45 118h31l45 -116v-15h-24zM544 630h33l-16 46zM426 193 c0 49 -38 77 -80 77c-43 0 -81 -27 -81 -77h-65v146l156 60l167 138h282l94 -137l62 -34l19 -173h-69c0 49 -38 77 -80 77c-43 0 -81 -27 -81 -77h-324zM769 493h-222l-113 -93h400zM346 244c27 0 56 -20 56 -56c0 -37 -29 -57 -56 -57c-30 0 -57 20 -57 57 c0 36 27 56 57 56zM831 244c27 0 56 -20 56 -56c0 -37 -29 -57 -56 -57c-30 0 -57 20 -57 57c0 36 27 56 57 56z" glyph-name="u1F695" unicode="🚕"/>
<glyph d="M495 694h-35v-105h-32v105h-35v26h102v-26zM694 589l-28 45l-30 -45h-23v15l36 52l-34 49v15h27l26 -42l28 42h23v-14l-33 -49l34 -52v-16h-26zM738 589v131h31v-131h-31zM585 589l-12 28h-50l-11 -28h-24v13l45 118h31l45 -116v-15h-24zM531 640h33l-16 46zM289 87v60 l-38 18v130l182 244h319l182 -244v-130l-38 -18v-60h-120v60h-367v-60h-120zM723 495h-261l-71 -99h406zM367 285h-76v-63h76v63zM477 285h-76v-63h76v63zM784 285h-76v-63h76v63zM894 285h-76v-63h76v63z" glyph-name="u1F696" unicode="🚖"/>
<glyph d="M200 223v146l156 60l167 138h282l94 -137l62 -34l19 -173h-69c0 49 -38 77 -80 77c-43 0 -81 -27 -81 -77h-324c0 49 -38 77 -80 77c-43 0 -81 -27 -81 -77h-65zM434 430h400l-65 93h-222zM346 161c-30 0 -57 20 -57 57c0 36 27 56 57 56c27 0 56 -20 56 -56 c0 -37 -29 -57 -56 -57zM831 161c-30 0 -57 20 -57 57c0 36 27 56 57 56c27 0 56 -20 56 -56c0 -37 -29 -57 -56 -57z" glyph-name="u1F697" unicode="🚗"/>
<glyph d="M289 137v80l-38 18v130l182 244h319l182 -244v-130l-38 -18v-80h-120v80h-367v-80h-120zM391 466h406l-74 99h-261zM291 292h76v63h-76v-63zM401 292h76v63h-76v-63zM708 292h76v63h-76v-63zM818 292h76v63h-76v-63z" glyph-name="u1F698" unicode="🚘"/>
<glyph d="M202 213v141l99 163h132v100h496v-404h-56c0 49 -38 77 -80 77c-43 0 -81 -27 -81 -77h-284c0 49 -38 77 -80 77c-43 0 -81 -27 -81 -77h-65zM275 380h159v92h-103zM348 151c-30 0 -57 20 -57 57c0 36 27 56 57 56c27 0 56 -20 56 -56c0 -37 -29 -57 -56 -57zM793 151 c-30 0 -57 20 -57 57c0 36 27 56 57 56c27 0 56 -20 56 -56c0 -37 -29 -57 -56 -57z" glyph-name="u1F69A" unicode="🚚"/>
<glyph d="M202 201v112l79 132h147v-154h29v264h505v-354h-35c0 39 -31 62 -64 62c-35 0 -65 -22 -65 -62h-212c-1 39 -27 62 -62 62c-33 0 -63 -22 -65 -62h-76c0 39 -30 62 -64 62s-65 -22 -65 -62h-52zM261 335h127v74h-82zM319 151c-24 0 -46 16 -46 46c0 29 22 45 46 45 c22 0 45 -16 45 -45c0 -30 -23 -46 -45 -46zM524 151c-22 0 -44 16 -46 46c2 29 24 45 46 45c23 0 47 -16 45 -45c2 -30 -22 -46 -45 -46zM863 151c-24 0 -46 16 -46 46c0 29 22 45 46 45c21 0 45 -16 45 -45c0 -30 -24 -46 -45 -46z" glyph-name="u1F69B" unicode="🚛"/>
<glyph d="M547 -20v147h-82v623h245v-623h-82v-147h-81zM587 562c41 0 74 32 74 73s-33 74 -74 74c-40 0 -73 -33 -73 -74s33 -73 73 -73zM587 376c41 0 74 33 74 74c0 40 -33 74 -74 74c-40 0 -73 -34 -73 -74c0 -41 33 -74 73 -74zM587 402c-26 0 -48 21 -48 48c0 26 22 48 48 48 s49 -22 49 -48c0 -27 -23 -48 -49 -48zM587 191c41 0 74 33 74 73c0 41 -33 74 -74 74c-40 0 -73 -33 -73 -74c0 -40 33 -73 73 -73zM587 216c-26 0 -48 22 -48 48c0 27 22 49 48 49s49 -22 49 -49c0 -26 -23 -48 -49 -48z" glyph-name="u1F6A6" unicode="🚦"/>
<glyph d="M425 194l-46 -134h-78l54 154l29 141l9 23l-72 35v27l53 122l80 46l72 6l-14 80l24 42h71l27 -60l-27 -66l-39 -12l22 -50l-13 -59l59 -192l81 -40l31 53l150 -249h-326l-40 150l-68 114h-7zM403 518l-35 -86l39 -20l55 138zM532 352l2 -3l40 -20l-26 73zM602 224 l25 -125l74 128l-137 67z" glyph-name="u1F6A7" unicode="🚧"/>
<glyph d="M590 -157c-138 0 -261 51 -352 136c-102 96 -163 236 -163 381s61 285 163 381c91 85 214 136 352 136s261 -51 352 -136c102 -96 163 -236 163 -381s-61 -285 -163 -381c-91 -85 -214 -136 -352 -136zM590 807c-108 0 -213 -37 -293 -104l635 -635 c64 76 103 178 103 292c0 132 -52 247 -134 326c-81 78 -194 121 -311 121zM279 34c81 -78 194 -121 311 -121c109 0 214 37 294 105l-635 636c-64 -77 -104 -179 -104 -294c0 -132 52 -247 134 -326z" glyph-name="u1F6AB" unicode="🚫"/>
<glyph d="M894 168h-592v132c0 92 50 138 113 153c-24 25 -28 53 -28 70c0 73 49 114 145 114v-50c-63 0 -95 -25 -95 -65c0 -37 26 -60 54 -63v-50c-108 0 -139 -40 -139 -144v-18h32c0 58 32 106 101 106h48c45 0 65 11 65 47v107h30c68 0 95 22 95 58c0 39 -27 61 -96 61v50 c99 0 145 -45 145 -111c0 -73 -56 -109 -124 -109v-76c0 -53 -34 -77 -92 -77h-53c-50 0 -69 -28 -69 -55h460v-80z" glyph-name="u1F6AC" unicode="🚬"/>
<glyph d="M590 877c138 0 261 -51 352 -136c102 -96 163 -236 163 -381s-61 -285 -163 -381c-91 -85 -214 -136 -352 -136s-261 51 -352 136c-102 96 -163 236 -163 381s61 285 163 381c91 85 214 136 352 136zM894 168h-62l100 -100c64 76 103 178 103 292c0 132 -52 247 -134 326 c-81 78 -194 121 -311 121c-108 0 -213 -37 -293 -104l111 -111c23 29 65 45 124 45v-50c-44 0 -73 -12 -86 -33l152 -152v105h30c68 0 95 22 95 58c0 39 -27 61 -96 61v50c99 0 145 -45 145 -111c0 -73 -56 -109 -124 -109v-76c0 -9 -1 -18 -3 -25l107 -107h142v-80z M590 -87c109 0 214 37 294 105l-635 636c-64 -77 -104 -179 -104 -294c0 -132 52 -247 134 -326c81 -78 194 -121 311 -121zM383 443l42 -41c-55 -15 -73 -57 -73 -137v-18h32c0 53 27 98 89 106l50 -50h-20c-50 0 -69 -28 -69 -55h143l80 -80h-355v132c0 78 36 123 81 143z " glyph-name="u1F6AD" unicode="🚭"/>
<glyph d="M381 -1v263l-46 39l14 241l89 47l-23 25l-10 58l28 36h59l28 -38l-11 -56l-22 -25l58 -25l112 -91h95l27 -26v-30h-163l-70 47v-465h-60v247h-45v-247h-60zM666 336v51h54v-51h-54zM725 262v53h55v-53h-55zM817 0h-167l-31 246h50l25 -196h79l24 196h50zM707 167v53h55 v-53h-55z" glyph-name="u1F6AE" unicode="🚮"/>
<glyph d="M590 877c138 0 261 -51 352 -136c102 -96 163 -236 163 -381s-61 -285 -163 -381c-91 -85 -214 -136 -352 -136s-261 51 -352 136c-102 96 -163 236 -163 381s61 285 163 381c91 85 214 136 352 136zM864 298l-18 -144l86 -86c64 76 103 178 103 292 c0 132 -52 247 -134 326c-81 78 -194 121 -311 121c-108 0 -213 -37 -293 -104l122 -122l19 8l-23 25l-10 58l28 36h59l28 -38l-11 -56l-22 -25l58 -25l112 -71h105l27 -26v-30h-173l-70 27v-10l256 -256l12 100h50zM590 -87c109 0 214 37 294 105l-635 636 c-64 -77 -104 -179 -104 -294c0 -132 52 -247 134 -326c81 -78 194 -121 311 -121zM344 482l202 -203v-280h-60v247h-45v-247h-60v263l-46 37zM675 362v51h54v-51h-54zM730 294v53h55v-53h-55zM765 50l50 -50h-175l-25 200l58 -58l11 -92h81z" glyph-name="u1F6AF" unicode="🚯"/>
<glyph d="M568 175l-19 160l95 63l-67 111l-57 -54l-123 -25l-13 20l13 25l98 30l66 105h-32l-18 70l27 42h62l9 -42l-13 -58l58 -34l95 -162v-62l-134 -59v-130h-47zM393 46c-81 0 -147 67 -147 148s66 146 147 146c80 0 146 -66 146 -146c0 -81 -65 -148 -146 -148zM793 46 c-81 0 -147 67 -147 148s66 146 147 146c80 0 146 -66 146 -146c0 -81 -65 -148 -146 -148zM393 96c48 0 91 43 91 98c0 51 -43 96 -91 96c-50 0 -92 -44 -92 -96c0 -54 41 -98 92 -98zM793 96c48 0 91 43 91 98c0 51 -43 96 -91 96c-50 0 -92 -44 -92 -96 c0 -54 41 -98 92 -98z" glyph-name="u1F6B4" unicode="🚴"/>
<glyph d="M412 0l53 183l79 140l-8 75l-110 -114l-21 22v38l122 129l-6 65l36 72l-29 13l-19 77l33 50h78l18 -58l-32 -72l54 -19l99 -84l36 -169l-22 -24h-33l-29 145l-60 47l71 -351l86 -165h-84l-78 150l-26 128h-20l-77 -136l-37 -142h-74z" glyph-name="u1F6B6" unicode="🚶"/>
<glyph d="M590 877c138 0 261 -51 352 -136c102 -96 163 -236 163 -381s-61 -285 -163 -381c-91 -85 -214 -136 -352 -136s-261 51 -352 136c-102 96 -163 236 -163 381s61 285 163 381c91 85 214 136 352 136zM590 807c-108 0 -213 -37 -293 -104l230 -230l-6 65l36 72l-29 13 l-19 82l33 45h78l18 -53l-32 -77l54 -19l99 -84l36 -169l-22 -24h-33l-29 145l-60 47l43 -210l238 -238c64 76 103 178 103 292c0 132 -52 247 -134 326c-81 78 -194 121 -311 121zM590 -87c109 0 214 37 294 105l-635 636c-64 -77 -104 -179 -104 -294 c0 -132 52 -247 134 -326c81 -78 194 -121 311 -121zM441 384l41 -41l-71 -72l-21 22v38zM529 296l52 -52l-58 -102l-37 -142h-74l53 183zM638 187l108 -108l22 -79h-84l-38 150z" glyph-name="u1F6B7" unicode="🚷"/>
<glyph d="M573 0v750h45v-750h-45zM744 52l-12 156h-42l32 144l-47 37l42 158l51 43l-37 28l14 58l26 29h39l26 -31l13 -56l-36 -28l51 -43l42 -158l-47 -37l33 -144h-42l-13 -156h-35v156h-22v-156h-36zM333 52v252l-40 40l10 203l77 48l-17 23l-9 54l26 33h45l26 -35l-10 -52 l-16 -23l79 -47l9 -203l-39 -41v-252h-50v227h-41v-227h-50z" glyph-name="u1F6BB" unicode="🚻"/>
<glyph d="M379 80l77 229l-181 146l230 10l85 197l85 -197l230 -10l-181 -146l77 -229l-211 130z" glyph-name="u1F7CA" unicode="🟊"/>
<glyph d="M267 -10c-123 0 -190 73 -190 208v295h54v-283c0 -119 52 -173 143 -173c83 0 151 56 151 172v284h55v-493h-47l-4 95c-26 -63 -81 -105 -162 -105zM249 610v36l99 104h45v-36l-99 -104h-45z" glyph-name="uacute" horiz-adv-x="564" unicode="ú"/>
<glyph d="M267 -10c-123 0 -190 73 -190 208v295h54v-283c0 -119 52 -173 143 -173c83 0 151 56 151 172v284h55v-493h-47l-4 95c-26 -63 -81 -105 -162 -105zM281 599c-115 0 -126 78 -126 78v43h43s0 -75 83 -75c85 0 80 75 80 75h42v-43s-10 -78 -122 -78z" glyph-name="ubreve" horiz-adv-x="564" unicode="ŭ"/>
<glyph d="M368 610l-88 92l-87 -92h-36v36l99 104h49l99 -104v-36h-36zM267 -10c-123 0 -190 73 -190 208v295h54v-283c0 -119 52 -173 143 -173c83 0 151 56 151 172v284h55v-493h-47l-4 95c-26 -63 -81 -105 -162 -105z" glyph-name="ucircumflex" horiz-adv-x="564" unicode="û"/>
<glyph d="M147 646v74h73v-74h-73zM335 646v74h74v-74h-74zM267 -10c-123 0 -190 73 -190 208v295h54v-283c0 -119 52 -173 143 -173c83 0 151 56 151 172v284h55v-493h-47l-4 95c-26 -63 -81 -105 -162 -105z" glyph-name="udieresis" horiz-adv-x="564" unicode="ü"/>
<glyph d="M267 -10c-123 0 -190 73 -190 208v295h54v-283c0 -119 52 -173 143 -173c83 0 151 56 151 172v284h55v-493h-47l-4 95c-26 -63 -81 -105 -162 -105zM264 621l-99 104v36h45l99 -104v-36h-45z" glyph-name="ugrave" horiz-adv-x="564" unicode="ù"/>
<glyph d="M267 -10c-123 0 -190 73 -190 208v295h54v-283c0 -119 52 -173 143 -173c83 0 151 56 151 172v284h55v-493h-47l-4 95c-26 -63 -81 -105 -162 -105zM182 610v36l102 104h39v-36l-102 -104h-39zM340 610v36l103 104h39v-36l-103 -104h-39z" glyph-name="uhungarumlaut" horiz-adv-x="564" unicode="ű"/>
<glyph d="M267 -10c-123 0 -190 73 -190 208v295h54v-283c0 -119 52 -173 143 -173c83 0 151 56 151 172v284h55v-493h-47l-4 95c-26 -63 -81 -105 -162 -105zM169 654v49h223v-49h-223z" glyph-name="umacron" horiz-adv-x="564" unicode="ū"/>
<glyph d="M0 -174v48h516v-48h-516z" glyph-name="underscore" horiz-adv-x="516" unicode="_"/>
<glyph glyph-name="uni00A0" horiz-adv-x="265" unicode=" "/>
<glyph d="M19 -260c-70 0 -102 36 -111 65v37h38c2 -26 27 -53 71 -53c46 0 67 32 67 94v610h54v-612c0 -93 -40 -141 -119 -141z" glyph-name="uni0237" horiz-adv-x="222" unicode="ȷ"/>
<glyph d="M314 359h-145v-359h-58v359h-100v49h100v342h410v-49h-352v-293h145v-49z" glyph-name="uni0492" horiz-adv-x="544" unicode="Ғ"/>
<glyph d="M302 221h-155v-221h-54v221h-77v47h77v225h315v-47h-261v-178h155v-47z" glyph-name="uni0493" horiz-adv-x="427" unicode="ғ"/>
<glyph d="M930 -150h-54v150h-45l-357 359v-359h-58v359l-359 -359h-38v38l338 340l-327 335v37h39l347 -357v357h58v-357l348 357h36v-36l-326 -334l330 -331h68v-199z" glyph-name="uni0496" horiz-adv-x="923" unicode="Җ"/>
<glyph d="M708 -140h-49v140h-28l-255 243v-243h-54v243l-254 -243h-37v37l226 215l-220 206v35h37l248 -236v236h54v-236l245 236h36v-35l-214 -205l221 -207h44v-186z" glyph-name="uni0497" horiz-adv-x="718" unicode="җ"/>
<glyph d="M514 212c0 -127 -78 -216 -217 -222v-140h-53v142c-133 14 -189 98 -198 145v39h43c9 -67 81 -137 191 -137c103 0 176 55 176 172c0 95 -64 157 -188 157h-82v48h81c95 0 157 64 157 155c0 78 -50 140 -155 140c-98 0 -149 -62 -165 -122h-42v39c17 51 75 132 208 132 c136 0 212 -79 212 -190c0 -74 -43 -140 -114 -171c92 -26 146 -92 146 -187z" glyph-name="uni0498" horiz-adv-x="571" unicode="Ҙ"/>
<glyph d="M420 134c0 -81 -59 -136 -163 -143v-141h-49v141c-99 8 -142 63 -161 108v38h38c21 -64 64 -100 148 -100c87 0 133 38 133 99c0 57 -42 94 -129 94h-80v46h86c72 0 102 38 102 83c0 64 -47 97 -117 97c-66 0 -119 -29 -138 -99h-38v38c25 65 85 108 182 108 c99 0 166 -49 166 -131c0 -53 -25 -90 -81 -114c54 -18 101 -52 101 -124z" glyph-name="uni0499" horiz-adv-x="470" unicode="ҙ"/>
<glyph d="M648 -150h-54v150h-36l-395 359v-359h-58v750h58v-358l385 358h36v-36l-362 -333l365 -332h61v-199z" glyph-name="uni049A" horiz-adv-x="641" unicode="Қ"/>
<glyph d="M492 -140h-49v140h-27l-278 242v-242h-54v493h54v-235l267 235h35v-35l-236 -206l244 -206h44v-186z" glyph-name="uni049B" horiz-adv-x="501" unicode="қ"/>
<glyph d="M295 392l286 358h37v-38l-266 -329l279 -339v-44h-44l-292 359v-179h-56v400h56v-188zM105 0v750h59v-750h-59z" glyph-name="uni049C" horiz-adv-x="656" unicode="Ҝ"/>
<glyph d="M84 0v500h54v-500h-54zM233 258l194 235h35v-35l-168 -204l183 -215v-39h-39l-205 242v-142h-51v300h51v-142z" glyph-name="uni049D" horiz-adv-x="509" unicode="ҝ"/>
<glyph d="M337 359v-359h-58v701h-260v49h318v-358l385 358h36v-36l-362 -333l375 -342v-39h-39z" glyph-name="uni04A0" horiz-adv-x="786" unicode="Ҡ"/>
<glyph d="M225 0v446h-207v47h261v-235l267 235h35v-35l-236 -206l251 -213v-39h-39l-278 242v-242h-54z" glyph-name="uni04A1" horiz-adv-x="622" unicode="ҡ"/>
<glyph d="M751 -150h-54v150h-105v359h-428v-359h-59v750h59v-342h428v342h59v-701h100v-199z" glyph-name="uni04A2" horiz-adv-x="783" unicode="Ң"/>
<glyph d="M561 -140h-49v140h-90v229h-284v-229h-54v493h54v-217h284v217h54v-447h85v-186z" glyph-name="uni04A3" horiz-adv-x="584" unicode="ң"/>
<glyph d="M696 133c0 0 -64 -134 -260 -143v-140h-54v141c-212 16 -328 180 -328 387c0 221 135 382 360 382c216 0 277 -138 277 -138v-39h-42s-46 128 -234 128c-196 0 -302 -149 -302 -333c0 -194 120 -339 303 -339c186 0 238 133 238 133h42v-39z" glyph-name="uni04AA" horiz-adv-x="736" unicode="Ҫ"/>
<glyph d="M481 103c0 0 -34 -105 -176 -113v-140h-49v142c-129 15 -207 122 -207 254c0 143 94 257 240 257c156 0 191 -111 191 -111v-38h-37s-24 101 -155 101c-122 0 -185 -101 -185 -209c0 -107 63 -209 186 -209c134 0 155 103 155 103h37v-37z" glyph-name="uni04AB" horiz-adv-x="530" unicode="ҫ"/>
<glyph d="M278 0v307l-269 404v39h40l262 -393l246 393h37v-36l-258 -409v-305h-58z" glyph-name="uni04AE" horiz-adv-x="611" unicode="Ү"/>
<glyph d="M277 -250h-59v248l-192 455v40h41l182 -437l183 437h37v-37l-192 -457v-249z" glyph-name="uni04AF" horiz-adv-x="495" unicode="ү"/>
<glyph d="M524 262h-180v-262h-59v262h-187v49h183l-265 400v39h40l263 -395l248 395h37v-36l-255 -403h175v-49z" glyph-name="uni04B0" horiz-adv-x="626" unicode="Ұ"/>
<glyph d="M433 -47h-156v-203h-59v203h-142v47h142l-192 453v40h41l182 -437l183 437h37v-37l-191 -456h155v-47z" glyph-name="uni04B1" horiz-adv-x="495" unicode="ұ"/>
<glyph d="M657 -150h-54v150h-42l-249 342l-248 -342h-36v36l250 346l-240 329v39h39l239 -327l237 327h36v-36l-239 -331l243 -334h64v-199z" glyph-name="uni04B2" horiz-adv-x="658" unicode="Ҳ"/>
<glyph d="M494 -140h-49v140h-29l-173 212l-171 -212h-35v35l176 214l-173 206v38h38l169 -208l169 208h35v-35l-174 -209l170 -203h47v-186z" glyph-name="uni04B3" horiz-adv-x="510" unicode="ҳ"/>
<glyph d="M642 -150h-54v150h-104v319h-144c-181 0 -290 51 -290 246v185h59v-184c0 -158 86 -198 233 -198h142v382h58v-701h100v-199z" glyph-name="uni04B6" horiz-adv-x="674" unicode="Ҷ"/>
<glyph d="M492 -140h-49v140h-90v192h-112c-124 0 -196 39 -196 167v134h54v-134c0 -89 43 -121 144 -121h110v255h54v-447h85v-186z" glyph-name="uni04B7" horiz-adv-x="515" unicode="ҷ"/>
<glyph d="M540 0h-59v319h-143v-179h-55v180c-143 10 -235 66 -235 245v185h59v-184c0 -139 71 -186 176 -195v169h55v-172h143v382h59v-750z" glyph-name="uni04B8" horiz-adv-x="645" unicode="Ҹ"/>
<glyph d="M406 0h-54v192h-91v-122h-51v123c-106 6 -166 49 -166 166v134h54v-134c0 -78 33 -112 112 -119v130h51v-132h91v255h54v-493z" glyph-name="uni04B9" horiz-adv-x="490" unicode="ҹ"/>
<glyph d="M163 750v-319h144c181 0 290 -51 290 -246v-185h-58v184c0 158 -87 198 -234 198h-142v-382h-58v750h58z" glyph-name="uni04BA" horiz-adv-x="641" unicode="Һ"/>
<glyph d="M84 0v750h54v-351c23 58 79 104 165 104c133 0 184 -87 184 -215v-288h-54v276c0 112 -35 180 -140 180c-96 0 -155 -70 -155 -179v-277h-54z" glyph-name="uni04BB" horiz-adv-x="564" unicode="һ"/>
<glyph d="M105 0v750h58v-750h-58z" glyph-name="uni04C0" horiz-adv-x="268" unicode="Ӏ"/>
<glyph d="M416 359l-359 -359h-38v38l337 339l-326 334v39h39l347 -357v357h58v-357l348 357h36v-36l-326 -334l339 -341v-39h-40l-357 359v-359h-58v359zM443 814c-125 0 -143 95 -143 95v38h43s1 -90 100 -90c100 0 100 90 100 90h43v-38s-18 -95 -143 -95z" glyph-name="uni04C1" horiz-adv-x="889" unicode="Ӂ"/>
<glyph d="M31 0v37l226 215l-220 206v35h37l248 -236v236h54v-236l245 236h36v-35l-214 -205l227 -214v-39h-39l-255 243v-243h-54v243l-254 -243h-37zM350 599c-125 0 -136 99 -136 99v35h44s-3 -87 92 -87s91 87 91 87h45v-35s-11 -99 -136 -99z" glyph-name="uni04C2" horiz-adv-x="699" unicode="ӂ"/>
<glyph d="M105 0v750h58v-750h-58z" glyph-name="uni04CF" horiz-adv-x="268" unicode="ӏ"/>
<glyph d="M59 0h-40v41l276 709h51l274 -704v-46h-42l-92 236h-336zM467 285l-149 391l-149 -391h298zM323 814c-125 0 -143 95 -143 95v38h43s1 -90 100 -90c100 0 100 90 100 90h43v-38s-18 -95 -143 -95z" glyph-name="uni04D0" horiz-adv-x="641" unicode="Ӑ"/>
<glyph d="M216 -10c-118 0 -173 65 -173 149c0 83 58 145 204 145c72 0 131 -13 131 -13v40c0 94 -42 145 -133 145c-114 0 -137 -85 -137 -85h-38v37s37 95 177 95c121 0 185 -67 185 -194v-309h-43l-6 104c-27 -67 -83 -114 -167 -114zM221 35c106 0 157 87 157 161v31 s-53 13 -132 13c-117 0 -151 -49 -151 -101c0 -66 44 -104 126 -104zM258 595c-125 0 -136 99 -136 99v35h44s-3 -87 92 -87s91 87 91 87h45v-35s-11 -99 -136 -99z" glyph-name="uni04D1" horiz-adv-x="510" unicode="ӑ"/>
<glyph d="M105 0v750h410v-49h-352v-287h315v-49h-315v-316h352v-49h-410zM318 814c-125 0 -143 95 -143 95v38h43s1 -90 100 -90c100 0 100 90 100 90h43v-38s-18 -95 -143 -95z" glyph-name="uni04D6" horiz-adv-x="570" unicode="Ӗ"/>
<glyph d="M292 -10c-154 0 -243 99 -243 258c0 133 80 255 237 255c144 0 220 -95 220 -216c0 -31 -3 -48 -3 -48h-400c5 -133 78 -201 189 -201c99 0 153 55 165 99h38v-38c-11 -24 -63 -109 -203 -109zM105 284h347c0 108 -61 172 -166 172c-104 0 -169 -65 -181 -172zM291 599 c-125 0 -136 99 -136 99v35h44s-3 -87 92 -87s91 87 91 87h45v-35s-11 -99 -136 -99z" glyph-name="uni04D7" horiz-adv-x="554" unicode="ӗ"/>
<glyph d="M391 -10c-212 0 -348 152 -348 365c0 20 3 34 4 40h634c-7 196 -119 316 -299 316c-146 0 -227 -80 -260 -142h-42v39c41 67 131 152 303 152c223 0 356 -151 356 -382c0 -232 -132 -388 -348 -388zM391 39c168 0 277 118 288 308h-579c6 -186 124 -308 291 -308z" glyph-name="uni04D8" horiz-adv-x="794" unicode="Ә"/>
<glyph d="M262 510c154 0 243 -99 243 -258c0 -133 -80 -255 -237 -255c-144 0 -220 95 -220 216c0 31 3 48 3 48h400c-5 133 -78 201 -189 201c-99 0 -153 -55 -165 -99h-38v38c11 24 63 109 203 109zM449 216h-347c0 -108 61 -172 166 -172c104 0 169 65 181 172z" glyph-name="uni04D9" horiz-adv-x="555" unicode="ә"/>
<glyph d="M105 0v750h59v-663l421 663h58v-750h-58v655l-421 -655h-59zM257 847v52h243v-52h-243z" glyph-name="uni04E2" horiz-adv-x="748" unicode="Ӣ"/>
<glyph d="M84 0v493h54v-413l290 413h51v-493h-54v415l-290 -415h-51zM171 654v49h223v-49h-223z" glyph-name="uni04E3" horiz-adv-x="563" unicode="ӣ"/>
<glyph d="M415 -10c-223 0 -362 165 -362 388c0 220 139 382 362 382s362 -162 362 -382c0 -223 -139 -388 -362 -388zM415 39c187 0 303 144 303 339c0 191 -116 333 -303 333s-303 -142 -303 -333c0 -195 116 -339 303 -339zM271 838v76h76v-76h-76zM471 838v76h75v-76h-75z" glyph-name="uni04E6" horiz-adv-x="830" unicode="Ӧ"/>
<glyph d="M288 -10c-146 0 -240 113 -240 256s94 257 240 257c145 0 240 -112 240 -255s-95 -258 -240 -258zM288 37c123 0 186 103 186 211c0 106 -63 208 -187 208c-122 0 -185 -102 -185 -210c0 -107 63 -209 186 -209zM157 646v74h73v-74h-73zM345 646v74h74v-74h-74z" glyph-name="uni04E7" horiz-adv-x="577" unicode="ӧ"/>
<glyph d="M414 -10c-223 0 -361 165 -361 388c0 220 138 382 361 382s362 -162 362 -382c0 -223 -139 -388 -362 -388zM414 711c-177 0 -291 -129 -302 -306h604c-10 177 -124 306 -302 306zM414 39c180 0 294 135 303 317h-605c9 -182 123 -317 302 -317z" glyph-name="uni04E8" horiz-adv-x="829" unicode="Ө"/>
<glyph d="M288 -10c-146 0 -240 113 -240 256s94 257 240 257c145 0 240 -112 240 -255s-95 -258 -240 -258zM287 456c-113 0 -176 -89 -184 -187h370c-8 98 -71 187 -186 187zM288 37c113 0 176 88 184 185h-369c8 -97 71 -185 185 -185z" glyph-name="uni04E9" horiz-adv-x="577" unicode="ө"/>
<glyph d="M214 0h-37v37l98 185l-264 487v41h41l254 -470l243 470h37v-37zM180 847v52h243v-52h-243z" glyph-name="uni04EE" horiz-adv-x="593" unicode="Ӯ"/>
<glyph d="M127 -250h-37v37l138 270l-203 398v38h38l194 -381l187 381h36v-35zM146 654v49h223v-49h-223z" glyph-name="uni04EF" horiz-adv-x="498" unicode="ӯ"/>
<glyph d="M214 0h-37v37l98 185l-264 487v41h41l254 -470l243 470h37v-37zM180 805v36l112 104h40v-36l-113 -104h-39zM352 805v36l112 104h40v-36l-113 -104h-39z" glyph-name="uni04F2" horiz-adv-x="593" unicode="Ӳ"/>
<glyph d="M156 610v36l102 104h39v-36l-102 -104h-39zM314 610v36l103 104h39v-36l-103 -104h-39zM127 -250h-37v37l138 270l-203 398v38h38l194 -381l187 381h36v-35z" glyph-name="uni04F3" horiz-adv-x="498" unicode="ӳ"/>
<glyph d="M638 422h-583v49h426c29 23 42 59 42 101c0 83 -49 139 -163 139c-128 0 -172 -79 -180 -138h-42v39c15 84 95 148 226 148c147 0 216 -84 216 -183c0 -37 -9 -76 -33 -106h91v-49zM596 139c-28 -79 -97 -149 -245 -149c-137 0 -235 76 -235 193c0 31 8 64 27 93h-88v49 h583v-49h-431c-27 -26 -34 -64 -34 -90c0 -97 83 -147 177 -147c113 0 174 49 204 139h42v-39z" glyph-name="uni20B4" horiz-adv-x="696" unicode="₴"/>
<glyph d="M593 351h-535v52h391c19 17 30 42 30 71c0 65 -42 114 -140 114c-115 0 -152 -65 -158 -115h-44v41c14 73 88 126 205 126c132 0 196 -74 196 -160c0 -28 -7 -54 -21 -77h76v-52zM553 116c-24 -68 -88 -126 -223 -126c-125 0 -213 67 -213 169c0 22 6 45 19 64h-78v52 h535v-52h-396c-16 -18 -21 -41 -21 -60c0 -81 66 -121 153 -121c102 0 155 37 181 115h43v-41z" glyph-name="uni20B4.old" horiz-adv-x="653"/>
<glyph d="M566 354h-535v49h396c19 17 29 42 29 71c0 65 -46 117 -145 117c-114 0 -154 -68 -160 -118h-41v38c14 73 88 129 205 129c132 0 196 -74 196 -160c0 -28 -7 -54 -21 -77h76v-49zM526 119c-25 -68 -88 -129 -223 -129c-125 0 -213 67 -213 169c0 22 6 48 19 68h-78v48 h535v-48h-400c-15 -19 -20 -45 -20 -64c0 -81 69 -124 156 -124c102 0 158 40 184 118h40v-38z" glyph-name="uni20B4.oldtab" horiz-adv-x="600"/>
<glyph d="M615 422h-583v49h426c30 23 42 59 42 101c0 83 -49 139 -163 139c-128 0 -172 -79 -180 -138h-42v39c20 84 95 148 226 148c147 0 216 -84 216 -183c0 -37 -11 -76 -35 -106h93v-49zM574 139c-29 -78 -98 -149 -246 -149c-137 0 -235 76 -235 193c0 31 8 64 28 93h-89v49 h583v-49h-431c-27 -26 -33 -64 -33 -90c0 -97 82 -147 177 -147c112 0 173 50 203 139h43v-39z" glyph-name="uni20B4.tab" horiz-adv-x="650"/>
<glyph d="M29 701v49h562v-49h-562zM284 0v552h-255v49h562v-49h-248v-552h-59z" glyph-name="uni20B8" horiz-adv-x="620" unicode="₸"/>
<glyph d="M51 578v52h517v-52h-517zM282 0v435h-231v52h517v-52h-224v-435h-62z" glyph-name="uni20B8.old" horiz-adv-x="619"/>
<glyph d="M42 581v49h516v-49h-516zM274 0v439h-232v48h516v-48h-225v-439h-59z" glyph-name="uni20B8.oldtab" horiz-adv-x="600"/>
<glyph d="M44 701v49h562v-49h-562zM299 0v552h-255v49h562v-49h-248v-552h-59z" glyph-name="uni20B8.tab" horiz-adv-x="650"/>
<glyph d="M487 193h-270v-193h-59v193h-109v49h109v90h-109v48h109v370h188c159 0 246 -75 246 -201c0 -117 -74 -217 -246 -217h-129v-90h270v-49zM217 380h128c135 0 188 74 188 168c0 78 -49 153 -188 153h-128v-321z" glyph-name="uni20BD" horiz-adv-x="630" unicode="₽"/>
<glyph d="M446 129h-226v-129h-62v129h-104v52h104v81h-104v51h104v317h156c157 0 242 -65 242 -184c0 -99 -72 -184 -242 -184h-94v-81h226v-52zM220 313h93c126 0 181 57 181 133c0 75 -51 132 -181 132h-93v-265z" glyph-name="uni20BD.old" horiz-adv-x="596"/>
<glyph d="M448 132h-229v-132h-59v132h-103v49h103v84h-103v48h103v317h157c156 0 241 -65 241 -184c0 -99 -71 -181 -241 -181h-98v-84h229v-49zM219 313h97c133 0 184 57 184 133c0 75 -48 135 -184 135h-97v-268z" glyph-name="uni20BD.oldtab" horiz-adv-x="600"/>
<glyph d="M497 193h-270v-193h-59v193h-109v49h109v90h-109v48h109v370h187c160 0 247 -75 247 -201c0 -117 -74 -217 -247 -217h-128v-90h270v-49zM227 380h127c136 0 189 74 189 168c0 78 -49 153 -189 153h-127v-321z" glyph-name="uni20BD.tab" horiz-adv-x="650"/>
<glyph d="M535 610v110h110v-110h-110zM540 0v500h100v-500h-100z" glyph-name="uni2139" unicode="ℹ"/>
<glyph d="M614 54v-65h-71l-363 376l363 376h71v-65l-245 -261h613v-100h-613z" glyph-name="uni2190" unicode="←"/>
<glyph d="M901 346h65v71l-376 363l-376 -363v-71h65l261 245v-613h100v613z" glyph-name="uni2191" unicode="↑"/>
<glyph d="M565 49v-65h71l363 376l-363 376h-71v-65l245 -261h-613v-100h613z" glyph-name="uni2192" unicode="→"/>
<glyph d="M278 390h-65v-71l376 -363l376 363v71h-65l-261 -245v613h-100v-613z" glyph-name="uni2193" horiz-adv-x="1192" unicode="↓"/>
<glyph d="M490 180v-56h-60l-225 236l225 236h60v-56l-128 -137h456l-128 137v56h61l224 -236l-224 -236h-61v56l127 137h-454z" glyph-name="uni2194" unicode="↔"/>
<glyph d="M591 -25l-236 225v60h56l137 -128v456l-137 -128h-56v61l236 224l236 -224v-61h-56l-137 127v-454l137 127h56v-60z" glyph-name="uni2195" unicode="↕"/>
<glyph d="M832 51l-423 422l-4 -346l-46 -47l-45 47v507h507l47 -45l-47 -46l-346 -4l422 -423z" glyph-name="uni2196" unicode="↖"/>
<glyph d="M348 51l423 422l4 -346l46 -47l45 47v507h-507l-47 -45l47 -46l346 -4l-422 -423z" glyph-name="uni2197" unicode="↗"/>
<glyph d="M357 659l423 -422l4 346l46 47l45 -47v-507h-507l-47 45l47 46l346 4l-422 423z" glyph-name="uni2198" unicode="↘"/>
<glyph d="M828 666l-423 -422l-4 346l-46 47l-45 -47v-507h507l47 45l-47 46l-346 4l422 423z" glyph-name="uni2199" horiz-adv-x="1093" unicode="↙"/>
<glyph d="M858 45h-88v241c0 81 -47 133 -130 133h-258l132 -142v-58h-62l-232 244l232 243h62v-58l-131 -141h257c145 0 218 -85 218 -221v-241z" glyph-name="uni21B0" unicode="↰"/>
<glyph d="M325 45h88v241c0 81 47 133 130 133h258l-132 -142v-58h62l232 244l-232 243h-62v-58l131 -141h-257c-145 0 -218 -85 -218 -221v-241z" glyph-name="uni21B1" unicode="↱"/>
<glyph d="M858 675h-88v-241c0 -81 -47 -133 -130 -133h-258l132 142v58h-62l-232 -244l232 -243h62v58l-131 141h257c145 0 218 85 218 221v241z" glyph-name="uni21B2" unicode="↲"/>
<glyph d="M316 675h88v-241c0 -81 47 -133 130 -133h258l-132 142v58h62l232 -244l-232 -243h-62v58l131 141h-257c-145 0 -218 85 -218 221v241z" glyph-name="uni21B3" unicode="↳"/>
<glyph d="M824 320h-96l-18 -109h-296l-58 289h498zM784 365l15 90h-48l-15 -90h48zM336 141v45h471v-45h-471z" glyph-name="uni2615" unicode="☕"/>
<glyph d="M813 64l-73 149c-11 -132 -109 -200 -217 -200c-126 0 -216 99 -216 209c0 96 56 189 155 212l-10 112l35 46l-20 84l23 48h72l32 -62l-20 -61l-35 -10l51 -40l17 -106h105l29 -23v-37h-127l8 -63h152l113 -258h-74zM368 222c0 -82 60 -152 155 -152c89 0 156 62 157 165 h-197l-14 143c-59 -19 -101 -73 -101 -156z" glyph-name="uni267F" unicode="♿"/>
<glyph d="M537 581v94h301v-624h-304v479l-45 -71v-285c0 -78 -37 -119 -112 -119c-59 0 -102 34 -102 95c0 39 12 59 31 92l194 339h37zM793 630h-211v-147h211v147zM323 151c0 -31 23 -51 57 -51c48 0 64 27 64 87v207l-83 -149c-25 -44 -38 -66 -38 -94z" glyph-name="uni26FD" unicode="⛽"/>
<glyph d="M590 98l-226 227c-31 29 -50 72 -50 116s19 87 50 116c28 27 66 42 108 42s80 -15 109 -42l9 -9l9 9c28 27 67 42 108 42c43 0 81 -15 109 -42c31 -29 50 -72 50 -116s-20 -86 -50 -116z" glyph-name="uni2764" unicode="❤"/>
<glyph d="M265 606v-88h241c81 0 133 -47 133 -130v-258l-142 132h-58v-62l244 -232l243 232v62h-58l-141 -131v257c0 145 -85 218 -221 218h-241z" glyph-name="uni2B0E" unicode="⬎"/>
<glyph d="M288 80v88h241c81 0 133 47 133 130v258l-142 -132h-58v62l244 232l243 -232v-62h-58l-141 131v-257c0 -145 -85 -218 -221 -218h-241z" glyph-name="uni2B0F" unicode="⬏"/>
<glyph d="M902 608v-88h-241c-81 0 -133 -47 -133 -130v-258l142 132h58v-62l-244 -232l-243 232v62h58l141 -131v257c0 145 85 218 221 218h241z" glyph-name="uni2B10" unicode="⬐"/>
<glyph d="M891 66v88h-241c-81 0 -133 47 -133 130v258l142 -132h58v62l-244 232l-243 -232v-62h58l141 131v-257c0 -145 85 -218 221 -218h241z" glyph-name="uni2B11" unicode="⬑"/>
<glyph d="M590 -157c-138 0 -261 51 -352 136c-102 96 -163 236 -163 381s61 285 163 381c91 85 214 136 352 136s261 -51 352 -136c102 -96 163 -236 163 -381s-61 -285 -163 -381c-91 -85 -214 -136 -352 -136zM590 -87c117 0 230 43 311 121c82 79 134 194 134 326 s-52 247 -134 326c-81 78 -194 121 -311 121s-230 -43 -311 -121c-82 -79 -134 -194 -134 -326s52 -247 134 -326c81 -78 194 -121 311 -121z" glyph-name="uniE006" unicode=""/>
<glyph d="M459 22v40l93 52l-15 236l-320 -59v51l316 141c-4 175 20 267 56 267s59 -92 59 -267l315 -141v-51l-319 59l-16 -236l93 -52v-40l-131 25z" glyph-name="uniE50C" unicode=""/>
<glyph d="M701 -31v343h-80l-33 64l-35 -114l70 -128l32 -163h-62l-40 150l-75 101h-7l-57 -118h-170v51l122 11l117 294l-44 -6l-66 -111l-30 21v27l64 113l129 26l-12 78l23 36h65l27 -63l-34 -60l-26 -5l74 -146h48v238c0 2 2 5 4 6l90 60h-341v-139h-45v184h427v-658z" glyph-name="uniE519" unicode=""/>
<glyph d="M450 569v125l-48 -45h-25v28l97 93l97 -93v-28h-25l-48 45v-125h-48zM705 559l-97 93v28h25l48 -45v125h48v-125l48 45h25v-28zM314 55v480h552v-480h-552zM359 100h462v390h-462v-390zM709 140l-6 76h-19l16 70l-23 17l20 77l25 21l-18 13l7 28l12 15h17l13 -15l6 -28 l-17 -13l25 -21l20 -77l-22 -17l15 -70h-19l-6 -76h-18v76h-9v-76h-19zM424 140v122l-20 19l5 99l41 23l-9 11l-5 26l14 17h22l14 -18l-6 -25l-8 -11l41 -23l5 -98l-20 -20v-122h-27v110h-20v-110h-27zM560 140v122l-20 19l5 99l41 23l-9 11l-5 26l14 17h22l14 -18l-6 -25 l-8 -11l41 -23l5 -98l-20 -20v-122h-27v110h-20v-110h-27z" glyph-name="uniE51F" unicode=""/>
<glyph d="M283 69l50 165h-80l79 182l50 172l63 35l-47 12l33 78l25 21h58l28 -59l-19 -56l-42 -7l22 -31l58 -118h63l19 -19v-23h-124l-47 82l-22 -84l49 -185h-53v-165h-50v165h-11l-52 -165h-50zM686 419l-21 40l-63 56l8 36l96 -62h39l-10 63h36l33 -83c2 16 12 38 41 38 c28 0 43 -20 43 -43c0 -20 -10 -45 -43 -45c-24 0 -34 13 -39 22l-16 -22h-104zM525 69v328h373v-328h-50v278h-273v-278h-50z" glyph-name="uniE521" unicode=""/>
<glyph d="M247 515v46l346 212l347 -212v-46h-46l-301 182l-300 -182h-46zM245 138v328h55v-213h585v138h55v-253h-55v60h-584v-60h-56zM325 278v47h108l11 25h-83l-38 23l7 61l56 21l59 -27l19 -34l33 61l363 -64v-113h-535z" glyph-name="uniE524" unicode=""/>
<glyph d="M486 79h-190v185h112l91 93v142l24 52l-24 54l19 44h53l27 -44l-28 -56l43 -76l103 104h191v-183h-110zM351 134h110l310 315h80v73h-109l-309 -313h-82v-75z" glyph-name="uniE527" unicode=""/>
<glyph d="M287 88v55h103v124h121v120h122v121h121v120h154v-54h-99v-121h-121v-121h-121v-121h-122v-123h-158z" glyph-name="uniE52A" unicode=""/>
<glyph d="M438 432c-19 17 -27 40 -27 64c0 52 32 96 92 96c0 52 42 90 92 90c48 0 91 -39 91 -90c58 0 91 -45 91 -96c0 -25 -9 -47 -27 -64h-312zM584 0l-127 402h270l-120 -402h-23z" glyph-name="uniE52E" unicode=""/>
<glyph d="M414 159v45l55 76l-43 149l-102 144h-53v45h84l62 -85h448l-82 -277h-279l-39 -52h347v-45h-398zM485 54c-23 0 -43 20 -43 43s20 43 43 43c24 0 43 -19 43 -43s-19 -43 -43 -43zM729 54c-23 0 -42 19 -42 43s19 43 42 43c24 0 44 -19 44 -43s-20 -43 -44 -43z" glyph-name="uniE52F" unicode=""/>
<glyph d="M384 147l-98 321h158l24 113h243l24 -113h161l-98 -321h-414zM498 468h184l-11 63h-162z" glyph-name="uniE530" unicode=""/>
<glyph d="M505 97v192h-192v169h192v193h169v-193h193v-169h-193v-192h-169z" glyph-name="uniE536" unicode=""/>
<glyph d="M287 464l-46 46c81 100 211 143 349 143s254 -42 349 -143l-46 -46c-102 91 -186 124 -303 124s-213 -33 -303 -124zM368 383l-46 46c60 67 159 110 268 110s205 -42 268 -110l-46 -46c-78 72 -146 92 -222 92s-150 -19 -222 -92zM449 302l-46 46c57 60 118 77 187 77 s130 -19 187 -77l-46 -46c-36 45 -94 58 -141 58s-95 -13 -141 -58zM500 86l-31 108l-31 -108h-36l-39 146v17h36l26 -98l28 98h38l29 -100l26 100h29v-15l-39 -148h-36zM658 86v163h98v-32h-61v-35h54v-32h-54v-64h-37zM591 86v163h42v-163h-42zM774 86v163h42v-163h-42z " glyph-name="uniE542" unicode=""/>
<glyph d="M458 38v415l79 72v36h-43l-122 -109l-34 38l133 120h65v49h59v-49h70l127 60h19v-175h-19l-128 66h-69v-36l79 -71v-416h-216z" glyph-name="uniE545" unicode=""/>
<glyph d="M529 206c-6 14 -9 30 -9 44c0 129 186 130 186 293c0 64 -47 108 -115 108c-110 0 -123 -118 -123 -118h-78v68s38 137 204 137c128 0 218 -76 218 -195c0 -196 -191 -198 -191 -296c0 -13 2 -27 8 -41h-100zM527 0v117h116v-117h-116z" glyph-name="uniE547" unicode=""/>
<glyph d="M847 84c-66 -59 -157 -96 -257 -96s-191 37 -257 96c-75 70 -117 173 -117 276c0 104 42 206 117 276c66 59 157 96 257 96c82 0 157 -20 218 -61l-5 72l28 22l30 -18l14 -188l-196 -14l-22 27l18 31l95 7c-52 35 -115 53 -180 53c-79 0 -157 -29 -213 -82 c-54 -53 -89 -133 -89 -221s35 -168 89 -221c56 -53 134 -82 213 -82s157 29 213 82zM557 283v-48h-158v34l71 79c22 25 28 40 28 63c0 18 -9 30 -27 30c-33 0 -36 -38 -36 -38h-38v32s15 46 80 46c44 0 75 -26 75 -68c0 -34 -16 -61 -46 -95l-31 -35h82zM755 293h-36v-61 h-47v61h-106v37l101 148h52v-142h36v-43zM834 317v-82h-47v243h47v-102c8 11 23 24 48 24c39 0 59 -30 59 -68v-97h-48v82c0 25 -8 38 -28 38c-25 0 -31 -17 -31 -38zM619 336h53v77z" glyph-name="uniE549" unicode=""/>
<glyph d="M430 234l-43 -149h-76l73 256l-127 34l10 31l44 19l115 -27l236 39l60 191h18l24 -65l164 -33l-12 -57l-51 -35h-113l54 -353h-78l-31 149h-147l-42 -149h-77l42 149h-43z" glyph-name="uniE54A" unicode=""/>
<glyph d="M286 63v45h148v59l-56 7v46h177v-46l-56 -7v-59h125v153c-18 -8 -38 -12 -59 -12c-40 0 -76 15 -102 40c-29 27 -47 68 -47 110s18 82 47 110c21 20 49 33 81 38c1 34 16 67 39 89c21 20 51 33 85 33c33 0 62 -13 84 -33c14 -13 25 -30 32 -48c40 -5 75 -23 103 -49 c38 -35 61 -86 61 -139c0 -54 -23 -108 -61 -141c-34 -33 -78 -51 -129 -51c-25 0 -48 4 -69 12v-112h179v-45h-582z" glyph-name="uniE54B" unicode=""/>
<glyph d="M889 445l-299 186l-306 -186h-59v65l366 235l365 -235v-65h-67zM454 -14v497h154c121 0 197 -65 197 -164c0 -93 -66 -180 -197 -180h-61v-153h-93zM547 217h60c65 0 105 40 105 98c0 47 -38 89 -105 89h-60v-187z" glyph-name="uniE54C" unicode=""/>
<glyph d="M434 0v700h179c144 0 235 -84 235 -213c0 -119 -78 -230 -235 -230h-81v-257h-98zM532 341h81c84 0 137 57 137 143c0 70 -49 132 -137 132h-81v-275z" glyph-name="uniE54D" unicode=""/>
<glyph d="M746 449l-169 40l58 31l-59 101c-8 13 -20 28 -29 31h130c16 0 23 -3 31 -16l32 -55l51 30zM506 447l-105 60l66 114c8 14 17 26 42 26c20 0 33 -11 41 -25l29 -49zM792 248l-73 127l105 61l67 -116c6 -11 8 -20 8 -26c0 -29 -20 -46 -50 -46h-57zM351 167l-52 90 c-13 23 -13 31 -13 37s2 16 12 33l20 35l-55 33l167 38l47 -164l-53 33l-64 -111c-6 -10 -8 -17 -9 -24zM717 42l-120 126l120 122v-63h136c2 0 10 0 14 2l-57 -99c-7 -12 -17 -23 -35 -23h-58v-65zM417 106c-28 0 -49 16 -49 44c0 9 4 19 8 26l28 50h147v-120h-134z" glyph-name="uniE565" unicode=""/>
<glyph d="M590 877c138 0 261 -51 352 -136c102 -96 163 -236 163 -381s-61 -285 -163 -381c-91 -85 -214 -136 -352 -136s-261 51 -352 136c-102 96 -163 236 -163 381s61 285 163 381c91 85 214 136 352 136zM848 487c0 -87 -42 -171 -126 -209l210 -210c64 76 103 178 103 292 c0 132 -52 247 -134 326c-81 78 -194 121 -311 121c-108 0 -213 -37 -293 -104l137 -137v134h179c144 0 235 -84 235 -213zM590 -87c109 0 214 37 294 105l-635 636c-64 -77 -104 -179 -104 -294c0 -132 52 -247 134 -326c81 -78 194 -121 311 -121zM532 616v-148l122 -122 c60 16 96 67 96 138c0 70 -49 132 -137 132h-81zM434 391l134 -134h-36v-257h-98v391z" glyph-name="uniE569" unicode=""/>
<glyph d="M590 877c138 0 261 -51 352 -136c102 -96 163 -236 163 -381s-61 -285 -163 -381c-91 -85 -214 -136 -352 -136s-261 51 -352 136c-102 96 -163 236 -163 381s61 285 163 381c91 85 214 136 352 136zM752 438l43 -233l137 -137c64 76 103 178 103 292 c0 132 -52 247 -134 326c-81 78 -194 121 -311 121c-108 0 -213 -37 -293 -104l281 -281l83 13l61 193h18l24 -65l164 -33l-12 -57l-51 -35h-113zM590 -87c109 0 214 37 294 105l-635 636c-64 -77 -104 -179 -104 -294c0 -132 52 -247 134 -326c81 -78 194 -121 311 -121z M430 234l-43 -149h-76l73 256l-127 34l10 31l44 19l115 -27l164 -164h-40l-42 -149h-77l42 149h-43zM639 186l100 -101h-98z" glyph-name="uniE56A" unicode=""/>
<glyph d="M590 877c138 0 261 -51 352 -136c102 -96 163 -236 163 -381s-61 -285 -163 -381c-91 -85 -214 -136 -352 -136s-261 51 -352 136c-102 96 -163 236 -163 381s61 285 163 381c91 85 214 136 352 136zM727 402l-30 -99l235 -235c64 76 103 178 103 292 c0 132 -52 247 -134 326c-81 78 -194 121 -311 121c-108 0 -213 -37 -293 -104l138 -138c16 16 39 27 68 27c0 52 42 90 92 90c48 0 91 -39 91 -90c58 0 91 -45 91 -96c0 -25 -9 -47 -27 -64h-182l30 -30h129zM590 -87c109 0 214 37 294 105l-635 636 c-64 -77 -104 -179 -104 -294c0 -132 52 -247 134 -326c81 -78 194 -121 311 -121zM473 351l184 -184l-50 -167h-22z" glyph-name="uniE56B" unicode=""/>
<glyph d="M590 877c138 0 261 -51 352 -136c102 -96 163 -236 163 -381s-61 -285 -163 -381c-91 -85 -214 -136 -352 -136s-261 51 -352 136c-102 96 -163 236 -163 381s61 285 163 381c91 85 214 136 352 136zM795 523h-44l-23 -251l204 -204c64 76 103 178 103 292 c0 132 -52 247 -134 326c-81 78 -194 121 -311 121c-108 0 -213 -37 -293 -104l116 -116l6 26h226l13 137h56l-13 -137h74zM590 -87c109 0 214 37 294 105l-635 636c-64 -77 -104 -179 -104 -294c0 -132 52 -247 134 -326c81 -78 194 -121 311 -121zM458 367l254 -254 l-7 -74h-216z" glyph-name="uniE56C" unicode=""/>
<glyph d="M590 877c138 0 261 -51 352 -136c102 -96 163 -236 163 -381s-61 -285 -163 -381c-91 -85 -214 -136 -352 -136s-261 51 -352 136c-102 96 -163 236 -163 381s61 285 163 381c91 85 214 136 352 136zM914 149h-63l81 -81c64 76 103 178 103 292c0 132 -52 247 -134 326 c-81 78 -194 121 -311 121c-108 0 -213 -37 -293 -104l75 -75h190v-98h352v-381zM590 -87c109 0 214 37 294 105l-635 636c-64 -77 -104 -179 -104 -294c0 -132 52 -247 134 -326c81 -78 194 -121 311 -121zM695 598h145v-45h-145v45zM514 586h-100l57 -57h43v57zM624 201 l52 -52h-410v380h32l161 -163c-2 -10 -3 -18 -3 -26c0 -77 63 -141 140 -141c11 0 22 1 28 2zM596 480c-23 0 -43 -5 -62 -14l188 -188c10 18 15 40 15 62c0 77 -64 140 -141 140z" glyph-name="uniE56D" unicode=""/>
<glyph d="M641 45h-231v89h239c107 0 167 62 167 144s-60 144 -167 144h-244l116 -125v-58h-63l-216 228l216 227h63v-58l-116 -125h236c167 0 264 -105 264 -233c0 -129 -97 -233 -264 -233z" glyph-name="uniE588" unicode=""/>
<glyph d="M655 658h-231v-89h239c107 0 167 -62 167 -144s-60 -144 -167 -144h-244l116 125v58h-63l-216 -228l216 -227h63v58l-116 125h236c167 0 264 105 264 233c0 129 -97 233 -264 233z" glyph-name="uniE589" unicode=""/>
<glyph d="M516 55h231v89h-239c-107 0 -167 62 -167 144s60 144 167 144h244l-116 -125v-58h63l216 228l-216 227h-63v-58l116 -125h-236c-167 0 -264 -105 -264 -233c0 -129 97 -233 264 -233z" glyph-name="uniE58A" unicode=""/>
<glyph d="M519 645h231v-89h-239c-107 0 -167 -62 -167 -144s60 -144 167 -144h244l-116 125v58h63l216 -228l-216 -227h-63v58l116 125h-236c-167 0 -264 105 -264 233c0 129 97 233 264 233z" glyph-name="uniE58B" unicode=""/>
<glyph d="M889 409v-231h-89v239c0 107 -62 167 -144 167s-144 -60 -144 -167v-244l125 116h58v-63l-228 -216l-227 216v63h58l125 -116v236c0 167 105 264 233 264c129 0 233 -97 233 -264z" glyph-name="uniE58C" unicode=""/>
<glyph d="M422 179c-45 0 -56 24 -109 24c-8 0 -16 0 -24 -1l-91 100v45h182l67 216h460v-372c-15 -7 -27 -12 -49 -12c-45 0 -56 24 -109 24s-64 -24 -109 -24s-56 24 -109 24c-52 0 -64 -24 -109 -24zM428 347h139v170h-87zM612 415h103v102h-103v-102zM760 415h102v102h-102 v-102zM422 101c-57 0 -63 24 -109 24c-19 0 -35 -5 -56 -14v51c22 9 37 11 56 11c53 0 64 -24 109 -24s57 24 109 24c53 0 64 -24 109 -24s56 24 109 24s64 -24 109 -24c22 0 34 5 49 12v-52c-12 -4 -26 -8 -49 -8c-57 0 -63 24 -109 24s-52 -24 -109 -24s-63 24 -109 24 s-52 -24 -109 -24z" glyph-name="uniE592" unicode=""/>
<glyph d="M473 150l-43 -150h-75l46 165l31 352l-57 -58l-14 -155h-36l-22 24l16 169l82 83l80 27l-10 84l23 48h72l32 -62l-23 -74l-39 -11l37 -25l117 -223l-13 -42l-1 -1l166 -301h-56l-227 412v-89l69 -140l53 -183h-75l-37 142l-71 120h-9z" glyph-name="uniE596" unicode=""/>
<glyph d="M687 79h190v185h-112l-91 93v142l-24 52l24 54l-19 44h-53l-27 -44l28 -56l-43 -76l-103 104h-191v-183h110zM822 134h-110l-310 315h-80v73h109l309 -313h82v-75z" glyph-name="uniE599" unicode=""/>
<glyph d="M893 88v55h-103v124h-121v120h-122v121h-121v120h-154v-54h99v-121h121v-121h121v-121h122v-123h158z" glyph-name="uniE59C" unicode=""/>
<glyph d="M285 409v-231h89v239c0 107 62 167 144 167s144 -60 144 -167v-244l-125 116h-58v-63l228 -216l227 216v63h-58l-125 -116v236c0 167 -105 264 -233 264c-129 0 -233 -97 -233 -264z" glyph-name="uniE5A0" unicode=""/>
<glyph d="M895 281v231h-89v-239c0 -107 -62 -167 -144 -167s-144 60 -144 167v244l125 -116h58v63l-228 216l-227 -216v-63h58l125 116v-236c0 -167 105 -264 233 -264c129 0 233 97 233 264z" glyph-name="uniE5A1" unicode=""/>
<glyph d="M289 281v231h89v-239c0 -107 62 -167 144 -167s144 60 144 167v244l-125 -116h-58v63l228 216l227 -216v-63h-58l-125 116v-236c0 -167 -105 -264 -233 -264c-129 0 -233 97 -233 264z" glyph-name="uniE5A2" unicode=""/>
<glyph d="M492 72v164h77v-87h228v424h-228v-90h-77v167h382v-578h-382zM371 192l-165 168l165 171h55v-51l-74 -81h321v-77h-321l74 -80v-50h-55z" glyph-name="uniE5A3" unicode=""/>
<glyph d="M705 72v164h-77v-87h-228v424h228v-90h77v167h-382v-578h382zM826 192l165 168l-165 171h-55v-51l74 -81h-321v-77h321l-74 -80v-50h55z" glyph-name="uniE5A4" unicode=""/>
<glyph d="M879 468h-164v-77h87v-228h-424v228h90v77h-167v-382h578v382zM759 589l-168 165l-171 -165v-55h51l81 74v-321h77v321l80 -74h50v55z" glyph-name="uniE5A5" unicode=""/>
<glyph d="M879 251h-164v77h87v228h-424v-228h90v-77h-167v382h578v-382zM759 130l-168 -165l-171 165v55h51l81 -74v321h77v-321l80 74h50v-55z" glyph-name="uniE5A6" horiz-adv-x="1190" unicode=""/>
<glyph d="M355 -112c0 -51 -46 -77 -83 -81h-37v42c42 0 71 11 71 42c0 30 -29 43 -67 43v58c-129 16 -184 99 -193 145v39h43c9 -67 81 -137 191 -137c103 0 176 55 176 172c0 95 -64 157 -188 157h-82v48h81c95 0 157 64 157 155c0 78 -50 140 -155 140c-98 0 -149 -62 -165 -122 h-42v39c17 51 75 132 208 132c136 0 212 -79 212 -190c0 -74 -43 -140 -114 -171c92 -26 146 -92 146 -187c0 -132 -84 -222 -230 -222v-30c48 -7 71 -34 71 -72z" glyph-name="uniF50A" horiz-adv-x="571" unicode=""/>
<glyph d="M320 -114c0 -51 -46 -77 -83 -81h-37v42c42 0 71 11 71 42c0 30 -29 43 -67 43v59c-96 9 -138 63 -157 108v38h38c21 -64 64 -100 148 -100c87 0 133 38 133 99c0 57 -42 94 -129 94h-80v46h86c72 0 102 38 102 83c0 64 -47 97 -117 97c-66 0 -119 -29 -138 -99h-38v38 c25 65 85 108 182 108c99 0 166 -49 166 -131c0 -53 -25 -90 -81 -114c54 -18 101 -52 101 -124c0 -83 -62 -139 -171 -144v-32c48 -7 71 -34 71 -72z" glyph-name="uniF50B" horiz-adv-x="470" unicode=""/>
<glyph d="M59 0h-40v41l276 709h51l274 -704v-46h-42l-92 236h-336zM467 285l-149 391l-149 -391h298zM200 847v52h243v-52h-243z" glyph-name="uniF50E" horiz-adv-x="641" unicode=""/>
</font>
</defs>
</svg>
